<svg width="26" height="26" viewBox="0 0 26 26" fill="none" xmlns="http://www.w3.org/2000/svg">
<circle cx="13" cy="13" r="13" fill="#1D1E1D"/>
<path d="M19.0909 16.4227C18.7593 15.6372 18.2781 14.9238 17.6741 14.3221C17.0719 13.7186 16.3586 13.2375 15.5735 12.9053C15.5665 12.9018 15.5594 12.9 15.5524 12.8965C16.6475 12.1055 17.3594 10.817 17.3594 9.36328C17.3594 6.95508 15.4082 5.00391 13 5.00391C10.5918 5.00391 8.64067 6.95508 8.64067 9.36328C8.64067 10.817 9.35258 12.1055 10.4477 12.8982C10.4407 12.9018 10.4336 12.9035 10.4266 12.907C9.63911 13.2393 8.93247 13.7156 8.32602 14.3238C7.72258 14.926 7.24146 15.6393 6.90922 16.4244C6.58284 17.193 6.40681 18.0171 6.39067 18.852C6.3902 18.8707 6.39349 18.8894 6.40035 18.9068C6.4072 18.9243 6.41749 18.9402 6.43059 18.9537C6.4437 18.9671 6.45936 18.9778 6.47665 18.9851C6.49395 18.9923 6.51253 18.9961 6.53129 18.9961H7.58598C7.66333 18.9961 7.72485 18.9346 7.72661 18.859C7.76176 17.502 8.30668 16.2311 9.26997 15.2678C10.2666 14.2711 11.5903 13.7227 13 13.7227C14.4098 13.7227 15.7334 14.2711 16.7301 15.2678C17.6934 16.2311 18.2383 17.502 18.2735 18.859C18.2752 18.9363 18.3368 18.9961 18.4141 18.9961H19.4688C19.4876 18.9961 19.5061 18.9923 19.5234 18.9851C19.5407 18.9778 19.5564 18.9671 19.5695 18.9537C19.5826 18.9402 19.5929 18.9243 19.5997 18.9068C19.6066 18.8894 19.6099 18.8707 19.6094 18.852C19.5918 18.0117 19.4178 17.1943 19.0909 16.4227ZM13 12.3867C12.1932 12.3867 11.4338 12.0721 10.8625 11.5008C10.2913 10.9295 9.97661 10.1701 9.97661 9.36328C9.97661 8.55645 10.2913 7.79707 10.8625 7.22578C11.4338 6.65449 12.1932 6.33984 13 6.33984C13.8069 6.33984 14.5663 6.65449 15.1375 7.22578C15.7088 7.79707 16.0235 8.55645 16.0235 9.36328C16.0235 10.1701 15.7088 10.9295 15.1375 11.5008C14.5663 12.0721 13.8069 12.3867 13 12.3867Z" fill="#EFEFEF"/>
</svg>
