<svg width="67" height="54" viewBox="0 0 67 54" fill="none" xmlns="http://www.w3.org/2000/svg">
<g clip-path="url(#clip0_681_4210)">
<path d="M67 24.7742C66.744 20.4516 57.8491 1.5484 52.2818 0.193565C50.618 -0.193531 49.2101 1.69969e-05 48.3142 0.774211C47.1624 1.74195 47.0984 3.16131 47.0984 3.41937V3.5484L47.6743 4.96776L47.3543 5.09679C47.0984 5.16131 46.9064 5.22582 46.6504 5.29034C45.7545 5.67744 44.9866 6.38711 44.6027 7.29034C44.3467 7.9355 44.2827 8.58066 44.3467 9.29034L44.4107 9.74195L44.0267 9.61292C43.1309 9.35486 42.235 9.22582 41.3391 9.22582C38.5874 9.22582 35.8997 10.4516 33.66 12.7097L33.468 12.9032L33.276 12.6452C31.0363 10.3871 28.3486 9.16131 25.5969 9.16131C24.7011 9.16131 23.8052 9.29034 22.9093 9.5484L22.5253 9.67744L22.5893 9.22582C22.7173 8.58066 22.5893 7.87098 22.3333 7.22582C21.9494 6.3226 21.2455 5.61292 20.2856 5.22582C20.0936 5.16131 19.8376 5.09679 19.5817 5.03227L19.2617 4.96776L19.8376 3.61292V3.35486C19.8376 3.09679 19.7736 1.67744 18.6218 0.709694C17.7259 1.69969e-05 16.382 -0.193531 14.7182 0.193565C9.15091 1.48389 0.255969 20.3871 0 24.7742C0 24.8387 0 24.8387 0 24.9032C0 27.871 4.9914 47.742 5.0554 47.9355V48V54H6.84718V48.0645C5.8873 44.5161 1.72779 27.6774 1.72779 24.9678C1.72779 24.9032 1.72779 24.9032 1.72779 24.8387C2.04776 20.5807 10.5587 3.03227 15.1022 1.9355C16.1901 1.67744 17.086 1.74195 17.5339 2.12905C17.9179 2.45163 18.0458 2.90324 18.1098 3.22582V3.29034V3.35486C16.702 6.70969 14.9742 10.9678 14.0783 13.0968L14.0143 13.2903H13.7584C13.6944 13.2903 13.6304 13.2903 13.5664 13.2903C11.9026 13.4194 10.5587 14.4516 10.1748 16L10.1108 16.1936C10.0468 17.3549 9.79083 21.1613 9.59885 24.9678L9.53486 26.6452L8.51098 26.5807C8.51098 27.5484 9.15091 30.5161 9.34289 31.2903L10.8147 36.3226L11.0707 31.0968C11.1347 29.6129 11.2627 27.5484 11.3906 25.0323C11.5826 21.871 11.7746 18.7742 11.8386 17.1613V16.7742C11.9026 15.742 12.7985 15.1613 13.6944 15.1613C14.5903 15.0968 15.7421 15.5484 15.9981 17.0323V17.0968L16.638 31.2903V31.3549C17.9179 36.0645 18.6218 39.6774 18.6218 42.0645V54.0645H20.4136V44C20.4136 40.1936 19.8376 36.3871 18.6218 31.6129V31.5484L20.9895 25.742L21.2455 26.0645C25.277 30.7097 32.6361 37.742 32.9561 38.0645L33.596 38.6452L34.2359 38.0645C34.5559 37.742 41.979 30.7097 45.9465 26.0645L46.2025 25.742L48.5702 31.5484V31.6129C47.2904 36.3871 46.7784 40.1936 46.7784 44V54.0645H48.5702V42C48.5702 39.6129 49.2101 36 50.554 31.2903V31.1613L51.1299 17.0323C51.4499 15.4839 52.6017 14.9678 53.4976 15.0323C54.3295 15.0968 55.2894 15.6129 55.3534 16.6452V16.9678C55.4174 18.5161 55.6734 21.6774 55.8013 24.9032C55.9293 27.4839 56.0573 29.4839 56.1213 30.9678L56.3773 36.1936L57.8491 31.1613C58.1051 30.3871 58.681 27.5484 58.681 26.4516L57.6571 26.5161L57.5931 24.8387C57.4011 21.0323 57.1452 17.2258 57.0812 16.0645L57.0172 15.871C56.6332 14.3226 55.2894 13.2903 53.6256 13.1613C53.5616 13.1613 53.4976 13.1613 53.4336 13.1613H53.1777L53.1137 12.9678C52.2178 10.8387 50.362 6.38711 49.0821 3.22582V3.16131V3.09679C49.1461 2.77421 49.2741 2.3226 49.6581 2.06453C49.914 1.74195 50.7459 1.67744 51.8978 1.9355C56.4413 3.03227 64.9522 20.5807 65.2082 24.8387C65.2082 24.9032 65.2082 24.9032 65.2082 24.9678C65.2082 27.6129 61.1127 44.5161 60.0888 48.0645V54H61.8806V47.9355C61.9446 47.742 66.936 27.871 66.936 24.9032C67 24.9032 67 24.8387 67 24.7742ZM17.3419 15.4194L17.022 14.9678C16.702 14.5161 16.3181 14.129 15.8701 13.871L15.6781 13.742L15.7421 13.5484C16.382 11.9355 17.4699 9.41937 18.4298 6.96776L18.4938 6.83873H18.6858C19.0057 6.83873 19.3257 6.83873 19.5817 6.96776C20.0936 7.16131 20.4136 7.5484 20.6695 8.00002C20.8615 8.45163 20.8615 9.03228 20.6695 9.48389L19.9656 11.1613L19.9016 11.2258C19.0697 11.9355 18.4298 12.7097 17.9819 13.6129C17.7899 14 17.5979 14.4516 17.4699 14.9032L17.3419 15.4194ZM18.2378 27.4839L17.9819 21.4194L18.5578 22.3871C18.7498 22.7742 18.9417 23.0323 19.1337 23.2903C19.2617 23.4839 19.3897 23.6774 19.5817 23.9355L19.6457 24.0645L18.2378 27.4839ZM33.66 35.9355L33.468 36.129L33.276 35.9355C30.7803 33.5484 22.4613 25.4194 20.5415 22.3871C18.6858 19.6774 18.3658 16.8387 19.6457 14.5161C20.7975 12.3226 23.1012 11.0323 25.6609 11.0323C27.2607 11.0323 29.6925 11.5484 32.1242 14.0645C32.3801 14.3226 32.5721 14.5807 32.8281 14.8387L33.532 15.6774L34.2359 14.8387C34.4919 14.5807 34.6839 14.2581 34.9398 14.0645C37.3715 11.5484 39.8032 11.0323 41.4031 11.0323C43.9628 11.0323 46.2665 12.3871 47.4183 14.5161C48.6342 16.8387 48.3142 19.6774 46.4585 22.4516C44.4747 25.4194 36.1557 33.4839 33.66 35.9355ZM48.7622 27.4839L47.3543 24.0645L47.4183 23.9355C47.5463 23.742 47.7383 23.4839 47.8663 23.3549C48.0583 23.0323 48.2502 22.7742 48.4422 22.3871L49.0182 21.4194L48.7622 27.4839ZM51.1299 13.5484L51.1939 13.742L51.0019 13.871C50.554 14.129 50.17 14.5161 49.914 14.9678L49.5941 15.4194L49.4021 14.9032C49.2741 14.4516 49.0821 14 48.8902 13.6129C48.3782 12.7097 47.7383 11.871 46.9704 11.2258L46.9064 11.1613L46.2025 9.48389C46.0105 8.96776 46.0105 8.45163 46.2025 8.00002C46.3945 7.5484 46.7784 7.16131 47.2904 6.96776C47.5463 6.83873 47.8663 6.83873 48.1863 6.83873H48.3782L48.4422 6.96776C49.4661 9.41937 50.49 11.871 51.1299 13.5484Z" fill="#1979BE"/>
</g>
<defs>
<clipPath id="clip0_681_4210">
<rect width="67" height="54" fill="white"/>
</clipPath>
</defs>
</svg>
