<svg width="60" height="48" viewBox="0 0 60 48" fill="none" xmlns="http://www.w3.org/2000/svg">
<path d="M21 24C27.6281 24 33 18.6272 33 12C33 5.37281 27.6281 0 21 0C14.3719 0 9 5.37281 9 12C9 18.6272 14.3719 24 21 24ZM25.7531 28.5H16.2469C7.27219 28.5 0 35.775 0 44.7469C0 46.5469 1.455 48 3.24937 48H38.7469C40.5469 48 42 46.5469 42 44.7469C42 35.775 34.725 28.5 25.7531 28.5ZM44.9156 30H37.9922C42.3 33.5344 45 38.8219 45 44.7469C45 45.9469 44.6437 47.0531 44.0625 48H57C58.6594 48 60 46.65 60 44.9156C60 36.7125 53.2875 30 44.9156 30ZM40.5 24C46.3031 24 51 19.3031 51 13.5C51 7.69687 46.3031 3 40.5 3C38.1459 3 35.9963 3.80203 34.245 5.11031C35.325 7.18406 36 9.50625 36 12C36 15.33 34.8816 18.3881 33.0384 20.8791C34.9406 22.8 37.575 24 40.5 24Z" fill="#ED604F"/>
</svg>
