<svg width="24" height="17" viewBox="0 0 24 17" fill="none" xmlns="http://www.w3.org/2000/svg">
<path d="M15.75 8.3645C15.75 9.35906 15.3549 10.3129 14.6517 11.0162C13.9484 11.7194 12.9946 12.1145 12 12.1145C11.0054 12.1145 10.0516 11.7194 9.34835 11.0162C8.64509 10.3129 8.25 9.35906 8.25 8.3645C8.25 7.36994 8.64509 6.41611 9.34835 5.71285C10.0516 5.00959 11.0054 4.6145 12 4.6145C12.9946 4.6145 13.9484 5.00959 14.6517 5.71285C15.3549 6.41611 15.75 7.36994 15.75 8.3645Z" fill="#1D1E1D"/>
<path d="M0 8.3645C0 8.3645 4.5 0.114502 12 0.114502C19.5 0.114502 24 8.3645 24 8.3645C24 8.3645 19.5 16.6145 12 16.6145C4.5 16.6145 0 8.3645 0 8.3645ZM12 13.6145C13.3924 13.6145 14.7277 13.0614 15.7123 12.0768C16.6969 11.0922 17.25 9.75689 17.25 8.3645C17.25 6.97212 16.6969 5.63676 15.7123 4.65219C14.7277 3.66763 13.3924 3.1145 12 3.1145C10.6076 3.1145 9.27226 3.66763 8.28769 4.65219C7.30312 5.63676 6.75 6.97212 6.75 8.3645C6.75 9.75689 7.30312 11.0922 8.28769 12.0768C9.27226 13.0614 10.6076 13.6145 12 13.6145V13.6145Z" fill="#1D1E1D"/>
</svg>
