<svg width="40" height="40" viewBox="0 0 40 40" fill="none" xmlns="http://www.w3.org/2000/svg">
<path d="M29.9995 2.5C30.0001 2.20294 29.9124 1.91241 29.7476 1.66524C29.5828 1.41807 29.3484 1.2254 29.0739 1.11165C28.7995 0.997893 28.4975 0.968184 28.2062 1.02628C27.9148 1.08438 27.6473 1.22768 27.4375 1.438L21.4375 7.438C21.2983 7.57756 21.188 7.74318 21.1128 7.92541C21.0377 8.10763 20.9992 8.30288 20.9995 8.5V16.879L18.7765 19.099C18.3318 18.981 17.866 18.9666 17.4149 19.057C16.9637 19.1475 16.5394 19.3402 16.1745 19.6205C15.8096 19.9007 15.5139 20.261 15.3102 20.6736C15.1065 21.0861 15.0002 21.5399 14.9995 22C14.9997 22.4269 15.0911 22.8489 15.2674 23.2377C15.4437 23.6266 15.701 23.9733 16.0221 24.2547C16.3432 24.5361 16.7206 24.7457 17.1292 24.8696C17.5378 24.9935 17.9681 25.0287 18.3914 24.9729C18.8147 24.9172 19.2212 24.7717 19.5837 24.5462C19.9463 24.3208 20.2565 24.0206 20.4938 23.6656C20.731 23.3106 20.8897 22.9091 20.9594 22.4879C21.029 22.0667 21.0079 21.6354 20.8975 21.223L23.1205 19H31.4995C31.6967 19.0004 31.8919 18.9618 32.0741 18.8867C32.2564 18.8115 32.422 18.7012 32.5615 18.562L38.5615 12.562C38.7719 12.3522 38.9152 12.0847 38.9733 11.7934C39.0314 11.502 39.0016 11.2 38.8879 10.9256C38.7741 10.6512 38.5815 10.4167 38.3343 10.2519C38.0871 10.0872 37.7966 9.99947 37.4995 10H29.9995V2.5ZM35.8315 19.534C36.3478 23.2695 35.6777 27.0728 33.9161 30.407C32.1544 33.7412 29.39 36.438 26.0132 38.1165C22.6364 39.7951 18.8177 40.3707 15.0961 39.7621C11.3745 39.1535 7.93807 37.3915 5.27183 34.7247C2.60559 32.058 0.844223 28.6212 0.236374 24.8995C-0.371475 21.1778 0.204891 17.3592 1.88411 13.9827C3.56334 10.6062 6.2606 7.84237 9.59515 6.08135C12.9297 4.32032 16.7331 3.65105 20.4685 4.168L19.3195 5.317C18.9012 5.73482 18.5693 6.23099 18.3428 6.77715C18.1163 7.3233 17.9997 7.90874 17.9995 8.5C15.3295 8.5 12.7194 9.29176 10.4993 10.7752C8.27928 12.2586 6.54895 14.367 5.52717 16.8338C4.50538 19.3006 4.23804 22.015 4.75894 24.6337C5.27984 27.2525 6.56559 29.6579 8.4536 31.5459C10.3416 33.4339 12.7471 34.7197 15.3658 35.2406C17.9846 35.7615 20.699 35.4942 23.1658 34.4724C25.6326 33.4506 27.741 31.7203 29.2244 29.5002C30.7078 27.2801 31.4995 24.67 31.4995 22C32.6926 21.9989 33.8364 21.5242 34.6795 20.68L35.8315 19.534ZM17.9995 11.5C15.9228 11.5 13.8928 12.1158 12.1661 13.2696C10.4393 14.4233 9.09353 16.0632 8.29881 17.9818C7.50409 19.9004 7.29615 22.0116 7.7013 24.0484C8.10644 26.0853 9.10647 27.9562 10.5749 29.4246C12.0434 30.8931 13.9143 31.8931 15.9511 32.2982C17.9879 32.7034 20.0991 32.4955 22.0177 31.7007C23.9363 30.906 25.5762 29.5602 26.73 27.8335C27.8837 26.1068 28.4995 24.0767 28.4995 22H24.3625L23.9875 22.375C23.9154 23.5275 23.5123 24.6347 22.8264 25.5638C22.1406 26.4928 21.2012 27.2042 20.1211 27.6126C19.0409 28.021 17.8658 28.1089 16.7369 27.866C15.608 27.623 14.5732 27.0595 13.7566 26.2429C12.9401 25.4264 12.3765 24.3915 12.1335 23.2626C11.8906 22.1337 11.9786 20.9586 12.3869 19.8785C12.7953 18.7983 13.5067 17.859 14.4358 17.1731C15.3648 16.4873 16.472 16.0841 17.6245 16.012L17.9995 15.637V11.5Z" fill="#ED604F"/>
</svg>
