<svg width="51" height="53" viewBox="0 0 51 53" fill="none" xmlns="http://www.w3.org/2000/svg">
<path d="M50.7844 27.351C50.7844 25.2206 50.6115 23.6659 50.2374 22.0537H25.9102V31.6693H40.1897C39.9019 34.059 38.3473 37.6577 34.8925 40.0759L34.844 40.3978L42.5359 46.3566L43.0688 46.4098C47.9629 41.8897 50.7844 35.2393 50.7844 27.351Z" fill="#4285F4"/>
<path d="M25.9106 52.6859C32.9064 52.6859 38.7794 50.3826 43.0692 46.4098L34.8929 40.0759C32.705 41.6018 29.7683 42.667 25.9106 42.667C19.0587 42.667 13.2433 38.1471 11.1702 31.8998L10.8663 31.9256L2.86827 38.1154L2.76367 38.4061C7.0245 46.8702 15.7766 52.6859 25.9106 52.6859Z" fill="#34A853"/>
<path d="M11.1703 31.8998C10.6233 30.2876 10.3067 28.5601 10.3067 26.7752C10.3067 24.9902 10.6233 23.2628 11.1415 21.6506L11.127 21.3073L3.0287 15.0181L2.76374 15.1441C1.00765 18.6565 0 22.6007 0 26.7752C0 30.9497 1.00765 34.8938 2.76374 38.4062L11.1703 31.8998Z" fill="#FBBC05"/>
<path d="M25.9106 10.8832C30.776 10.8832 34.0579 12.9849 35.9294 14.7412L43.2419 7.60128C38.7508 3.42679 32.9064 0.864502 25.9106 0.864502C15.7766 0.864502 7.0245 6.67997 2.76367 15.1441L11.1414 21.6506C13.2433 15.4033 19.0587 10.8832 25.9106 10.8832Z" fill="#EB4335"/>
</svg>
