<svg width="26" height="18" viewBox="0 0 26 18" fill="none" xmlns="http://www.w3.org/2000/svg">
<path d="M4.25 0.210938C3.32174 0.210938 2.4315 0.579686 1.77513 1.23606C1.11875 1.89244 0.75 2.78268 0.75 3.71094V5.46094H25.25V3.71094C25.25 2.78268 24.8813 1.89244 24.2249 1.23606C23.5685 0.579686 22.6783 0.210938 21.75 0.210938H4.25ZM0.75 14.2109V7.21094H25.25V14.2109C25.25 15.1392 24.8813 16.0294 24.2249 16.6858C23.5685 17.3422 22.6783 17.7109 21.75 17.7109H4.25C3.32174 17.7109 2.4315 17.3422 1.77513 16.6858C1.11875 16.0294 0.75 15.1392 0.75 14.2109ZM17.375 12.4609C17.1429 12.4609 16.9204 12.5531 16.7563 12.7172C16.5922 12.8813 16.5 13.1039 16.5 13.3359C16.5 13.568 16.5922 13.7906 16.7563 13.9547C16.9204 14.1188 17.1429 14.2109 17.375 14.2109H20.875C21.1071 14.2109 21.3296 14.1188 21.4937 13.9547C21.6578 13.7906 21.75 13.568 21.75 13.3359C21.75 13.1039 21.6578 12.8813 21.4937 12.7172C21.3296 12.5531 21.1071 12.4609 20.875 12.4609H17.375Z" fill="white"/>
</svg>
