<svg width="22" height="25" viewBox="0 0 22 25" fill="none" xmlns="http://www.w3.org/2000/svg">
<path fill-rule="evenodd" clip-rule="evenodd" d="M11 0.364502C9.96501 0.364502 8.23551 0.762002 6.60801 1.2045C4.94301 1.6545 3.26451 2.187 2.27751 2.5095C1.86485 2.64578 1.49899 2.8957 1.22198 3.23055C0.944973 3.56541 0.768039 3.97161 0.711508 4.4025C-0.182492 11.118 1.89201 16.095 4.40901 19.3875C5.47638 20.7959 6.74905 22.0363 8.18451 23.067C8.76351 23.4765 9.30051 23.79 9.75651 24.0045C10.1765 24.2025 10.628 24.3645 11 24.3645C11.372 24.3645 11.822 24.2025 12.2435 24.0045C12.7932 23.7373 13.3191 23.4237 13.8155 23.067C15.251 22.0363 16.5237 20.796 17.591 19.3875C20.108 16.095 22.1825 11.118 21.2885 4.4025C21.2321 3.9714 21.0552 3.56496 20.7782 3.22985C20.5012 2.89474 20.1353 2.64455 19.7225 2.508C18.2897 2.03822 16.8458 1.6031 15.392 1.203C13.7645 0.763502 12.035 0.364502 11 0.364502ZM11 7.8645C11.5314 7.86371 12.0459 8.051 12.4524 8.39319C12.8589 8.73539 13.1311 9.21041 13.221 9.73412C13.3108 10.2578 13.2124 10.7964 12.9432 11.2545C12.6739 11.7126 12.2513 12.0607 11.75 12.237L12.3275 15.222C12.3485 15.3306 12.3453 15.4424 12.318 15.5496C12.2907 15.6568 12.24 15.7566 12.1696 15.8419C12.0993 15.9272 12.0109 15.9958 11.9108 16.043C11.8108 16.0901 11.7016 16.1145 11.591 16.1145H10.409C10.2986 16.1143 10.1895 16.0897 10.0897 16.0425C9.9898 15.9953 9.90162 15.9265 9.8314 15.8413C9.76118 15.756 9.71066 15.6563 9.68345 15.5492C9.65625 15.4422 9.65302 15.3304 9.67401 15.222L10.25 12.237C9.74876 12.0607 9.32609 11.7126 9.05686 11.2545C8.78763 10.7964 8.68921 10.2578 8.77904 9.73412C8.86887 9.21041 9.14115 8.73539 9.54765 8.39319C9.95416 8.051 10.4686 7.86371 11 7.8645Z" fill="#ED604F"/>
</svg>
