<svg width="24" height="20" viewBox="0 0 24 20" fill="none" xmlns="http://www.w3.org/2000/svg">
<path d="M20.7075 12.7036C20.5923 11.9032 19.9743 11.2792 19.1787 11.0932C16.0863 10.3684 15.3111 8.58762 15.1803 6.61242C14.6319 6.51042 13.6563 6.40002 12.0003 6.40002C10.3443 6.40002 9.36868 6.51042 8.82028 6.61242C8.68948 8.58762 7.91428 10.3684 4.82188 11.0932C4.02628 11.2804 3.40828 11.9032 3.29308 12.7036L2.69668 16.834C2.48668 18.2884 3.55468 19.6 5.04028 19.6H18.9603C20.4447 19.6 21.5139 18.2884 21.3039 16.834L20.7075 12.7036ZM12.0003 16.5904C10.3263 16.5904 8.96908 15.2464 8.96908 13.5904C8.96908 11.9344 10.3263 10.5904 12.0003 10.5904C13.6743 10.5904 15.0315 11.9344 15.0315 13.5904C15.0315 15.2464 13.6731 16.5904 12.0003 16.5904ZM23.9403 5.20002C23.9115 3.40002 19.3299 0.401224 12.0003 0.400024C4.66948 0.401224 0.0878785 3.40002 0.0602785 5.20002C0.0326785 7.00002 0.0854786 9.34242 3.10228 8.95243C6.63148 8.49522 6.41428 7.26282 6.41428 5.50122C6.41428 4.27242 9.28468 3.97602 12.0003 3.97602C14.7159 3.97602 17.5851 4.27242 17.5863 5.50122C17.5863 7.26282 17.3691 8.49522 20.8983 8.95243C23.9139 9.34242 23.9679 7.00002 23.9403 5.20002Z" fill="#5A5D6B"/>
</svg>
