<svg width="24" height="24" viewBox="0 0 24 24" fill="none" xmlns="http://www.w3.org/2000/svg">
<path d="M12.0007 0.293945C5.56765 0.293945 0.333984 5.52761 0.333984 11.9606C0.333984 18.3936 5.56765 23.6273 12.0007 23.6273C18.4337 23.6273 23.6673 18.3936 23.6673 11.9606C23.6673 5.52761 18.4337 0.293945 12.0007 0.293945ZM2.66732 11.9606C2.66732 10.9118 2.84932 9.90494 3.17015 8.96344L5.00065 10.7939L7.33398 13.1273V15.4606L9.66732 17.7939L10.834 18.9606V21.2134C6.23848 20.6359 2.66732 16.7113 2.66732 11.9606ZM19.3857 17.6458C18.6238 17.0321 17.4688 16.6273 16.6673 16.6273V15.4606C16.6673 14.8418 16.4215 14.2483 15.9839 13.8107C15.5463 13.3731 14.9528 13.1273 14.334 13.1273H9.66732V9.62728C10.2862 9.62728 10.8796 9.38144 11.3172 8.94386C11.7548 8.50628 12.0007 7.91278 12.0007 7.29395V6.12728H13.1673C13.7862 6.12728 14.3796 5.88145 14.8172 5.44386C15.2548 5.00628 15.5007 4.41278 15.5007 3.79395V3.31445C18.9167 4.70161 21.334 8.05228 21.334 11.9606C21.3338 14.0194 20.6483 16.0196 19.3857 17.6458Z" fill="white"/>
</svg>
