<svg width="140" height="140" viewBox="0 0 140 140" fill="none" xmlns="http://www.w3.org/2000/svg">
<path d="M120.791 85.771C120.119 81.102 116.514 77.462 111.873 76.377C93.8344 72.149 89.3123 61.761 88.5493 50.239C85.3503 49.644 79.6593 49 69.9993 49C60.3393 49 54.6483 49.644 51.4493 50.239C50.6863 61.761 46.1643 72.149 28.1253 76.377C23.4843 77.469 19.8793 81.102 19.2073 85.771L15.7283 109.865C14.5033 118.349 20.7333 126 29.3993 126H110.599C119.258 126 125.495 118.349 124.27 109.865L120.791 85.771ZM69.9993 108.444C60.2343 108.444 52.3173 100.604 52.3173 90.944C52.3173 81.284 60.2343 73.444 69.9993 73.444C79.7643 73.444 87.6813 81.284 87.6813 90.944C87.6813 100.604 79.7573 108.444 69.9993 108.444ZM139.649 42C139.481 31.5 112.755 14.007 69.9993 14C27.2363 14.007 0.510346 31.5 0.349346 42C0.188346 52.5 0.496346 66.164 18.0943 63.889C38.6813 61.222 37.4143 54.033 37.4143 43.757C37.4143 36.589 54.1583 34.86 69.9993 34.86C85.8403 34.86 102.577 36.589 102.584 43.757C102.584 54.033 101.317 61.222 121.904 63.889C139.495 66.164 139.81 52.5 139.649 42Z" fill="#ED604F"/>
</svg>
