<svg width="123" height="122" viewBox="0 0 123 122" fill="none" xmlns="http://www.w3.org/2000/svg">
<circle cx="60.502" cy="60.5" r="35.5" fill="#1979BE"/>
<path fill-rule="evenodd" clip-rule="evenodd" d="M50.8854 78.2435L49.9435 77.6997C47.7897 76.4562 46.2338 74.5559 45.5629 72.3496C44.864 70.0508 45.1828 67.5661 46.4607 65.3526L57.8171 45.7278C60.3575 41.3536 64.7542 39.6603 68.2783 41.695L68.2929 41.7034L68.675 41.9258C70.4663 42.966 71.5884 44.7233 71.8332 46.8733C72.056 48.8293 71.5371 51.0112 70.3723 53.017L59.6455 71.4893C58.9493 72.6877 57.9308 73.6028 56.7769 74.0659C55.5077 74.5755 54.1952 74.5013 53.0795 73.8571C53.0766 73.8554 53.0734 73.8536 53.0705 73.8519C51.9778 73.2171 51.1942 72.0808 50.9204 70.7334C50.65 69.4039 50.8858 68.0098 51.5837 66.8078L60.1574 52.0432C60.4912 51.4689 61.2266 51.2732 61.8016 51.6052L61.8043 51.6067C62.3796 51.9406 62.5752 52.6781 62.241 53.2533L53.6672 68.0179C53.2661 68.709 53.129 69.5029 53.2815 70.2535C53.4184 70.9269 53.7825 71.479 54.2804 71.7679L54.2841 71.77C54.8752 72.1113 55.4776 71.9913 55.8792 71.8301C56.5368 71.566 57.1342 71.0152 57.5617 70.2791L68.2886 51.8072C69.1949 50.2461 69.6036 48.5907 69.4392 47.1461C69.3283 46.1739 68.8957 44.8403 67.4637 44.0089L67.0821 43.7865C67.0789 43.7846 67.0757 43.7828 67.0725 43.7809C65.6449 42.9567 64.2768 43.2417 63.3796 43.6266C62.0434 44.1998 60.8081 45.3752 59.9018 46.9363L48.5467 66.5584C46.652 69.8401 47.746 73.6488 51.1483 75.6131L52.0901 76.1569C55.4926 78.1213 59.3375 77.1641 61.2329 73.8813L70.6889 57.503C71.0215 56.9268 71.7586 56.7293 72.3348 57.0619C72.9109 57.3946 73.1084 58.1317 72.7758 58.7078L63.3197 75.0861C62.0418 77.2997 60.0493 78.8181 57.7096 79.3625C55.4632 79.8845 53.0397 79.4873 50.8854 78.2435L50.8854 78.2435Z" fill="white"/>
</svg>
