<svg width="29" height="31" viewBox="0 0 29 31" fill="none" xmlns="http://www.w3.org/2000/svg">
<path d="M14.3245 2.14647C14.4644 2.14647 14.6044 2.14647 14.7443 2.14647C15.6773 2.19564 16.6102 2.4169 17.4732 2.78567C16.6569 4.01491 16.2137 5.48999 16.2137 7.03883C16.2137 10.9724 19.1059 14.193 22.7444 14.488V16.5777C22.7444 17.7086 23.1409 18.8149 23.8639 19.6508L26.8261 23.0927H1.82287L4.76168 19.6508C5.48472 18.8149 5.88123 17.7086 5.88123 16.5777V10.8249C5.88123 8.51391 6.74421 6.32587 8.33023 4.70328C9.93958 3.05611 12.0621 2.14647 14.3245 2.14647ZM17.1233 27.2229C16.6102 28.3538 15.514 29.1897 14.3245 29.1897C13.135 29.1897 12.0621 28.3784 11.5256 27.2229H17.1233ZM14.3245 0.671387C8.89001 0.671387 4.50512 5.21956 4.50512 10.8249V16.5531C4.50512 17.3152 4.22523 18.0774 3.73543 18.6428L0.446764 22.478C-0.229628 23.2893 0.306821 24.5432 1.3564 24.5432H27.3159C28.3654 24.5432 28.9019 23.2647 28.2255 22.478L24.9368 18.6428C24.447 18.0774 24.1671 17.3152 24.1671 16.5531V12.9637C23.8873 13.0129 23.6074 13.0375 23.3275 13.0375C20.1788 13.0375 17.6365 10.3578 17.6365 7.03883C17.6365 5.17039 18.4528 3.49863 19.7356 2.39232C18.3129 1.40893 16.6335 0.79431 14.8143 0.695972C14.651 0.671387 14.4877 0.671387 14.3245 0.671387ZM18.8493 25.7478H9.79964C9.79964 28.3292 11.8288 30.6648 14.3245 30.6648C16.8201 30.6648 18.8493 28.3292 18.8493 25.7478Z" fill="#EFEFEF"/>
</svg>
