<svg width="60" height="54" viewBox="0 0 60 54" fill="none" xmlns="http://www.w3.org/2000/svg">
<path d="M41.2126 15.5411C41.1408 19.7785 39.6929 23.4191 36.7611 26.4509C34.6789 28.5995 32.166 30.008 29.2581 30.7003C27.8102 31.0464 26.3502 31.1658 24.8664 31.0703C21.0132 30.8196 17.6985 29.3276 14.9581 26.618C12.8999 24.6008 11.5357 22.1777 10.8177 19.3846C10.6143 18.5968 10.4827 17.7851 10.4109 16.9735C10.3391 16.1379 10.3271 15.3024 10.3869 14.4788C10.5186 12.4735 11.0212 10.5637 11.9067 8.76128C13.1273 6.25465 14.8863 4.21353 17.1959 2.64987C18.9549 1.45624 20.8935 0.656505 22.9877 0.262606C24.1604 0.0477518 25.3451 -0.0477389 26.5417 0.0238791C30.4547 0.25067 33.8173 1.74271 36.6055 4.48807C38.6159 6.4695 39.9561 8.82096 40.6861 11.5424C40.9254 12.4377 41.081 13.3448 41.1528 14.2639C41.1767 14.6936 41.1887 15.1353 41.2126 15.5411ZM11.4759 15.5411C11.4879 15.8395 11.4998 16.1379 11.5238 16.4483C11.5716 17.4271 11.7272 18.382 11.9905 19.3249C12.9837 22.8581 15.006 25.6512 18.0814 27.6684C19.9123 28.874 21.9346 29.5902 24.1125 29.8528C24.8903 29.9483 25.6682 29.9722 26.4579 29.9244C27.3913 29.8767 28.3127 29.7454 29.2222 29.5186C33.0395 28.5517 36.2824 26.057 38.209 22.6313C39.5493 20.244 40.1476 17.6777 40.0399 14.9443C40.004 13.9655 39.8604 12.9987 39.633 12.0557C38.6757 8.23608 36.2106 4.96552 32.7882 3.00796C30.9334 1.94563 28.935 1.33688 26.793 1.1817C25.728 1.11009 24.663 1.14589 23.5979 1.313C22.2697 1.51592 21.0012 1.89788 19.7926 2.47083C14.8624 4.78648 11.4998 9.7878 11.4759 15.5411Z" fill="#1979BE"/>
<path d="M60.0001 46.7784C60.012 50.0371 58.0136 52.6511 55.2853 53.606C54.3399 53.9403 53.3706 54.0477 52.3774 53.9761C49.4456 53.7373 46.813 51.5769 46.1309 48.4853C45.3292 44.9164 47.3395 41.431 50.6542 40.2493C51.6475 39.8912 52.6766 39.7838 53.7296 39.8912C56.7811 40.2135 59.2941 42.5411 59.8685 45.5609C59.9522 46.0145 60.0001 46.4681 60.0001 46.7784ZM52.9758 52.854C53.5501 52.866 54.1604 52.7586 54.663 52.6153C57.4512 51.7678 59.1505 49.0344 58.8154 46.2533C58.6838 45.2029 58.3128 44.2479 57.6786 43.3885C56.4101 41.6816 54.2921 40.6909 51.9706 41.0968C49.302 41.5623 47.3036 43.8063 47.1122 46.5278C47.0404 47.6379 47.2558 48.7002 47.7823 49.6909C48.8114 51.6604 50.8457 52.866 52.9758 52.854Z" fill="#1979BE"/>
<path d="M3.47818e-05 44.3315C3.47818e-05 42.8276 3.47818e-05 41.3116 3.47818e-05 39.8077C-0.0238982 34.9854 2.6925 30.366 7.1201 28.0384C8.43641 27.3461 9.83649 26.8925 11.3084 26.6777C11.9187 26.5822 12.529 26.5464 13.1392 26.5464C13.235 26.5464 13.3427 26.5583 13.4264 26.5822C13.6777 26.6777 13.8094 26.9283 13.7735 27.2029C13.7376 27.4535 13.5341 27.6565 13.2709 27.6684C13.0435 27.6803 12.8281 27.6923 12.6008 27.6923C7.32353 27.9429 2.84806 31.691 1.53175 36.7281C1.26848 37.7546 1.12489 38.7931 1.12489 39.8554C1.12489 43.0782 1.12489 46.313 1.12489 49.5358C1.12489 49.6193 1.12489 49.7148 1.12489 49.7984C1.10095 50.1087 0.849656 50.3475 0.550493 50.3355C0.251331 50.3236 0.0120013 50.1087 3.47818e-05 49.7984C3.47818e-05 49.7148 3.47818e-05 49.6432 3.47818e-05 49.5597C3.47818e-05 47.8408 3.47818e-05 46.0862 3.47818e-05 44.3315Z" fill="#1979BE"/>
<path d="M38.7475 26.5583C41.1647 26.6538 43.4025 27.3461 45.4129 28.671C48.3446 30.5928 50.2473 33.2665 51.1328 36.6564C51.3004 37.3129 51.4081 37.9694 51.4679 38.6498C51.4679 38.6975 51.4799 38.7334 51.4799 38.7811C51.4679 39.0914 51.2645 39.3302 50.9653 39.354C50.6542 39.3779 50.4029 39.1989 50.3431 38.8885C50.3072 38.7095 50.2952 38.5185 50.2832 38.3395C50.1277 37.0861 49.7806 35.8925 49.2541 34.7586C47.7344 31.488 44.7786 29.0052 41.2844 28.0861C40.3391 27.8355 39.3817 27.728 38.4125 27.7042C38.3526 27.7042 38.2928 27.7042 38.221 27.6922C37.9458 27.6564 37.7423 27.4296 37.7304 27.1432C37.7184 26.8567 37.9218 26.5941 38.209 26.5702C38.3885 26.5463 38.568 26.5583 38.7475 26.5583Z" fill="#1979BE"/>
<path d="M26.3503 42.9111C26.3503 44.9403 26.3503 46.9695 26.3503 48.9986C26.3503 49.0822 26.3503 49.1538 26.3503 49.2374C26.3264 49.5716 26.0751 49.8103 25.752 49.7984C25.4409 49.7864 25.2135 49.5596 25.2015 49.2254C25.2015 49.1538 25.2015 49.0822 25.2015 49.0106C25.2015 44.9403 25.2015 40.858 25.2015 36.7878C25.2015 36.7042 25.2015 36.6087 25.2015 36.5252C25.2255 36.2387 25.4409 36.0358 25.7281 36.0119C26.0272 35.988 26.2666 36.1671 26.3384 36.4535C26.3623 36.561 26.3623 36.6684 26.3623 36.7758C26.3503 38.8169 26.3503 40.87 26.3503 42.9111Z" fill="#1979BE"/>
<path d="M10.0878 47.1007C10.0878 46.2532 10.0878 45.4177 10.0878 44.5702C10.0878 44.4866 10.0878 44.3912 10.0997 44.3076C10.1356 44.0211 10.375 43.8063 10.6622 43.8063C10.9374 43.8063 11.1767 44.0092 11.2246 44.2837C11.2366 44.3673 11.2366 44.4389 11.2366 44.5225C11.2366 46.2413 11.2366 47.9601 11.2366 49.679C11.2366 49.7506 11.2366 49.8222 11.2246 49.8938C11.1887 50.1803 10.9374 50.3832 10.6502 50.3832C10.375 50.3713 10.1356 50.1803 10.0997 49.8938C10.0878 49.8103 10.0878 49.7148 10.0878 49.6312C10.0878 48.7837 10.0878 47.9363 10.0878 47.1007Z" fill="#1979BE"/>
<path d="M40.2912 47.1007C40.2912 46.2532 40.2912 45.4057 40.2912 44.5463C40.2912 44.4747 40.2912 44.4031 40.2912 44.3315C40.3151 44.0331 40.5664 43.8063 40.8536 43.8063C41.1408 43.8063 41.3802 44.0211 41.416 44.3076C41.428 44.3792 41.428 44.4508 41.428 44.5225C41.428 46.2413 41.428 47.9601 41.428 49.679C41.428 49.7625 41.428 49.8341 41.416 49.9177C41.3682 50.1922 41.1289 50.3832 40.8417 50.3713C40.5664 50.3593 40.3271 50.1564 40.2912 49.8819C40.2792 49.7983 40.2912 49.7267 40.2912 49.6432C40.2912 48.7957 40.2912 47.9482 40.2912 47.1007Z" fill="#1979BE"/>
<path d="M35.7559 15.171C35.7559 15.3381 35.7679 15.4575 35.7559 15.5888C35.732 15.8872 35.4926 16.114 35.1935 16.114C34.9063 16.114 34.655 15.9111 34.6191 15.6246C34.6071 15.4694 34.6071 15.3262 34.5952 15.171C34.4396 12.3541 33.2429 10.0862 31.0052 8.36732C29.8086 7.44822 28.4444 6.91109 26.9605 6.70817C26.6135 6.66042 26.2545 6.66042 25.8955 6.63655C25.8237 6.63655 25.7519 6.63655 25.6801 6.62461C25.381 6.56493 25.1895 6.32621 25.2015 6.03973C25.2134 5.74132 25.4408 5.5026 25.74 5.49066C25.9194 5.47873 26.0989 5.49066 26.2784 5.5026C27.4392 5.57422 28.564 5.82488 29.641 6.27846C32.489 7.48403 34.667 10.0026 35.4328 12.9867C35.6123 13.7148 35.72 14.4549 35.7559 15.171Z" fill="#1979BE"/>
<path d="M53.5621 46.3606C53.6937 46.3606 53.7894 46.3606 53.8852 46.3606C54.5672 46.3606 55.2493 46.3606 55.9314 46.3606C56.0152 46.3606 56.087 46.3606 56.1708 46.3606C56.458 46.3964 56.6734 46.6232 56.6853 46.9097C56.6973 47.1842 56.5058 47.423 56.2306 47.4826C56.1468 47.5065 56.0511 47.5065 55.9673 47.5065C55.2613 47.5065 54.5673 47.5065 53.8612 47.5065C53.7655 47.5065 53.6698 47.5185 53.574 47.5185C53.5381 47.6259 53.5501 47.7214 53.5501 47.8169C53.5501 48.5211 53.5501 49.2373 53.5501 49.9415C53.5501 50.0131 53.5501 50.0848 53.5501 50.1564C53.5142 50.4548 53.2749 50.6696 52.9637 50.6577C52.6646 50.6577 52.4252 50.4309 52.4013 50.1206C52.4013 50.049 52.4013 49.9773 52.4013 49.9057C52.4013 49.2134 52.4013 48.5211 52.4013 47.8288C52.4013 47.7333 52.4013 47.6378 52.4013 47.5543C52.3175 47.4707 52.2218 47.4946 52.1381 47.4946C51.432 47.4946 50.738 47.4946 50.0319 47.4946C49.9602 47.4946 49.8883 47.4946 49.8166 47.4946C49.4935 47.4588 49.2781 47.22 49.29 46.9097C49.302 46.5994 49.5294 46.3726 49.8525 46.3487C49.9243 46.3487 49.996 46.3487 50.0678 46.3487C50.738 46.3487 51.3961 46.3487 52.0663 46.3487C52.162 46.3487 52.2577 46.3487 52.3415 46.3487C52.4252 46.2651 52.4013 46.1696 52.4013 46.0861C52.4013 45.3818 52.4013 44.6657 52.4013 43.9614C52.4013 43.8898 52.4013 43.8182 52.4013 43.7466C52.4252 43.4362 52.6526 43.2214 52.9518 43.2094C53.2629 43.1975 53.5142 43.4243 53.5381 43.7466C53.5501 43.8182 53.5381 43.8898 53.5381 43.9614C53.5381 44.6537 53.5381 45.346 53.5381 46.0383C53.5501 46.1219 53.5621 46.2174 53.5621 46.3606Z" fill="#1979BE"/>
</svg>
