<svg width="87" height="87" viewBox="0 0 87 87" fill="none" xmlns="http://www.w3.org/2000/svg">
<path d="M85.5 43.1645C85.5 66.1642 66.7069 84.829 43.5 84.829C20.2931 84.829 1.5 66.1642 1.5 43.1645C1.5 20.1648 20.2931 1.5 43.5 1.5C66.7069 1.5 85.5 20.1648 85.5 43.1645Z" stroke="#ED604F" stroke-width="3"/>
<path d="M62.111 55.2243C61.0978 52.8152 59.6274 50.6269 57.7819 48.7813C55.9419 46.9304 53.7623 45.4547 51.3634 44.4356C51.3419 44.4249 51.3204 44.4195 51.299 44.4087C54.6452 41.9824 56.8204 38.0304 56.8204 33.5715C56.8204 26.1849 50.8585 20.2002 43.5001 20.2002C36.1417 20.2002 30.1798 26.1849 30.1798 33.5715C30.1798 38.0304 32.3551 41.9824 35.7013 44.4141C35.6798 44.4249 35.6583 44.4302 35.6369 44.441C33.2306 45.4601 31.0714 46.9212 29.2184 48.7867C27.3746 50.6337 25.9045 52.8216 24.8893 55.2297C23.892 57.5872 23.3541 60.1148 23.3048 62.6756C23.3034 62.7331 23.3134 62.7904 23.3344 62.844C23.3553 62.8975 23.3868 62.9464 23.4268 62.9876C23.4669 63.0288 23.5147 63.0615 23.5676 63.0839C23.6204 63.1062 23.6772 63.1177 23.7345 63.1177H26.9572C27.1935 63.1177 27.3815 62.929 27.3869 62.6971C27.4943 58.5348 29.1593 54.6366 32.1027 51.682C35.1481 48.6249 39.1925 46.9428 43.5001 46.9428C47.8078 46.9428 51.8522 48.6249 54.8976 51.682C57.841 54.6366 59.506 58.5348 59.6134 62.6971C59.6188 62.9344 59.8068 63.1177 60.0431 63.1177H63.2658C63.3231 63.1177 63.3799 63.1062 63.4327 63.0839C63.4856 63.0615 63.5334 63.0288 63.5735 62.9876C63.6135 62.9464 63.6449 62.8975 63.6659 62.844C63.6868 62.7904 63.6969 62.7331 63.6954 62.6756C63.6417 60.0984 63.11 57.5913 62.111 55.2243ZM43.5001 42.8451C41.0348 42.8451 38.7145 41.88 36.9689 40.1277C35.2233 38.3754 34.2619 36.0462 34.2619 33.5715C34.2619 31.0967 35.2233 28.7675 36.9689 27.0152C38.7145 25.2629 41.0348 24.2978 43.5001 24.2978C45.9655 24.2978 48.2858 25.2629 50.0314 27.0152C51.777 28.7675 52.7384 31.0967 52.7384 33.5715C52.7384 36.0462 51.777 38.3754 50.0314 40.1277C48.2858 41.88 45.9655 42.8451 43.5001 42.8451Z" fill="#ED604F"/>
</svg>
