<svg width="140" height="140" viewBox="0 0 140 140" fill="none" xmlns="http://www.w3.org/2000/svg">
<path d="M23.9981 117.613C26.1027 117.613 27.8087 116.45 27.8087 115.014C27.8087 113.579 26.1027 112.416 23.9981 112.416C21.8936 112.416 20.1875 113.579 20.1875 115.014C20.1875 116.45 21.8936 117.613 23.9981 117.613Z" fill="#1D1E1D"/>
<path d="M135.625 102.088L134.194 101.248C134.085 101.185 123.154 94.6991 120.437 86.8284L119.831 85.085L118.711 86.5484C118.676 86.5944 117.123 88.515 112.777 90.7681C109.559 72.4522 98.6125 50.5859 84.2275 41.2628C88.34 41.5953 92.4656 41.2541 96.4469 39.8059C98.8444 38.9353 97.8097 35.0284 95.3903 35.9122C92.1266 37.1 88.8562 37.4237 85.5925 37.2575C93.6053 29.9141 99.8966 18.6594 99.8966 10.43C99.8966 8.4525 99.8966 4.77094 96.9653 4.77094C95.7884 4.77094 94.8369 5.50594 93.5222 6.52094C91.5053 8.07625 88.4603 10.43 83.9869 10.43C82.2828 10.43 79.1634 8.63188 76.6566 7.18813C73.6269 5.44469 71.6909 4.375 70.0634 4.375C67.3684 4.375 63.4069 6.55375 59.9113 8.47656C58.4894 9.2575 56.5447 10.3294 56.1422 10.4322C51.0759 10.4322 48.1337 8.09594 46.1825 6.54937C45.045 5.64375 44.2203 4.9875 43.12 4.9875C40.2369 4.9875 40.2369 8.44594 40.2369 12.4513C40.2369 20.1819 46.1256 30.3866 53.8366 37.2444C48.9781 37.5922 44.1875 39.06 40.8209 42.3216C38.9616 44.1197 41.7791 46.9722 43.6319 45.1784C46.4297 42.4659 50.0981 41.3044 54.0225 41.0791C54.1341 41.4794 54.2697 41.8731 54.4359 42.2603C37.9947 54.075 26.3156 82.1297 26.3156 101.069C26.3156 102.937 26.46 104.628 26.6831 106.221C22.4438 104.337 20.8972 102.686 20.8666 102.648L19.7378 101.347L19.1822 102.988C16.7256 110.215 6.04625 116.484 5.93906 116.548L4.375 117.456L5.96531 118.315C6.52312 118.617 7.07656 118.882 7.63438 119.168L6.62812 119.866L7.15969 126.516L48.8381 135.625L64.6406 125.517C66.2353 125.525 67.8497 125.53 69.4925 125.53L87.9638 135.625L129.721 122.5V115.48L128.616 114.817C129.168 114.467 129.719 114.111 130.268 113.743L131.731 112.766L131.41 112.608L133.271 112.098L133.586 104.801L132.51 104.038C133.083 103.694 133.654 103.344 134.227 102.981L135.625 102.088ZM44.2159 12.4513C44.2159 11.48 44.2291 10.7231 44.2488 10.1347C44.5834 10.3972 44.9728 10.6838 45.3884 10.9791C46.6637 14.0328 49.0766 18.4297 53.1672 21.1991C58.1372 24.5678 57.4766 20.6959 60.1278 17.1609C62.7791 13.6281 64.5728 11.7775 69.0134 20.8644C70.9494 24.8259 74.1759 13.755 77.2428 12.1384C78.0544 12.5803 78.8638 12.9916 79.6578 13.3416C85.1572 22.2841 87.7056 19.495 92.5903 12.0619C93.9334 11.2744 95.0359 10.43 95.9131 9.75406C95.9175 9.9575 95.9219 10.1828 95.9219 10.4344C95.9219 17.4563 90.1841 27.5275 83.1578 34.0966C82.8261 33.2535 82.3509 32.4742 81.7534 31.7931C78.9163 28.5797 74.4822 32.1431 72.38 34.4816C68.6503 33.2828 62.5734 29.9819 58.6141 31.8719C57.628 32.3293 56.7223 32.9432 55.9322 33.6897C49.4572 27.7878 44.2159 19.2675 44.2159 12.4513ZM79.6622 36.4569C78.6814 36.2489 77.7062 36.0155 76.7375 35.7569C77.9581 34.7047 79.0781 34.3372 79.5484 35.9013C79.5988 36.0719 79.6294 36.2666 79.6622 36.4569ZM63.0372 37.8153C62.3131 37.6775 61.5694 37.5528 60.8037 37.4544C60.2232 37.0905 59.6549 36.7075 59.0997 36.3059C61.0991 34.965 64.5466 35.6781 67.8409 36.7959C66.2156 36.96 64.6122 37.3144 63.0372 37.8153ZM64.0303 43.5903C62.8053 43.8966 61.4709 43.7741 60.3181 43.3147C60.7862 43.0675 61.2587 42.8531 61.7312 42.6366C62.4969 43.0062 63.2625 43.3147 64.0303 43.5903ZM23.5681 123.329C18.3507 121.818 13.2881 119.816 8.44812 117.351C11.4166 115.399 17.8828 110.681 20.5122 105.011C22.3147 106.426 26.4753 109.007 34.5778 110.989C34.44 111.213 34.2716 111.451 34.1097 111.685C27.1928 109.874 23.2597 107.583 23.1963 107.544L22.2425 106.975L21.7853 107.997C21.1837 109.336 19.7728 109.537 18.9875 109.537C18.7688 109.537 18.6222 109.522 18.6025 109.519L17.8216 109.406L17.5372 110.154C16.9553 111.681 14.5666 113.676 13.6916 114.317L12.2303 115.388L13.9016 116.073C14.5228 116.327 14.6912 116.561 14.7 116.622C14.7219 116.773 14.4572 117.171 14.175 117.401L12.9019 118.427L14.3828 119.112C17.4169 120.512 20.8534 121.671 24.29 122.627C24.0166 122.896 23.7803 123.126 23.5681 123.329ZM41.2081 115.178C44.2662 115.607 47.6547 115.878 51.3559 115.878H51.3581C52.1281 115.878 52.9091 115.865 53.7053 115.841C53.7584 116.006 53.8342 116.163 53.9306 116.307C54.1253 116.603 54.3878 116.847 54.7203 117.038L49.1378 121.809C49.0314 121.804 48.9249 121.802 48.8184 121.802C46.3312 121.802 44.4762 122.717 43.5859 124.344C40.2127 123.914 36.8552 123.369 33.5191 122.71C36.2008 120.324 38.7668 117.81 41.2081 115.178ZM16.3822 117.797C16.6009 117.383 16.7431 116.882 16.6666 116.336C16.5938 115.842 16.3573 115.388 15.995 115.045C16.9772 114.203 18.3313 112.903 19.075 111.558C20.7659 111.534 22.1616 110.893 23.0409 109.76C24.5219 110.534 27.8578 112.098 32.7862 113.455C30.7716 115.981 28.0569 118.847 25.9459 120.978C22.6559 120.107 19.3419 119.057 16.3822 117.797ZM47.5562 127.004L47.1078 127.006C45.2244 127.006 38.9834 126.853 30.7388 125.136C31.0275 124.891 31.3272 124.639 31.605 124.399C38.2944 125.797 43.6887 126.396 44.0934 126.442L44.8941 126.527L45.1413 125.751C45.6816 124.075 47.6744 123.828 48.8162 123.828C49.1291 123.828 49.3369 123.848 49.3609 123.85L49.7853 123.896L59.4825 115.609L56.8903 115.524C56.0241 115.493 55.6587 115.299 55.5691 115.165L56.1181 113.728L54.6 113.792C53.4931 113.84 52.4125 113.864 51.3559 113.864H51.3537C48.3 113.864 45.4672 113.662 42.8487 113.345L43.4569 112.628C48.7419 113.334 55.0703 113.77 62.7113 113.715C60.8869 116.274 56.3369 121.715 47.5562 127.004ZM69.4837 117.499V121.492C68.2391 121.492 67.0272 121.487 65.8416 121.478L65.485 116.985L62.5231 117.226C64.5181 114.868 65.3691 113.295 65.4456 113.153L66.2484 111.635L64.5531 111.665C48.3262 111.963 37.7431 110.029 31.0625 107.881C30.5747 105.908 30.2925 103.677 30.2925 101.071C30.2925 83.3022 41.6478 56.4441 56.7241 45.5591C59.395 48.1425 63.4463 49.2734 67.2962 46.76C68.1406 46.2087 68.8756 45.4869 69.5647 44.7191C69.7288 44.7234 69.8972 44.7606 70.0634 44.7606C70.6147 44.7606 71.1747 44.7147 71.7325 44.6447C72.4391 44.9269 73.1303 45.2113 73.7712 45.4934C76.8403 46.8453 79.4609 46.0053 81.2503 44.1416C95.06 52.4978 106.124 74.6025 109.036 92.47C102.723 94.9944 92.7084 97.4575 77.3391 97.8906C80.3709 96.1581 82.6459 93.2444 81.8278 89.4163C80.9681 85.3694 77.5863 84.2319 74.0841 84.0459C74.0753 82.145 74.0753 80.2484 74.0884 78.3475C75.1625 78.8222 76.1928 79.3691 77.1291 79.9531C78.7828 80.9922 80.2791 78.2994 78.6363 77.2603C77.2118 76.3648 75.6915 75.6318 74.1038 75.075C74.1256 72.8744 74.1366 70.6781 74.1366 68.4819C74.1387 66.4694 71.1484 66.4694 71.1484 68.4819C71.1484 70.4134 71.1353 72.3428 71.1178 74.27C69.5262 73.9926 67.901 73.9653 66.3009 74.1891C66.0408 72.7411 65.7255 71.3036 65.3559 69.8797C64.8616 67.9416 61.9741 68.7619 62.475 70.7066C62.8425 72.1044 63.1422 73.4956 63.3894 74.9066C63.2625 74.9547 63.1247 74.9787 63 75.0356C58.9487 76.6391 56.4769 80.7275 59.4409 84.5403C60.8213 86.3166 62.6259 87.0341 64.6012 87.2725C64.7084 89.9041 64.7762 92.5378 64.8528 95.1672C63.5294 94.3075 62.3241 93.205 61.2325 92.0391C59.8806 90.6128 57.7697 92.8156 59.1194 94.2397C60.9547 96.1931 62.8819 97.6697 64.9709 98.6147C65.065 100.861 65.1984 103.114 65.4172 105.35C65.6097 107.334 68.6022 107.345 68.4075 105.35C68.2231 103.416 68.0867 101.478 67.9984 99.5378C69.1359 99.7347 70.3303 99.785 71.5991 99.6647C71.7412 101.734 71.9075 103.803 72.1437 105.873C72.2794 107.058 73.4125 107.524 74.2481 107.284L74.0622 111.58C72.7453 111.698 71.4022 111.807 70.0022 111.899L68.3353 112.009L69.2234 113.444C69.3131 113.588 70.3216 115.183 72.5725 117.504H69.4837V117.499ZM123.926 103.101C121.177 104.394 117.698 105.58 114.155 106.614C111.976 104.363 109.189 101.36 107.109 98.6956C111.744 97.2913 114.338 95.8431 115.509 95.0622C116.434 95.8781 117.659 96.3025 119.109 96.3003C119.591 96.3003 120.017 96.2544 120.345 96.2019C121.395 97.5625 123.088 99.1331 124.147 100.072C123.646 100.586 123.403 101.154 123.423 101.769C123.441 102.294 123.651 102.74 123.926 103.101ZM108.275 110.289C108.721 110.683 109.182 111.086 109.653 111.493C100.785 113.844 94.185 114.1 92.7478 114.124C83.5647 108.522 78.8047 102.594 76.9694 99.925C84.6541 99.7325 91.0066 99.0369 96.3047 98.0788C96.5201 98.3434 96.7382 98.6059 96.9588 98.8662C92.7004 99.5294 88.4085 99.9552 84.1028 100.142L82.3375 100.216L83.3087 101.701C83.3066 101.703 83.1097 102.071 81.8059 102.325L79.6863 102.738L90.1075 111.175L90.5931 111.044C90.6041 111.042 91.5228 110.795 92.6341 110.795C94.2375 110.795 95.3334 111.282 95.8847 112.236L96.2347 112.84L96.915 112.72C100.725 112.025 104.514 111.215 108.275 110.289ZM77.4375 103.86L74.9481 103.725C74.8322 102.482 74.7163 101.24 74.6288 99.9972C75.0663 100.723 75.9631 102.088 77.4375 103.86ZM74.3575 95.8519C74.214 92.9073 74.1272 89.9602 74.0972 87.0122C74.4559 87.0253 74.8103 87.0581 75.1472 87.1062C79.0147 87.6925 80.0253 91.9931 77.0066 94.4125C76.2191 95.0359 75.3112 95.4931 74.3575 95.8519ZM97.1928 110.622C96.2128 109.412 94.6531 108.778 92.6362 108.778C91.7941 108.778 91.0525 108.892 90.5844 108.983L84.0328 103.674C84.5775 103.362 84.945 102.966 85.1462 102.48C85.1958 102.359 85.2339 102.234 85.26 102.106C90.4531 101.822 94.8281 101.303 98.5272 100.669C100.321 102.67 102.957 105.431 106.452 108.64C102.158 109.662 98.5775 110.362 97.1928 110.622ZM71.1047 87.0909C71.1463 90.2606 71.225 93.4391 71.3934 96.6066C71.1113 96.6503 70.8334 96.705 70.5556 96.7334C69.615 96.8406 68.7225 96.7619 67.8737 96.5475C67.7666 93.485 67.6966 90.4159 67.5806 87.3512C68.7575 87.2966 69.9497 87.1806 71.1047 87.0909ZM67.4297 84.3238C67.293 81.9201 67.0668 79.5224 66.7516 77.1356C68.2015 76.9363 69.6759 77.0113 71.0981 77.3566C71.0824 79.5929 71.0788 81.8293 71.0872 84.0656C70.1269 84.1181 69.2147 84.21 68.4119 84.2822C68.0851 84.3077 67.7575 84.3215 67.4297 84.3238ZM64.4284 83.9409C64.2425 83.8906 64.0588 83.8512 63.8684 83.7878C62.9932 83.4912 62.2007 82.9911 61.5562 82.3288C59.6881 80.5853 62.2519 78.8747 63.8684 78.0631C64.1222 80.01 64.2972 81.9744 64.4284 83.9409ZM88.5719 126.523C79.0759 121.671 73.9813 116.279 71.9578 113.781C73.4125 113.671 74.7884 113.54 76.1513 113.402L91.7219 123.508L125.869 114.128C108.259 124.742 90.8622 126.359 88.5719 126.523ZM116.773 109.263C116.493 108.983 116.158 108.651 115.762 108.251C119.647 107.074 123.406 105.709 126.208 104.208L127.912 103.292L126.184 102.412C125.797 102.213 125.418 101.848 125.412 101.71C125.416 101.657 125.569 101.377 126.232 100.997L127.496 100.271L126.372 99.3344C126.337 99.3059 122.83 96.3944 121.599 94.5197L121.192 93.9072L120.494 94.1106C120.488 94.1106 119.888 94.2834 119.109 94.2834C117.906 94.2856 117.005 93.8919 116.427 93.1175L115.789 92.2709L114.988 92.96C114.947 92.995 112.468 95.0272 105.82 96.9478C105.601 96.6324 105.391 96.3115 105.188 95.9853C113.249 93.5419 117.368 90.5844 119.153 88.9656C122.019 95.165 128.842 100.159 131.803 102.117C127.045 104.996 122.01 107.39 116.773 109.263Z" fill="#ED604F"/>
<path d="M97.0801 103.068C94.8992 102.476 92.4382 102.88 91.5764 103.963C90.7211 105.05 91.8017 106.42 93.9804 107.017C96.1636 107.61 98.6223 107.203 99.4842 106.118C100.339 105.031 99.2632 103.666 97.0801 103.068Z" fill="#1D1E1D"/>
</svg>
