<svg width="26" height="27" viewBox="0 0 26 27" fill="none" xmlns="http://www.w3.org/2000/svg">
<path d="M10.1853 18.0301C12.0654 18.0301 13.9069 18.0301 15.7999 18.0301C15.8128 18.2732 15.8386 18.5035 15.8386 18.7211C15.8386 21.1651 15.8386 23.6092 15.8386 26.0405C15.8386 26.8594 15.9802 26.9874 16.8173 26.9874C18.4398 26.9874 20.0624 26.9874 21.6979 26.9874C22.5865 26.9874 22.6637 26.9106 22.6637 25.9893C22.6637 22.4831 22.6637 18.977 22.6637 15.4836C22.6637 15.2149 22.6637 14.9462 22.6637 14.6135C23.5909 14.6135 24.4151 14.6391 25.2521 14.6007C25.5097 14.5879 25.9475 14.4471 25.9862 14.2808C26.0505 14.0504 25.9089 13.6665 25.7286 13.4618C21.7365 9.12389 17.7187 4.79878 13.7137 0.473657C13.1085 -0.166153 12.9153 -0.166153 12.323 0.460861C8.36951 4.722 4.42895 8.99593 0.475504 13.2571C0.359606 13.385 0.205072 13.4874 0.140684 13.641C0.0634193 13.8329 -0.0396023 14.1016 0.024786 14.268C0.102053 14.4343 0.372484 14.5879 0.578526 14.5879C1.29967 14.6263 2.0337 14.6263 2.75485 14.6007C3.2442 14.5751 3.37298 14.7542 3.3601 15.2277C3.34722 18.8106 3.34722 22.4064 3.34722 25.9893C3.34722 26.949 3.39873 26.9874 4.36456 26.9874C5.98714 26.9874 7.60973 26.9874 9.24519 26.9874C10.0436 26.9874 10.1338 26.8978 10.1338 26.1173C10.1338 23.5452 10.1338 20.9732 10.1338 18.4139C10.1466 18.3116 10.1724 18.2092 10.1853 18.0301ZM24.2477 13.513C23.5394 13.513 23.0243 13.513 22.5221 13.513C21.6464 13.513 21.5691 13.5898 21.5691 14.4599C21.5691 18.0045 21.5691 21.549 21.5691 25.1064C21.5691 25.3495 21.5691 25.6054 21.5691 25.9125C20.1912 25.9125 18.9034 25.8869 17.6286 25.9253C17.1263 25.9381 16.9589 25.7974 16.9718 25.2855C16.9975 22.803 16.9847 20.3206 16.9847 17.8253C16.9847 17.0064 16.8559 16.8784 16.006 16.8784C14.0099 16.8784 12.0268 16.8784 10.0307 16.8784C9.1808 16.8784 9.02627 17.0192 9.02627 17.8893C9.02627 20.3718 9.0134 22.8542 9.03915 25.3495C9.03915 25.7846 8.91037 25.9509 8.45966 25.9381C7.62261 25.9125 6.78556 25.9253 5.96139 25.9253C5.48491 25.9253 4.99556 25.9253 4.48046 25.9253C4.48046 25.5542 4.48046 25.2983 4.48046 25.0424C4.48046 21.4978 4.48046 17.9533 4.48046 14.3959C4.48046 13.6793 4.3388 13.5258 3.61765 13.5258C3.07679 13.5258 2.52305 13.5258 1.77615 13.5258C5.60081 9.39261 9.2967 5.41299 13.0183 1.39498C16.7529 5.42579 20.423 9.39261 24.2477 13.513Z" fill="white"/>
</svg>
