<svg width="118" height="94" viewBox="0 0 118 94" fill="none" xmlns="http://www.w3.org/2000/svg">
<path d="M0.666016 30.1417L51.1244 56.7067C51.7537 57.0387 52.4545 57.2123 53.166 57.2123C53.8776 57.2123 54.5784 57.0387 55.2077 56.7067L97.2427 34.5808C99.984 35.3467 102.855 35.5315 105.672 35.1233L105.666 74.7083C105.666 79.5508 103.814 84.2098 100.488 87.7297C97.1623 91.2495 92.6157 93.3633 87.781 93.6375L86.7077 93.6667H19.6244C14.7819 93.667 10.1228 91.8143 6.603 88.4886C3.08316 85.1629 0.969341 80.6164 0.695183 75.7817L0.666016 74.7083V30.1417ZM84.2985 6.16666C83.0002 8.90069 82.3286 11.89 82.3327 14.9167C82.3293 17.6053 82.8585 20.268 83.8897 22.751C84.921 25.234 86.4339 27.4882 88.341 29.3833L53.166 47.8867L1.22018 20.5517C2.19812 16.628 4.40424 13.1195 7.51669 10.5381C10.6291 7.95661 14.485 6.43725 18.5219 6.20166L19.6244 6.16666H84.2985ZM102.749 0.333328C106.617 0.333328 110.326 1.86978 113.061 4.60469C115.796 7.33959 117.333 11.0489 117.333 14.9167C117.333 18.7844 115.796 22.4937 113.061 25.2286C110.326 27.9635 106.617 29.5 102.749 29.5C98.8816 29.5 95.1723 27.9635 92.4374 25.2286C89.7025 22.4937 88.166 18.7844 88.166 14.9167C88.166 11.0489 89.7025 7.33959 92.4374 4.60469C95.1723 1.86978 98.8816 0.333328 102.749 0.333328Z" fill="#ED604F"/>
</svg>
