<svg width="124" height="98" viewBox="0 0 124 98" fill="none" xmlns="http://www.w3.org/2000/svg">
<path d="M118.875 0.875H5.125C2.70508 0.875 0.75 2.83008 0.75 5.25V92.75C0.75 95.1699 2.70508 97.125 5.125 97.125H118.875C121.295 97.125 123.25 95.1699 123.25 92.75V5.25C123.25 2.83008 121.295 0.875 118.875 0.875ZM107.828 15.7637L64.6934 49.3281C63.627 50.1621 62.1367 50.1621 61.0703 49.3281L17.9219 15.7637C17.7592 15.6381 17.6399 15.4649 17.5807 15.2681C17.5215 15.0714 17.5253 14.8611 17.5916 14.6666C17.6579 14.4721 17.7835 14.3033 17.9506 14.1838C18.1177 14.0642 18.318 14 18.5234 14H107.227C107.432 14 107.632 14.0642 107.799 14.1838C107.967 14.3033 108.092 14.4721 108.158 14.6666C108.225 14.8611 108.229 15.0714 108.169 15.2681C108.11 15.4649 107.991 15.6381 107.828 15.7637Z" fill="#ED604F"/>
</svg>
