<svg width="140" height="140" viewBox="0 0 140 140" fill="none" xmlns="http://www.w3.org/2000/svg">
<path d="M14.0005 49C14.0022 39.7533 17.0554 30.7656 22.6864 23.4313C28.3174 16.0969 36.2113 10.8257 45.1438 8.43552C54.0762 6.04532 63.5477 6.66967 72.0891 10.2117C80.6304 13.7538 87.7642 20.0155 92.3837 28.0256C97.0031 36.0357 98.8501 45.3463 97.6381 54.5132C96.4261 63.6801 92.2228 72.1908 85.6804 78.7251C79.1379 85.2594 70.6219 89.452 61.4535 90.6526C52.2851 91.8531 42.9768 89.9945 34.9725 85.365L18.6065 90.825C18.0018 91.0268 17.3535 91.0597 16.7315 90.9201C16.1096 90.7805 15.5375 90.4737 15.0772 90.0328C14.6168 89.5919 14.2856 89.0336 14.1193 88.4182C13.953 87.8029 13.9579 87.1537 14.1335 86.541L19.1175 69.104C15.7506 62.9387 13.9908 56.0247 14.0005 49ZM45.5005 38.5C44.5722 38.5 43.682 38.8687 43.0256 39.5251C42.3692 40.1815 42.0005 41.0717 42.0005 42C42.0005 42.9282 42.3692 43.8185 43.0256 44.4748C43.682 45.1312 44.5722 45.5 45.5005 45.5H66.5005C67.4287 45.5 68.319 45.1312 68.9753 44.4748C69.6317 43.8185 70.0005 42.9282 70.0005 42C70.0005 41.0717 69.6317 40.1815 68.9753 39.5251C68.319 38.8687 67.4287 38.5 66.5005 38.5H45.5005ZM59.5005 52.5H45.5005C44.5722 52.5 43.682 52.8687 43.0256 53.5251C42.3692 54.1815 42.0005 55.0717 42.0005 56C42.0005 56.9282 42.3692 57.8185 43.0256 58.4748C43.682 59.1312 44.5722 59.5 45.5005 59.5H59.5005C60.4287 59.5 61.319 59.1312 61.9753 58.4748C62.6317 57.8185 63.0005 56.9282 63.0005 56C63.0005 55.0717 62.6317 54.1815 61.9753 53.5251C61.319 52.8687 60.4287 52.5 59.5005 52.5Z" fill="#ED604F"/>
<path d="M85.93 104.629L69.116 96.2289C72.196 95.3679 75.157 94.2199 77.957 92.8129L87.498 97.5869L118.998 81.8369V76.9999C118.998 75.1434 118.261 73.3629 116.948 72.0502C115.635 70.7374 113.855 69.9999 111.998 69.9999H100.28C101.351 67.7599 102.247 65.4149 102.968 62.9999H111.998C115.711 62.9999 119.272 64.4749 121.898 67.1004C124.523 69.726 125.998 73.2869 125.998 76.9999V112C125.998 115.713 124.523 119.274 121.898 121.899C119.272 124.525 115.711 126 111.998 126H62.998C59.285 126 55.7241 124.525 53.0986 121.899C50.473 119.274 48.998 115.713 48.998 112V97.5099C51.287 97.8319 53.618 97.9999 55.998 97.9999V112C55.998 113.856 56.7355 115.637 58.0483 116.95C59.3611 118.262 61.1415 119 62.998 119H111.998C113.855 119 115.635 118.262 116.948 116.95C118.261 115.637 118.998 113.856 118.998 112V89.6629L89.066 104.629C88.5793 104.873 88.0424 105 87.498 105C86.9536 105 86.4168 104.873 85.93 104.629Z" fill="#ED604F"/>
</svg>
