<svg width="18" height="25" viewBox="0 0 18 25" fill="none" xmlns="http://www.w3.org/2000/svg">
<path d="M6.84 18.245L6.34503 18.74L6.36748 18.7624L6.39187 18.7828L6.84 18.245ZM6.63 16.6L5.93365 16.5286L5.93 16.5642V16.6H6.63ZM7.365 14.185L6.75961 13.8335L6.75598 13.8399L7.365 14.185ZM8.8 12.225L8.28564 11.7502L8.28485 11.7511L8.8 12.225ZM10.445 10.51L9.96067 10.0046L9.95529 10.0098L9.95003 10.015L10.445 10.51ZM11.845 8.935L11.2821 8.51891L11.2789 8.52328L11.845 8.935ZM12.545 7.29L13.2396 7.37682L13.2405 7.36943L13.2413 7.36203L12.545 7.29ZM12.125 5.575L11.5515 5.97642L11.5581 5.98582L11.565 5.995L12.125 5.575ZM10.76 4.525L10.4683 5.16134L10.484 5.16853L10.5 5.17493L10.76 4.525ZM4.845 7.535L5.5241 7.70477L5.52686 7.69372L5.52926 7.68259L4.845 7.535ZM4.495 8.165L4.90187 8.73461L4.92705 8.71662L4.95055 8.69648L4.495 8.165ZM0.295 8.13L-0.23648 8.58555L-0.201437 8.62644L-0.160554 8.66148L0.295 8.13ZM0.085 7.5L-0.614781 7.48251L-0.615 7.49125V7.5H0.085ZM0.715 4.805L0.0823405 4.50532L0.0789263 4.51275L0.715 4.805ZM2.5 2.425L2.03681 1.90005L2.02913 1.90704L2.5 2.425ZM5.37 0.779999L5.60373 1.43995L5.61579 1.43543L5.37 0.779999ZM13.21 0.779999L12.9549 1.43187L12.9634 1.43518L12.9719 1.43826L13.21 0.779999ZM15.8 2.355L15.296 2.84097L15.305 2.84997L15.8 2.355ZM17.2 4.49L16.5421 4.72923L16.5446 4.73578L17.2 4.49ZM17.585 6.695L18.284 6.73179L18.2844 6.72468L18.2846 6.71757L17.585 6.695ZM16.99 9.075L16.3639 8.76195V8.76195L16.99 9.075ZM15.695 11.035L16.2206 11.4975L16.2294 11.4872L15.695 11.035ZM14.12 12.785L14.6254 13.2693L14.6303 13.2642L14.6352 13.2589L14.12 12.785ZM12.685 14.5L12.1169 14.091L12.1114 14.0986L12.1062 14.1064L12.685 14.5ZM11.88 16.355L12.5634 16.5069L12.5645 16.5017L11.88 16.355ZM11.775 16.985L12.4697 17.0718L12.4707 17.0623L11.775 16.985ZM11.705 17.545L12.3691 17.7664L12.391 17.7006L12.3996 17.6318L11.705 17.545ZM11.355 18.21L11.85 18.705L11.869 18.686L11.8865 18.6656L11.355 18.21ZM6.63 20.485L6.13503 19.99L6.63 20.485ZM11.25 20.485L11.745 19.99L11.25 20.485ZM7.33 17.72C7.31076 17.72 7.30347 17.7172 7.30294 17.717C7.30212 17.7167 7.30099 17.7163 7.29918 17.7152C7.29732 17.7142 7.29362 17.7118 7.28813 17.7072L6.39187 18.7828C6.66097 19.007 6.98392 19.12 7.33 19.12V17.72ZM7.33498 17.75C7.33108 17.7461 7.3301 17.7445 7.33056 17.7451C7.33107 17.7459 7.33186 17.7473 7.33243 17.7488C7.33299 17.7502 7.33252 17.7495 7.33183 17.7457C7.33112 17.7418 7.33 17.7335 7.33 17.72H5.93C5.93 18.1032 6.06517 18.4601 6.34503 18.74L7.33498 17.75ZM7.33 17.72C7.33 17.7196 7.33 17.7193 7.33 17.7189C7.33 17.7185 7.33 17.7182 7.33 17.7178C7.33 17.7174 7.33 17.7171 7.33 17.7167C7.33 17.7164 7.33 17.716 7.33 17.7156C7.33 17.7153 7.33 17.7149 7.33 17.7145C7.33 17.7142 7.33 17.7138 7.33 17.7134C7.33 17.7131 7.33 17.7127 7.33 17.7123C7.33 17.712 7.33 17.7116 7.33 17.7113C7.33 17.7109 7.33 17.7105 7.33 17.7102C7.33 17.7098 7.33 17.7094 7.33 17.7091C7.33 17.7087 7.33 17.7083 7.33 17.708C7.33 17.7076 7.33 17.7072 7.33 17.7069C7.33 17.7065 7.33 17.7061 7.33 17.7058C7.33 17.7054 7.33 17.7051 7.33 17.7047C7.33 17.7043 7.33 17.704 7.33 17.7036C7.33 17.7032 7.33 17.7029 7.33 17.7025C7.33 17.7021 7.33 17.7018 7.33 17.7014C7.33 17.701 7.33 17.7007 7.33 17.7003C7.33 17.6999 7.33 17.6996 7.33 17.6992C7.33 17.6989 7.33 17.6985 7.33 17.6981C7.33 17.6978 7.33 17.6974 7.33 17.697C7.33 17.6967 7.33 17.6963 7.33 17.6959C7.33 17.6956 7.33 17.6952 7.33 17.6948C7.33 17.6945 7.33 17.6941 7.33 17.6938C7.33 17.6934 7.33 17.693 7.33 17.6927C7.33 17.6923 7.33 17.6919 7.33 17.6916C7.33 17.6912 7.33 17.6908 7.33 17.6905C7.33 17.6901 7.33 17.6897 7.33 17.6894C7.33 17.689 7.33 17.6886 7.33 17.6883C7.33 17.6879 7.33 17.6876 7.33 17.6872C7.33 17.6868 7.33 17.6865 7.33 17.6861C7.33 17.6857 7.33 17.6854 7.33 17.685C7.33 17.6846 7.33 17.6843 7.33 17.6839C7.33 17.6835 7.33 17.6832 7.33 17.6828C7.33 17.6824 7.33 17.6821 7.33 17.6817C7.33 17.6814 7.33 17.681 7.33 17.6806C7.33 17.6803 7.33 17.6799 7.33 17.6795C7.33 17.6792 7.33 17.6788 7.33 17.6784C7.33 17.6781 7.33 17.6777 7.33 17.6773C7.33 17.677 7.33 17.6766 7.33 17.6763C7.33 17.6759 7.33 17.6755 7.33 17.6752C7.33 17.6748 7.33 17.6744 7.33 17.6741C7.33 17.6737 7.33 17.6733 7.33 17.673C7.33 17.6726 7.33 17.6722 7.33 17.6719C7.33 17.6715 7.33 17.6711 7.33 17.6708C7.33 17.6704 7.33 17.6701 7.33 17.6697C7.33 17.6693 7.33 17.669 7.33 17.6686C7.33 17.6682 7.33 17.6679 7.33 17.6675C7.33 17.6671 7.33 17.6668 7.33 17.6664C7.33 17.666 7.33 17.6657 7.33 17.6653C7.33 17.6649 7.33 17.6646 7.33 17.6642C7.33 17.6639 7.33 17.6635 7.33 17.6631C7.33 17.6628 7.33 17.6624 7.33 17.662C7.33 17.6617 7.33 17.6613 7.33 17.6609C7.33 17.6606 7.33 17.6602 7.33 17.6598C7.33 17.6595 7.33 17.6591 7.33 17.6588C7.33 17.6584 7.33 17.658 7.33 17.6577C7.33 17.6573 7.33 17.6569 7.33 17.6566C7.33 17.6562 7.33 17.6558 7.33 17.6555C7.33 17.6551 7.33 17.6547 7.33 17.6544C7.33 17.654 7.33 17.6536 7.33 17.6533C7.33 17.6529 7.33 17.6526 7.33 17.6522C7.33 17.6518 7.33 17.6515 7.33 17.6511C7.33 17.6507 7.33 17.6504 7.33 17.65C7.33 17.6496 7.33 17.6493 7.33 17.6489C7.33 17.6485 7.33 17.6482 7.33 17.6478C7.33 17.6474 7.33 17.6471 7.33 17.6467C7.33 17.6464 7.33 17.646 7.33 17.6456C7.33 17.6453 7.33 17.6449 7.33 17.6445C7.33 17.6442 7.33 17.6438 7.33 17.6434C7.33 17.6431 7.33 17.6427 7.33 17.6423C7.33 17.642 7.33 17.6416 7.33 17.6413C7.33 17.6409 7.33 17.6405 7.33 17.6402C7.33 17.6398 7.33 17.6394 7.33 17.6391C7.33 17.6387 7.33 17.6383 7.33 17.638C7.33 17.6376 7.33 17.6372 7.33 17.6369C7.33 17.6365 7.33 17.6361 7.33 17.6358C7.33 17.6354 7.33 17.6351 7.33 17.6347C7.33 17.6343 7.33 17.634 7.33 17.6336C7.33 17.6332 7.33 17.6329 7.33 17.6325C7.33 17.6321 7.33 17.6318 7.33 17.6314C7.33 17.631 7.33 17.6307 7.33 17.6303C7.33 17.6299 7.33 17.6296 7.33 17.6292C7.33 17.6289 7.33 17.6285 7.33 17.6281C7.33 17.6278 7.33 17.6274 7.33 17.627C7.33 17.6267 7.33 17.6263 7.33 17.6259C7.33 17.6256 7.33 17.6252 7.33 17.6248C7.33 17.6245 7.33 17.6241 7.33 17.6238C7.33 17.6234 7.33 17.623 7.33 17.6227C7.33 17.6223 7.33 17.6219 7.33 17.6216C7.33 17.6212 7.33 17.6208 7.33 17.6205C7.33 17.6201 7.33 17.6197 7.33 17.6194C7.33 17.619 7.33 17.6186 7.33 17.6183C7.33 17.6179 7.33 17.6176 7.33 17.6172C7.33 17.6168 7.33 17.6165 7.33 17.6161C7.33 17.6157 7.33 17.6154 7.33 17.615C7.33 17.6146 7.33 17.6143 7.33 17.6139C7.33 17.6135 7.33 17.6132 7.33 17.6128C7.33 17.6124 7.33 17.6121 7.33 17.6117C7.33 17.6114 7.33 17.611 7.33 17.6106C7.33 17.6103 7.33 17.6099 7.33 17.6095C7.33 17.6092 7.33 17.6088 7.33 17.6084C7.33 17.6081 7.33 17.6077 7.33 17.6073C7.33 17.607 7.33 17.6066 7.33 17.6063C7.33 17.6059 7.33 17.6055 7.33 17.6052C7.33 17.6048 7.33 17.6044 7.33 17.6041C7.33 17.6037 7.33 17.6033 7.33 17.603C7.33 17.6026 7.33 17.6022 7.33 17.6019C7.33 17.6015 7.33 17.6011 7.33 17.6008C7.33 17.6004 7.33 17.6001 7.33 17.5997C7.33 17.5993 7.33 17.599 7.33 17.5986C7.33 17.5982 7.33 17.5979 7.33 17.5975C7.33 17.5971 7.33 17.5968 7.33 17.5964C7.33 17.596 7.33 17.5957 7.33 17.5953C7.33 17.5949 7.33 17.5946 7.33 17.5942C7.33 17.5939 7.33 17.5935 7.33 17.5931C7.33 17.5928 7.33 17.5924 7.33 17.592C7.33 17.5917 7.33 17.5913 7.33 17.5909C7.33 17.5906 7.33 17.5902 7.33 17.5898C7.33 17.5895 7.33 17.5891 7.33 17.5887C7.33 17.5884 7.33 17.588 7.33 17.5877C7.33 17.5873 7.33 17.5869 7.33 17.5866C7.33 17.5862 7.33 17.5858 7.33 17.5855C7.33 17.5851 7.33 17.5847 7.33 17.5844C7.33 17.584 7.33 17.5836 7.33 17.5833C7.33 17.5829 7.33 17.5826 7.33 17.5822C7.33 17.5818 7.33 17.5815 7.33 17.5811C7.33 17.5807 7.33 17.5804 7.33 17.58C7.33 17.5796 7.33 17.5793 7.33 17.5789C7.33 17.5785 7.33 17.5782 7.33 17.5778C7.33 17.5774 7.33 17.5771 7.33 17.5767C7.33 17.5764 7.33 17.576 7.33 17.5756C7.33 17.5753 7.33 17.5749 7.33 17.5745C7.33 17.5742 7.33 17.5738 7.33 17.5734C7.33 17.5731 7.33 17.5727 7.33 17.5723C7.33 17.572 7.33 17.5716 7.33 17.5712C7.33 17.5709 7.33 17.5705 7.33 17.5702C7.33 17.5698 7.33 17.5694 7.33 17.5691C7.33 17.5687 7.33 17.5683 7.33 17.568C7.33 17.5676 7.33 17.5672 7.33 17.5669C7.33 17.5665 7.33 17.5661 7.33 17.5658C7.33 17.5654 7.33 17.5651 7.33 17.5647C7.33 17.5643 7.33 17.564 7.33 17.5636C7.33 17.5632 7.33 17.5629 7.33 17.5625C7.33 17.5621 7.33 17.5618 7.33 17.5614C7.33 17.561 7.33 17.5607 7.33 17.5603C7.33 17.5599 7.33 17.5596 7.33 17.5592C7.33 17.5589 7.33 17.5585 7.33 17.5581C7.33 17.5578 7.33 17.5574 7.33 17.557C7.33 17.5567 7.33 17.5563 7.33 17.5559C7.33 17.5556 7.33 17.5552 7.33 17.5548C7.33 17.5545 7.33 17.5541 7.33 17.5537C7.33 17.5534 7.33 17.553 7.33 17.5527C7.33 17.5523 7.33 17.5519 7.33 17.5516C7.33 17.5512 7.33 17.5508 7.33 17.5505C7.33 17.5501 7.33 17.5497 7.33 17.5494C7.33 17.549 7.33 17.5486 7.33 17.5483C7.33 17.5479 7.33 17.5476 7.33 17.5472C7.33 17.5468 7.33 17.5465 7.33 17.5461C7.33 17.5457 7.33 17.5454 7.33 17.545C7.33 17.5446 7.33 17.5443 7.33 17.5439C7.33 17.5435 7.33 17.5432 7.33 17.5428C7.33 17.5424 7.33 17.5421 7.33 17.5417C7.33 17.5414 7.33 17.541 7.33 17.5406C7.33 17.5403 7.33 17.5399 7.33 17.5395C7.33 17.5392 7.33 17.5388 7.33 17.5384C7.33 17.5381 7.33 17.5377 7.33 17.5373C7.33 17.537 7.33 17.5366 7.33 17.5362C7.33 17.5359 7.33 17.5355 7.33 17.5352C7.33 17.5348 7.33 17.5344 7.33 17.5341C7.33 17.5337 7.33 17.5333 7.33 17.533C7.33 17.5326 7.33 17.5322 7.33 17.5319C7.33 17.5315 7.33 17.5311 7.33 17.5308C7.33 17.5304 7.33 17.5301 7.33 17.5297C7.33 17.5293 7.33 17.529 7.33 17.5286C7.33 17.5282 7.33 17.5279 7.33 17.5275C7.33 17.5271 7.33 17.5268 7.33 17.5264C7.33 17.526 7.33 17.5257 7.33 17.5253C7.33 17.5249 7.33 17.5246 7.33 17.5242C7.33 17.5239 7.33 17.5235 7.33 17.5231C7.33 17.5228 7.33 17.5224 7.33 17.522C7.33 17.5217 7.33 17.5213 7.33 17.5209C7.33 17.5206 7.33 17.5202 7.33 17.5198C7.33 17.5195 7.33 17.5191 7.33 17.5187C7.33 17.5184 7.33 17.518 7.33 17.5177C7.33 17.5173 7.33 17.5169 7.33 17.5166C7.33 17.5162 7.33 17.5158 7.33 17.5155C7.33 17.5151 7.33 17.5147 7.33 17.5144C7.33 17.514 7.33 17.5136 7.33 17.5133C7.33 17.5129 7.33 17.5126 7.33 17.5122C7.33 17.5118 7.33 17.5115 7.33 17.5111C7.33 17.5107 7.33 17.5104 7.33 17.51C7.33 17.5096 7.33 17.5093 7.33 17.5089C7.33 17.5085 7.33 17.5082 7.33 17.5078C7.33 17.5074 7.33 17.5071 7.33 17.5067C7.33 17.5064 7.33 17.506 7.33 17.5056C7.33 17.5053 7.33 17.5049 7.33 17.5045C7.33 17.5042 7.33 17.5038 7.33 17.5034C7.33 17.5031 7.33 17.5027 7.33 17.5023C7.33 17.502 7.33 17.5016 7.33 17.5012C7.33 17.5009 7.33 17.5005 7.33 17.5002C7.33 17.4998 7.33 17.4994 7.33 17.4991C7.33 17.4987 7.33 17.4983 7.33 17.498C7.33 17.4976 7.33 17.4972 7.33 17.4969C7.33 17.4965 7.33 17.4961 7.33 17.4958C7.33 17.4954 7.33 17.4951 7.33 17.4947C7.33 17.4943 7.33 17.494 7.33 17.4936C7.33 17.4932 7.33 17.4929 7.33 17.4925C7.33 17.4921 7.33 17.4918 7.33 17.4914C7.33 17.491 7.33 17.4907 7.33 17.4903C7.33 17.4899 7.33 17.4896 7.33 17.4892C7.33 17.4889 7.33 17.4885 7.33 17.4881C7.33 17.4878 7.33 17.4874 7.33 17.487C7.33 17.4867 7.33 17.4863 7.33 17.4859C7.33 17.4856 7.33 17.4852 7.33 17.4848C7.33 17.4845 7.33 17.4841 7.33 17.4837C7.33 17.4834 7.33 17.483 7.33 17.4827C7.33 17.4823 7.33 17.4819 7.33 17.4816C7.33 17.4812 7.33 17.4808 7.33 17.4805C7.33 17.4801 7.33 17.4797 7.33 17.4794C7.33 17.479 7.33 17.4786 7.33 17.4783C7.33 17.4779 7.33 17.4776 7.33 17.4772C7.33 17.4768 7.33 17.4765 7.33 17.4761C7.33 17.4757 7.33 17.4754 7.33 17.475C7.33 17.4746 7.33 17.4743 7.33 17.4739C7.33 17.4735 7.33 17.4732 7.33 17.4728C7.33 17.4724 7.33 17.4721 7.33 17.4717C7.33 17.4714 7.33 17.471 7.33 17.4706C7.33 17.4703 7.33 17.4699 7.33 17.4695C7.33 17.4692 7.33 17.4688 7.33 17.4684C7.33 17.4681 7.33 17.4677 7.33 17.4673C7.33 17.467 7.33 17.4666 7.33 17.4662C7.33 17.4659 7.33 17.4655 7.33 17.4652C7.33 17.4648 7.33 17.4644 7.33 17.4641C7.33 17.4637 7.33 17.4633 7.33 17.463C7.33 17.4626 7.33 17.4622 7.33 17.4619C7.33 17.4615 7.33 17.4611 7.33 17.4608C7.33 17.4604 7.33 17.4601 7.33 17.4597C7.33 17.4593 7.33 17.459 7.33 17.4586C7.33 17.4582 7.33 17.4579 7.33 17.4575C7.33 17.4571 7.33 17.4568 7.33 17.4564C7.33 17.456 7.33 17.4557 7.33 17.4553C7.33 17.4549 7.33 17.4546 7.33 17.4542C7.33 17.4539 7.33 17.4535 7.33 17.4531C7.33 17.4528 7.33 17.4524 7.33 17.452C7.33 17.4517 7.33 17.4513 7.33 17.4509C7.33 17.4506 7.33 17.4502 7.33 17.4498C7.33 17.4495 7.33 17.4491 7.33 17.4487C7.33 17.4484 7.33 17.448 7.33 17.4477C7.33 17.4473 7.33 17.4469 7.33 17.4466C7.33 17.4462 7.33 17.4458 7.33 17.4455C7.33 17.4451 7.33 17.4447 7.33 17.4444C7.33 17.444 7.33 17.4436 7.33 17.4433C7.33 17.4429 7.33 17.4426 7.33 17.4422C7.33 17.4418 7.33 17.4415 7.33 17.4411C7.33 17.4407 7.33 17.4404 7.33 17.44C7.33 17.4396 7.33 17.4393 7.33 17.4389C7.33 17.4385 7.33 17.4382 7.33 17.4378C7.33 17.4374 7.33 17.4371 7.33 17.4367C7.33 17.4364 7.33 17.436 7.33 17.4356C7.33 17.4353 7.33 17.4349 7.33 17.4345C7.33 17.4342 7.33 17.4338 7.33 17.4334C7.33 17.4331 7.33 17.4327 7.33 17.4323C7.33 17.432 7.33 17.4316 7.33 17.4312C7.33 17.4309 7.33 17.4305 7.33 17.4302C7.33 17.4298 7.33 17.4294 7.33 17.4291C7.33 17.4287 7.33 17.4283 7.33 17.428C7.33 17.4276 7.33 17.4272 7.33 17.4269C7.33 17.4265 7.33 17.4261 7.33 17.4258C7.33 17.4254 7.33 17.4251 7.33 17.4247C7.33 17.4243 7.33 17.424 7.33 17.4236C7.33 17.4232 7.33 17.4229 7.33 17.4225C7.33 17.4221 7.33 17.4218 7.33 17.4214C7.33 17.421 7.33 17.4207 7.33 17.4203C7.33 17.4199 7.33 17.4196 7.33 17.4192C7.33 17.4189 7.33 17.4185 7.33 17.4181C7.33 17.4178 7.33 17.4174 7.33 17.417C7.33 17.4167 7.33 17.4163 7.33 17.4159C7.33 17.4156 7.33 17.4152 7.33 17.4148C7.33 17.4145 7.33 17.4141 7.33 17.4137C7.33 17.4134 7.33 17.413 7.33 17.4127C7.33 17.4123 7.33 17.4119 7.33 17.4116C7.33 17.4112 7.33 17.4108 7.33 17.4105C7.33 17.4101 7.33 17.4097 7.33 17.4094C7.33 17.409 7.33 17.4086 7.33 17.4083C7.33 17.4079 7.33 17.4076 7.33 17.4072C7.33 17.4068 7.33 17.4065 7.33 17.4061C7.33 17.4057 7.33 17.4054 7.33 17.405C7.33 17.4046 7.33 17.4043 7.33 17.4039C7.33 17.4035 7.33 17.4032 7.33 17.4028C7.33 17.4024 7.33 17.4021 7.33 17.4017C7.33 17.4014 7.33 17.401 7.33 17.4006C7.33 17.4003 7.33 17.3999 7.33 17.3995C7.33 17.3992 7.33 17.3988 7.33 17.3984C7.33 17.3981 7.33 17.3977 7.33 17.3973C7.33 17.397 7.33 17.3966 7.33 17.3962C7.33 17.3959 7.33 17.3955 7.33 17.3952C7.33 17.3948 7.33 17.3944 7.33 17.3941C7.33 17.3937 7.33 17.3933 7.33 17.393C7.33 17.3926 7.33 17.3922 7.33 17.3919C7.33 17.3915 7.33 17.3911 7.33 17.3908C7.33 17.3904 7.33 17.3901 7.33 17.3897C7.33 17.3893 7.33 17.389 7.33 17.3886C7.33 17.3882 7.33 17.3879 7.33 17.3875C7.33 17.3871 7.33 17.3868 7.33 17.3864C7.33 17.386 7.33 17.3857 7.33 17.3853C7.33 17.3849 7.33 17.3846 7.33 17.3842C7.33 17.3839 7.33 17.3835 7.33 17.3831C7.33 17.3828 7.33 17.3824 7.33 17.382C7.33 17.3817 7.33 17.3813 7.33 17.3809C7.33 17.3806 7.33 17.3802 7.33 17.3798C7.33 17.3795 7.33 17.3791 7.33 17.3787C7.33 17.3784 7.33 17.378 7.33 17.3777C7.33 17.3773 7.33 17.3769 7.33 17.3766C7.33 17.3762 7.33 17.3758 7.33 17.3755C7.33 17.3751 7.33 17.3747 7.33 17.3744C7.33 17.374 7.33 17.3736 7.33 17.3733C7.33 17.3729 7.33 17.3726 7.33 17.3722C7.33 17.3718 7.33 17.3715 7.33 17.3711C7.33 17.3707 7.33 17.3704 7.33 17.37C7.33 17.3696 7.33 17.3693 7.33 17.3689C7.33 17.3685 7.33 17.3682 7.33 17.3678C7.33 17.3674 7.33 17.3671 7.33 17.3667C7.33 17.3664 7.33 17.366 7.33 17.3656C7.33 17.3653 7.33 17.3649 7.33 17.3645C7.33 17.3642 7.33 17.3638 7.33 17.3634C7.33 17.3631 7.33 17.3627 7.33 17.3623C7.33 17.362 7.33 17.3616 7.33 17.3612C7.33 17.3609 7.33 17.3605 7.33 17.3602C7.33 17.3598 7.33 17.3594 7.33 17.3591C7.33 17.3587 7.33 17.3583 7.33 17.358C7.33 17.3576 7.33 17.3572 7.33 17.3569C7.33 17.3565 7.33 17.3561 7.33 17.3558C7.33 17.3554 7.33 17.3551 7.33 17.3547C7.33 17.3543 7.33 17.354 7.33 17.3536C7.33 17.3532 7.33 17.3529 7.33 17.3525C7.33 17.3521 7.33 17.3518 7.33 17.3514C7.33 17.351 7.33 17.3507 7.33 17.3503C7.33 17.3499 7.33 17.3496 7.33 17.3492C7.33 17.3489 7.33 17.3485 7.33 17.3481C7.33 17.3478 7.33 17.3474 7.33 17.347C7.33 17.3467 7.33 17.3463 7.33 17.3459C7.33 17.3456 7.33 17.3452 7.33 17.3448C7.33 17.3445 7.33 17.3441 7.33 17.3438C7.33 17.3434 7.33 17.343 7.33 17.3427C7.33 17.3423 7.33 17.3419 7.33 17.3416C7.33 17.3412 7.33 17.3408 7.33 17.3405C7.33 17.3401 7.33 17.3397 7.33 17.3394C7.33 17.339 7.33 17.3386 7.33 17.3383C7.33 17.3379 7.33 17.3376 7.33 17.3372C7.33 17.3368 7.33 17.3365 7.33 17.3361C7.33 17.3357 7.33 17.3354 7.33 17.335C7.33 17.3346 7.33 17.3343 7.33 17.3339C7.33 17.3335 7.33 17.3332 7.33 17.3328C7.33 17.3324 7.33 17.3321 7.33 17.3317C7.33 17.3314 7.33 17.331 7.33 17.3306C7.33 17.3303 7.33 17.3299 7.33 17.3295C7.33 17.3292 7.33 17.3288 7.33 17.3284C7.33 17.3281 7.33 17.3277 7.33 17.3273C7.33 17.327 7.33 17.3266 7.33 17.3263C7.33 17.3259 7.33 17.3255 7.33 17.3252C7.33 17.3248 7.33 17.3244 7.33 17.3241C7.33 17.3237 7.33 17.3233 7.33 17.323C7.33 17.3226 7.33 17.3222 7.33 17.3219C7.33 17.3215 7.33 17.3211 7.33 17.3208C7.33 17.3204 7.33 17.3201 7.33 17.3197C7.33 17.3193 7.33 17.319 7.33 17.3186C7.33 17.3182 7.33 17.3179 7.33 17.3175C7.33 17.3171 7.33 17.3168 7.33 17.3164C7.33 17.316 7.33 17.3157 7.33 17.3153C7.33 17.3149 7.33 17.3146 7.33 17.3142C7.33 17.3139 7.33 17.3135 7.33 17.3131C7.33 17.3128 7.33 17.3124 7.33 17.312C7.33 17.3117 7.33 17.3113 7.33 17.3109C7.33 17.3106 7.33 17.3102 7.33 17.3098C7.33 17.3095 7.33 17.3091 7.33 17.3088C7.33 17.3084 7.33 17.308 7.33 17.3077C7.33 17.3073 7.33 17.3069 7.33 17.3066C7.33 17.3062 7.33 17.3058 7.33 17.3055C7.33 17.3051 7.33 17.3047 7.33 17.3044C7.33 17.304 7.33 17.3036 7.33 17.3033C7.33 17.3029 7.33 17.3026 7.33 17.3022C7.33 17.3018 7.33 17.3015 7.33 17.3011C7.33 17.3007 7.33 17.3004 7.33 17.3C7.33 17.2996 7.33 17.2993 7.33 17.2989C7.33 17.2985 7.33 17.2982 7.33 17.2978C7.33 17.2974 7.33 17.2971 7.33 17.2967C7.33 17.2964 7.33 17.296 7.33 17.2956C7.33 17.2953 7.33 17.2949 7.33 17.2945C7.33 17.2942 7.33 17.2938 7.33 17.2934C7.33 17.2931 7.33 17.2927 7.33 17.2923C7.33 17.292 7.33 17.2916 7.33 17.2913C7.33 17.2909 7.33 17.2905 7.33 17.2902C7.33 17.2898 7.33 17.2894 7.33 17.2891C7.33 17.2887 7.33 17.2883 7.33 17.288C7.33 17.2876 7.33 17.2872 7.33 17.2869C7.33 17.2865 7.33 17.2861 7.33 17.2858C7.33 17.2854 7.33 17.2851 7.33 17.2847C7.33 17.2843 7.33 17.284 7.33 17.2836C7.33 17.2832 7.33 17.2829 7.33 17.2825C7.33 17.2821 7.33 17.2818 7.33 17.2814C7.33 17.281 7.33 17.2807 7.33 17.2803C7.33 17.2799 7.33 17.2796 7.33 17.2792C7.33 17.2789 7.33 17.2785 7.33 17.2781C7.33 17.2778 7.33 17.2774 7.33 17.277C7.33 17.2767 7.33 17.2763 7.33 17.2759C7.33 17.2756 7.33 17.2752 7.33 17.2748C7.33 17.2745 7.33 17.2741 7.33 17.2738C7.33 17.2734 7.33 17.273 7.33 17.2727C7.33 17.2723 7.33 17.2719 7.33 17.2716C7.33 17.2712 7.33 17.2708 7.33 17.2705C7.33 17.2701 7.33 17.2697 7.33 17.2694C7.33 17.269 7.33 17.2686 7.33 17.2683C7.33 17.2679 7.33 17.2676 7.33 17.2672C7.33 17.2668 7.33 17.2665 7.33 17.2661C7.33 17.2657 7.33 17.2654 7.33 17.265C7.33 17.2646 7.33 17.2643 7.33 17.2639C7.33 17.2635 7.33 17.2632 7.33 17.2628C7.33 17.2624 7.33 17.2621 7.33 17.2617C7.33 17.2614 7.33 17.261 7.33 17.2606C7.33 17.2603 7.33 17.2599 7.33 17.2595C7.33 17.2592 7.33 17.2588 7.33 17.2584C7.33 17.2581 7.33 17.2577 7.33 17.2573C7.33 17.257 7.33 17.2566 7.33 17.2563C7.33 17.2559 7.33 17.2555 7.33 17.2552C7.33 17.2548 7.33 17.2544 7.33 17.2541C7.33 17.2537 7.33 17.2533 7.33 17.253C7.33 17.2526 7.33 17.2522 7.33 17.2519C7.33 17.2515 7.33 17.2511 7.33 17.2508C7.33 17.2504 7.33 17.2501 7.33 17.2497C7.33 17.2493 7.33 17.249 7.33 17.2486C7.33 17.2482 7.33 17.2479 7.33 17.2475C7.33 17.2471 7.33 17.2468 7.33 17.2464C7.33 17.246 7.33 17.2457 7.33 17.2453C7.33 17.2449 7.33 17.2446 7.33 17.2442C7.33 17.2439 7.33 17.2435 7.33 17.2431C7.33 17.2428 7.33 17.2424 7.33 17.242C7.33 17.2417 7.33 17.2413 7.33 17.2409C7.33 17.2406 7.33 17.2402 7.33 17.2398C7.33 17.2395 7.33 17.2391 7.33 17.2388C7.33 17.2384 7.33 17.238 7.33 17.2377C7.33 17.2373 7.33 17.2369 7.33 17.2366C7.33 17.2362 7.33 17.2358 7.33 17.2355C7.33 17.2351 7.33 17.2347 7.33 17.2344C7.33 17.234 7.33 17.2336 7.33 17.2333C7.33 17.2329 7.33 17.2326 7.33 17.2322C7.33 17.2318 7.33 17.2315 7.33 17.2311C7.33 17.2307 7.33 17.2304 7.33 17.23C7.33 17.2296 7.33 17.2293 7.33 17.2289C7.33 17.2285 7.33 17.2282 7.33 17.2278C7.33 17.2274 7.33 17.2271 7.33 17.2267C7.33 17.2264 7.33 17.226 7.33 17.2256C7.33 17.2253 7.33 17.2249 7.33 17.2245C7.33 17.2242 7.33 17.2238 7.33 17.2234C7.33 17.2231 7.33 17.2227 7.33 17.2223C7.33 17.222 7.33 17.2216 7.33 17.2213C7.33 17.2209 7.33 17.2205 7.33 17.2202C7.33 17.2198 7.33 17.2194 7.33 17.2191C7.33 17.2187 7.33 17.2183 7.33 17.218C7.33 17.2176 7.33 17.2172 7.33 17.2169C7.33 17.2165 7.33 17.2161 7.33 17.2158C7.33 17.2154 7.33 17.2151 7.33 17.2147C7.33 17.2143 7.33 17.214 7.33 17.2136C7.33 17.2132 7.33 17.2129 7.33 17.2125C7.33 17.2121 7.33 17.2118 7.33 17.2114C7.33 17.211 7.33 17.2107 7.33 17.2103C7.33 17.2099 7.33 17.2096 7.33 17.2092C7.33 17.2089 7.33 17.2085 7.33 17.2081C7.33 17.2078 7.33 17.2074 7.33 17.207C7.33 17.2067 7.33 17.2063 7.33 17.2059C7.33 17.2056 7.33 17.2052 7.33 17.2048C7.33 17.2045 7.33 17.2041 7.33 17.2038C7.33 17.2034 7.33 17.203 7.33 17.2027C7.33 17.2023 7.33 17.2019 7.33 17.2016C7.33 17.2012 7.33 17.2008 7.33 17.2005C7.33 17.2001 7.33 17.1997 7.33 17.1994C7.33 17.199 7.33 17.1986 7.33 17.1983C7.33 17.1979 7.33 17.1976 7.33 17.1972C7.33 17.1968 7.33 17.1965 7.33 17.1961C7.33 17.1957 7.33 17.1954 7.33 17.195C7.33 17.1946 7.33 17.1943 7.33 17.1939C7.33 17.1935 7.33 17.1932 7.33 17.1928C7.33 17.1924 7.33 17.1921 7.33 17.1917C7.33 17.1914 7.33 17.191 7.33 17.1906C7.33 17.1903 7.33 17.1899 7.33 17.1895C7.33 17.1892 7.33 17.1888 7.33 17.1884C7.33 17.1881 7.33 17.1877 7.33 17.1873C7.33 17.187 7.33 17.1866 7.33 17.1863C7.33 17.1859 7.33 17.1855 7.33 17.1852C7.33 17.1848 7.33 17.1844 7.33 17.1841C7.33 17.1837 7.33 17.1833 7.33 17.183C7.33 17.1826 7.33 17.1822 7.33 17.1819C7.33 17.1815 7.33 17.1811 7.33 17.1808C7.33 17.1804 7.33 17.1801 7.33 17.1797C7.33 17.1793 7.33 17.179 7.33 17.1786C7.33 17.1782 7.33 17.1779 7.33 17.1775C7.33 17.1771 7.33 17.1768 7.33 17.1764C7.33 17.176 7.33 17.1757 7.33 17.1753C7.33 17.1749 7.33 17.1746 7.33 17.1742C7.33 17.1739 7.33 17.1735 7.33 17.1731C7.33 17.1728 7.33 17.1724 7.33 17.172C7.33 17.1717 7.33 17.1713 7.33 17.1709C7.33 17.1706 7.33 17.1702 7.33 17.1698C7.33 17.1695 7.33 17.1691 7.33 17.1687C7.33 17.1684 7.33 17.168 7.33 17.1677C7.33 17.1673 7.33 17.1669 7.33 17.1666C7.33 17.1662 7.33 17.1658 7.33 17.1655C7.33 17.1651 7.33 17.1647 7.33 17.1644C7.33 17.164 7.33 17.1636 7.33 17.1633C7.33 17.1629 7.33 17.1626 7.33 17.1622C7.33 17.1618 7.33 17.1615 7.33 17.1611C7.33 17.1607 7.33 17.1604 7.33 17.16H5.93C5.93 17.1604 5.93 17.1607 5.93 17.1611C5.93 17.1615 5.93 17.1618 5.93 17.1622C5.93 17.1626 5.93 17.1629 5.93 17.1633C5.93 17.1636 5.93 17.164 5.93 17.1644C5.93 17.1647 5.93 17.1651 5.93 17.1655C5.93 17.1658 5.93 17.1662 5.93 17.1666C5.93 17.1669 5.93 17.1673 5.93 17.1677C5.93 17.168 5.93 17.1684 5.93 17.1687C5.93 17.1691 5.93 17.1695 5.93 17.1698C5.93 17.1702 5.93 17.1706 5.93 17.1709C5.93 17.1713 5.93 17.1717 5.93 17.172C5.93 17.1724 5.93 17.1728 5.93 17.1731C5.93 17.1735 5.93 17.1739 5.93 17.1742C5.93 17.1746 5.93 17.1749 5.93 17.1753C5.93 17.1757 5.93 17.176 5.93 17.1764C5.93 17.1768 5.93 17.1771 5.93 17.1775C5.93 17.1779 5.93 17.1782 5.93 17.1786C5.93 17.179 5.93 17.1793 5.93 17.1797C5.93 17.1801 5.93 17.1804 5.93 17.1808C5.93 17.1811 5.93 17.1815 5.93 17.1819C5.93 17.1822 5.93 17.1826 5.93 17.183C5.93 17.1833 5.93 17.1837 5.93 17.1841C5.93 17.1844 5.93 17.1848 5.93 17.1852C5.93 17.1855 5.93 17.1859 5.93 17.1863C5.93 17.1866 5.93 17.187 5.93 17.1873C5.93 17.1877 5.93 17.1881 5.93 17.1884C5.93 17.1888 5.93 17.1892 5.93 17.1895C5.93 17.1899 5.93 17.1903 5.93 17.1906C5.93 17.191 5.93 17.1914 5.93 17.1917C5.93 17.1921 5.93 17.1924 5.93 17.1928C5.93 17.1932 5.93 17.1935 5.93 17.1939C5.93 17.1943 5.93 17.1946 5.93 17.195C5.93 17.1954 5.93 17.1957 5.93 17.1961C5.93 17.1965 5.93 17.1968 5.93 17.1972C5.93 17.1976 5.93 17.1979 5.93 17.1983C5.93 17.1986 5.93 17.199 5.93 17.1994C5.93 17.1997 5.93 17.2001 5.93 17.2005C5.93 17.2008 5.93 17.2012 5.93 17.2016C5.93 17.2019 5.93 17.2023 5.93 17.2027C5.93 17.203 5.93 17.2034 5.93 17.2038C5.93 17.2041 5.93 17.2045 5.93 17.2048C5.93 17.2052 5.93 17.2056 5.93 17.2059C5.93 17.2063 5.93 17.2067 5.93 17.207C5.93 17.2074 5.93 17.2078 5.93 17.2081C5.93 17.2085 5.93 17.2089 5.93 17.2092C5.93 17.2096 5.93 17.2099 5.93 17.2103C5.93 17.2107 5.93 17.211 5.93 17.2114C5.93 17.2118 5.93 17.2121 5.93 17.2125C5.93 17.2129 5.93 17.2132 5.93 17.2136C5.93 17.214 5.93 17.2143 5.93 17.2147C5.93 17.2151 5.93 17.2154 5.93 17.2158C5.93 17.2161 5.93 17.2165 5.93 17.2169C5.93 17.2172 5.93 17.2176 5.93 17.218C5.93 17.2183 5.93 17.2187 5.93 17.2191C5.93 17.2194 5.93 17.2198 5.93 17.2202C5.93 17.2205 5.93 17.2209 5.93 17.2213C5.93 17.2216 5.93 17.222 5.93 17.2223C5.93 17.2227 5.93 17.2231 5.93 17.2234C5.93 17.2238 5.93 17.2242 5.93 17.2245C5.93 17.2249 5.93 17.2253 5.93 17.2256C5.93 17.226 5.93 17.2264 5.93 17.2267C5.93 17.2271 5.93 17.2274 5.93 17.2278C5.93 17.2282 5.93 17.2285 5.93 17.2289C5.93 17.2293 5.93 17.2296 5.93 17.23C5.93 17.2304 5.93 17.2307 5.93 17.2311C5.93 17.2315 5.93 17.2318 5.93 17.2322C5.93 17.2326 5.93 17.2329 5.93 17.2333C5.93 17.2336 5.93 17.234 5.93 17.2344C5.93 17.2347 5.93 17.2351 5.93 17.2355C5.93 17.2358 5.93 17.2362 5.93 17.2366C5.93 17.2369 5.93 17.2373 5.93 17.2377C5.93 17.238 5.93 17.2384 5.93 17.2388C5.93 17.2391 5.93 17.2395 5.93 17.2398C5.93 17.2402 5.93 17.2406 5.93 17.2409C5.93 17.2413 5.93 17.2417 5.93 17.242C5.93 17.2424 5.93 17.2428 5.93 17.2431C5.93 17.2435 5.93 17.2439 5.93 17.2442C5.93 17.2446 5.93 17.2449 5.93 17.2453C5.93 17.2457 5.93 17.246 5.93 17.2464C5.93 17.2468 5.93 17.2471 5.93 17.2475C5.93 17.2479 5.93 17.2482 5.93 17.2486C5.93 17.249 5.93 17.2493 5.93 17.2497C5.93 17.2501 5.93 17.2504 5.93 17.2508C5.93 17.2511 5.93 17.2515 5.93 17.2519C5.93 17.2522 5.93 17.2526 5.93 17.253C5.93 17.2533 5.93 17.2537 5.93 17.2541C5.93 17.2544 5.93 17.2548 5.93 17.2552C5.93 17.2555 5.93 17.2559 5.93 17.2563C5.93 17.2566 5.93 17.257 5.93 17.2573C5.93 17.2577 5.93 17.2581 5.93 17.2584C5.93 17.2588 5.93 17.2592 5.93 17.2595C5.93 17.2599 5.93 17.2603 5.93 17.2606C5.93 17.261 5.93 17.2614 5.93 17.2617C5.93 17.2621 5.93 17.2624 5.93 17.2628C5.93 17.2632 5.93 17.2635 5.93 17.2639C5.93 17.2643 5.93 17.2646 5.93 17.265C5.93 17.2654 5.93 17.2657 5.93 17.2661C5.93 17.2665 5.93 17.2668 5.93 17.2672C5.93 17.2676 5.93 17.2679 5.93 17.2683C5.93 17.2686 5.93 17.269 5.93 17.2694C5.93 17.2697 5.93 17.2701 5.93 17.2705C5.93 17.2708 5.93 17.2712 5.93 17.2716C5.93 17.2719 5.93 17.2723 5.93 17.2727C5.93 17.273 5.93 17.2734 5.93 17.2738C5.93 17.2741 5.93 17.2745 5.93 17.2748C5.93 17.2752 5.93 17.2756 5.93 17.2759C5.93 17.2763 5.93 17.2767 5.93 17.277C5.93 17.2774 5.93 17.2778 5.93 17.2781C5.93 17.2785 5.93 17.2789 5.93 17.2792C5.93 17.2796 5.93 17.2799 5.93 17.2803C5.93 17.2807 5.93 17.281 5.93 17.2814C5.93 17.2818 5.93 17.2821 5.93 17.2825C5.93 17.2829 5.93 17.2832 5.93 17.2836C5.93 17.284 5.93 17.2843 5.93 17.2847C5.93 17.2851 5.93 17.2854 5.93 17.2858C5.93 17.2861 5.93 17.2865 5.93 17.2869C5.93 17.2872 5.93 17.2876 5.93 17.288C5.93 17.2883 5.93 17.2887 5.93 17.2891C5.93 17.2894 5.93 17.2898 5.93 17.2902C5.93 17.2905 5.93 17.2909 5.93 17.2913C5.93 17.2916 5.93 17.292 5.93 17.2923C5.93 17.2927 5.93 17.2931 5.93 17.2934C5.93 17.2938 5.93 17.2942 5.93 17.2945C5.93 17.2949 5.93 17.2953 5.93 17.2956C5.93 17.296 5.93 17.2964 5.93 17.2967C5.93 17.2971 5.93 17.2974 5.93 17.2978C5.93 17.2982 5.93 17.2985 5.93 17.2989C5.93 17.2993 5.93 17.2996 5.93 17.3C5.93 17.3004 5.93 17.3007 5.93 17.3011C5.93 17.3015 5.93 17.3018 5.93 17.3022C5.93 17.3026 5.93 17.3029 5.93 17.3033C5.93 17.3036 5.93 17.304 5.93 17.3044C5.93 17.3047 5.93 17.3051 5.93 17.3055C5.93 17.3058 5.93 17.3062 5.93 17.3066C5.93 17.3069 5.93 17.3073 5.93 17.3077C5.93 17.308 5.93 17.3084 5.93 17.3088C5.93 17.3091 5.93 17.3095 5.93 17.3098C5.93 17.3102 5.93 17.3106 5.93 17.3109C5.93 17.3113 5.93 17.3117 5.93 17.312C5.93 17.3124 5.93 17.3128 5.93 17.3131C5.93 17.3135 5.93 17.3139 5.93 17.3142C5.93 17.3146 5.93 17.3149 5.93 17.3153C5.93 17.3157 5.93 17.316 5.93 17.3164C5.93 17.3168 5.93 17.3171 5.93 17.3175C5.93 17.3179 5.93 17.3182 5.93 17.3186C5.93 17.319 5.93 17.3193 5.93 17.3197C5.93 17.3201 5.93 17.3204 5.93 17.3208C5.93 17.3211 5.93 17.3215 5.93 17.3219C5.93 17.3222 5.93 17.3226 5.93 17.323C5.93 17.3233 5.93 17.3237 5.93 17.3241C5.93 17.3244 5.93 17.3248 5.93 17.3252C5.93 17.3255 5.93 17.3259 5.93 17.3263C5.93 17.3266 5.93 17.327 5.93 17.3273C5.93 17.3277 5.93 17.3281 5.93 17.3284C5.93 17.3288 5.93 17.3292 5.93 17.3295C5.93 17.3299 5.93 17.3303 5.93 17.3306C5.93 17.331 5.93 17.3314 5.93 17.3317C5.93 17.3321 5.93 17.3324 5.93 17.3328C5.93 17.3332 5.93 17.3335 5.93 17.3339C5.93 17.3343 5.93 17.3346 5.93 17.335C5.93 17.3354 5.93 17.3357 5.93 17.3361C5.93 17.3365 5.93 17.3368 5.93 17.3372C5.93 17.3376 5.93 17.3379 5.93 17.3383C5.93 17.3386 5.93 17.339 5.93 17.3394C5.93 17.3397 5.93 17.3401 5.93 17.3405C5.93 17.3408 5.93 17.3412 5.93 17.3416C5.93 17.3419 5.93 17.3423 5.93 17.3427C5.93 17.343 5.93 17.3434 5.93 17.3438C5.93 17.3441 5.93 17.3445 5.93 17.3448C5.93 17.3452 5.93 17.3456 5.93 17.3459C5.93 17.3463 5.93 17.3467 5.93 17.347C5.93 17.3474 5.93 17.3478 5.93 17.3481C5.93 17.3485 5.93 17.3489 5.93 17.3492C5.93 17.3496 5.93 17.3499 5.93 17.3503C5.93 17.3507 5.93 17.351 5.93 17.3514C5.93 17.3518 5.93 17.3521 5.93 17.3525C5.93 17.3529 5.93 17.3532 5.93 17.3536C5.93 17.354 5.93 17.3543 5.93 17.3547C5.93 17.3551 5.93 17.3554 5.93 17.3558C5.93 17.3561 5.93 17.3565 5.93 17.3569C5.93 17.3572 5.93 17.3576 5.93 17.358C5.93 17.3583 5.93 17.3587 5.93 17.3591C5.93 17.3594 5.93 17.3598 5.93 17.3602C5.93 17.3605 5.93 17.3609 5.93 17.3612C5.93 17.3616 5.93 17.362 5.93 17.3623C5.93 17.3627 5.93 17.3631 5.93 17.3634C5.93 17.3638 5.93 17.3642 5.93 17.3645C5.93 17.3649 5.93 17.3653 5.93 17.3656C5.93 17.366 5.93 17.3664 5.93 17.3667C5.93 17.3671 5.93 17.3674 5.93 17.3678C5.93 17.3682 5.93 17.3685 5.93 17.3689C5.93 17.3693 5.93 17.3696 5.93 17.37C5.93 17.3704 5.93 17.3707 5.93 17.3711C5.93 17.3715 5.93 17.3718 5.93 17.3722C5.93 17.3726 5.93 17.3729 5.93 17.3733C5.93 17.3736 5.93 17.374 5.93 17.3744C5.93 17.3747 5.93 17.3751 5.93 17.3755C5.93 17.3758 5.93 17.3762 5.93 17.3766C5.93 17.3769 5.93 17.3773 5.93 17.3777C5.93 17.378 5.93 17.3784 5.93 17.3787C5.93 17.3791 5.93 17.3795 5.93 17.3798C5.93 17.3802 5.93 17.3806 5.93 17.3809C5.93 17.3813 5.93 17.3817 5.93 17.382C5.93 17.3824 5.93 17.3828 5.93 17.3831C5.93 17.3835 5.93 17.3839 5.93 17.3842C5.93 17.3846 5.93 17.3849 5.93 17.3853C5.93 17.3857 5.93 17.386 5.93 17.3864C5.93 17.3868 5.93 17.3871 5.93 17.3875C5.93 17.3879 5.93 17.3882 5.93 17.3886C5.93 17.389 5.93 17.3893 5.93 17.3897C5.93 17.3901 5.93 17.3904 5.93 17.3908C5.93 17.3911 5.93 17.3915 5.93 17.3919C5.93 17.3922 5.93 17.3926 5.93 17.393C5.93 17.3933 5.93 17.3937 5.93 17.3941C5.93 17.3944 5.93 17.3948 5.93 17.3952C5.93 17.3955 5.93 17.3959 5.93 17.3962C5.93 17.3966 5.93 17.397 5.93 17.3973C5.93 17.3977 5.93 17.3981 5.93 17.3984C5.93 17.3988 5.93 17.3992 5.93 17.3995C5.93 17.3999 5.93 17.4003 5.93 17.4006C5.93 17.401 5.93 17.4014 5.93 17.4017C5.93 17.4021 5.93 17.4024 5.93 17.4028C5.93 17.4032 5.93 17.4035 5.93 17.4039C5.93 17.4043 5.93 17.4046 5.93 17.405C5.93 17.4054 5.93 17.4057 5.93 17.4061C5.93 17.4065 5.93 17.4068 5.93 17.4072C5.93 17.4076 5.93 17.4079 5.93 17.4083C5.93 17.4086 5.93 17.409 5.93 17.4094C5.93 17.4097 5.93 17.4101 5.93 17.4105C5.93 17.4108 5.93 17.4112 5.93 17.4116C5.93 17.4119 5.93 17.4123 5.93 17.4127C5.93 17.413 5.93 17.4134 5.93 17.4137C5.93 17.4141 5.93 17.4145 5.93 17.4148C5.93 17.4152 5.93 17.4156 5.93 17.4159C5.93 17.4163 5.93 17.4167 5.93 17.417C5.93 17.4174 5.93 17.4178 5.93 17.4181C5.93 17.4185 5.93 17.4189 5.93 17.4192C5.93 17.4196 5.93 17.4199 5.93 17.4203C5.93 17.4207 5.93 17.421 5.93 17.4214C5.93 17.4218 5.93 17.4221 5.93 17.4225C5.93 17.4229 5.93 17.4232 5.93 17.4236C5.93 17.424 5.93 17.4243 5.93 17.4247C5.93 17.4251 5.93 17.4254 5.93 17.4258C5.93 17.4261 5.93 17.4265 5.93 17.4269C5.93 17.4272 5.93 17.4276 5.93 17.428C5.93 17.4283 5.93 17.4287 5.93 17.4291C5.93 17.4294 5.93 17.4298 5.93 17.4302C5.93 17.4305 5.93 17.4309 5.93 17.4312C5.93 17.4316 5.93 17.432 5.93 17.4323C5.93 17.4327 5.93 17.4331 5.93 17.4334C5.93 17.4338 5.93 17.4342 5.93 17.4345C5.93 17.4349 5.93 17.4353 5.93 17.4356C5.93 17.436 5.93 17.4364 5.93 17.4367C5.93 17.4371 5.93 17.4374 5.93 17.4378C5.93 17.4382 5.93 17.4385 5.93 17.4389C5.93 17.4393 5.93 17.4396 5.93 17.44C5.93 17.4404 5.93 17.4407 5.93 17.4411C5.93 17.4415 5.93 17.4418 5.93 17.4422C5.93 17.4426 5.93 17.4429 5.93 17.4433C5.93 17.4436 5.93 17.444 5.93 17.4444C5.93 17.4447 5.93 17.4451 5.93 17.4455C5.93 17.4458 5.93 17.4462 5.93 17.4466C5.93 17.4469 5.93 17.4473 5.93 17.4477C5.93 17.448 5.93 17.4484 5.93 17.4487C5.93 17.4491 5.93 17.4495 5.93 17.4498C5.93 17.4502 5.93 17.4506 5.93 17.4509C5.93 17.4513 5.93 17.4517 5.93 17.452C5.93 17.4524 5.93 17.4528 5.93 17.4531C5.93 17.4535 5.93 17.4539 5.93 17.4542C5.93 17.4546 5.93 17.4549 5.93 17.4553C5.93 17.4557 5.93 17.456 5.93 17.4564C5.93 17.4568 5.93 17.4571 5.93 17.4575C5.93 17.4579 5.93 17.4582 5.93 17.4586C5.93 17.459 5.93 17.4593 5.93 17.4597C5.93 17.4601 5.93 17.4604 5.93 17.4608C5.93 17.4611 5.93 17.4615 5.93 17.4619C5.93 17.4622 5.93 17.4626 5.93 17.463C5.93 17.4633 5.93 17.4637 5.93 17.4641C5.93 17.4644 5.93 17.4648 5.93 17.4652C5.93 17.4655 5.93 17.4659 5.93 17.4662C5.93 17.4666 5.93 17.467 5.93 17.4673C5.93 17.4677 5.93 17.4681 5.93 17.4684C5.93 17.4688 5.93 17.4692 5.93 17.4695C5.93 17.4699 5.93 17.4703 5.93 17.4706C5.93 17.471 5.93 17.4714 5.93 17.4717C5.93 17.4721 5.93 17.4724 5.93 17.4728C5.93 17.4732 5.93 17.4735 5.93 17.4739C5.93 17.4743 5.93 17.4746 5.93 17.475C5.93 17.4754 5.93 17.4757 5.93 17.4761C5.93 17.4765 5.93 17.4768 5.93 17.4772C5.93 17.4776 5.93 17.4779 5.93 17.4783C5.93 17.4786 5.93 17.479 5.93 17.4794C5.93 17.4797 5.93 17.4801 5.93 17.4805C5.93 17.4808 5.93 17.4812 5.93 17.4816C5.93 17.4819 5.93 17.4823 5.93 17.4827C5.93 17.483 5.93 17.4834 5.93 17.4837C5.93 17.4841 5.93 17.4845 5.93 17.4848C5.93 17.4852 5.93 17.4856 5.93 17.4859C5.93 17.4863 5.93 17.4867 5.93 17.487C5.93 17.4874 5.93 17.4878 5.93 17.4881C5.93 17.4885 5.93 17.4889 5.93 17.4892C5.93 17.4896 5.93 17.4899 5.93 17.4903C5.93 17.4907 5.93 17.491 5.93 17.4914C5.93 17.4918 5.93 17.4921 5.93 17.4925C5.93 17.4929 5.93 17.4932 5.93 17.4936C5.93 17.494 5.93 17.4943 5.93 17.4947C5.93 17.4951 5.93 17.4954 5.93 17.4958C5.93 17.4961 5.93 17.4965 5.93 17.4969C5.93 17.4972 5.93 17.4976 5.93 17.498C5.93 17.4983 5.93 17.4987 5.93 17.4991C5.93 17.4994 5.93 17.4998 5.93 17.5002C5.93 17.5005 5.93 17.5009 5.93 17.5012C5.93 17.5016 5.93 17.502 5.93 17.5023C5.93 17.5027 5.93 17.5031 5.93 17.5034C5.93 17.5038 5.93 17.5042 5.93 17.5045C5.93 17.5049 5.93 17.5053 5.93 17.5056C5.93 17.506 5.93 17.5064 5.93 17.5067C5.93 17.5071 5.93 17.5074 5.93 17.5078C5.93 17.5082 5.93 17.5085 5.93 17.5089C5.93 17.5093 5.93 17.5096 5.93 17.51C5.93 17.5104 5.93 17.5107 5.93 17.5111C5.93 17.5115 5.93 17.5118 5.93 17.5122C5.93 17.5126 5.93 17.5129 5.93 17.5133C5.93 17.5136 5.93 17.514 5.93 17.5144C5.93 17.5147 5.93 17.5151 5.93 17.5155C5.93 17.5158 5.93 17.5162 5.93 17.5166C5.93 17.5169 5.93 17.5173 5.93 17.5177C5.93 17.518 5.93 17.5184 5.93 17.5187C5.93 17.5191 5.93 17.5195 5.93 17.5198C5.93 17.5202 5.93 17.5206 5.93 17.5209C5.93 17.5213 5.93 17.5217 5.93 17.522C5.93 17.5224 5.93 17.5228 5.93 17.5231C5.93 17.5235 5.93 17.5239 5.93 17.5242C5.93 17.5246 5.93 17.5249 5.93 17.5253C5.93 17.5257 5.93 17.526 5.93 17.5264C5.93 17.5268 5.93 17.5271 5.93 17.5275C5.93 17.5279 5.93 17.5282 5.93 17.5286C5.93 17.529 5.93 17.5293 5.93 17.5297C5.93 17.5301 5.93 17.5304 5.93 17.5308C5.93 17.5311 5.93 17.5315 5.93 17.5319C5.93 17.5322 5.93 17.5326 5.93 17.533C5.93 17.5333 5.93 17.5337 5.93 17.5341C5.93 17.5344 5.93 17.5348 5.93 17.5352C5.93 17.5355 5.93 17.5359 5.93 17.5362C5.93 17.5366 5.93 17.537 5.93 17.5373C5.93 17.5377 5.93 17.5381 5.93 17.5384C5.93 17.5388 5.93 17.5392 5.93 17.5395C5.93 17.5399 5.93 17.5403 5.93 17.5406C5.93 17.541 5.93 17.5414 5.93 17.5417C5.93 17.5421 5.93 17.5424 5.93 17.5428C5.93 17.5432 5.93 17.5435 5.93 17.5439C5.93 17.5443 5.93 17.5446 5.93 17.545C5.93 17.5454 5.93 17.5457 5.93 17.5461C5.93 17.5465 5.93 17.5468 5.93 17.5472C5.93 17.5476 5.93 17.5479 5.93 17.5483C5.93 17.5486 5.93 17.549 5.93 17.5494C5.93 17.5497 5.93 17.5501 5.93 17.5505C5.93 17.5508 5.93 17.5512 5.93 17.5516C5.93 17.5519 5.93 17.5523 5.93 17.5527C5.93 17.553 5.93 17.5534 5.93 17.5537C5.93 17.5541 5.93 17.5545 5.93 17.5548C5.93 17.5552 5.93 17.5556 5.93 17.5559C5.93 17.5563 5.93 17.5567 5.93 17.557C5.93 17.5574 5.93 17.5578 5.93 17.5581C5.93 17.5585 5.93 17.5589 5.93 17.5592C5.93 17.5596 5.93 17.5599 5.93 17.5603C5.93 17.5607 5.93 17.561 5.93 17.5614C5.93 17.5618 5.93 17.5621 5.93 17.5625C5.93 17.5629 5.93 17.5632 5.93 17.5636C5.93 17.564 5.93 17.5643 5.93 17.5647C5.93 17.5651 5.93 17.5654 5.93 17.5658C5.93 17.5661 5.93 17.5665 5.93 17.5669C5.93 17.5672 5.93 17.5676 5.93 17.568C5.93 17.5683 5.93 17.5687 5.93 17.5691C5.93 17.5694 5.93 17.5698 5.93 17.5702C5.93 17.5705 5.93 17.5709 5.93 17.5712C5.93 17.5716 5.93 17.572 5.93 17.5723C5.93 17.5727 5.93 17.5731 5.93 17.5734C5.93 17.5738 5.93 17.5742 5.93 17.5745C5.93 17.5749 5.93 17.5753 5.93 17.5756C5.93 17.576 5.93 17.5764 5.93 17.5767C5.93 17.5771 5.93 17.5774 5.93 17.5778C5.93 17.5782 5.93 17.5785 5.93 17.5789C5.93 17.5793 5.93 17.5796 5.93 17.58C5.93 17.5804 5.93 17.5807 5.93 17.5811C5.93 17.5815 5.93 17.5818 5.93 17.5822C5.93 17.5826 5.93 17.5829 5.93 17.5833C5.93 17.5836 5.93 17.584 5.93 17.5844C5.93 17.5847 5.93 17.5851 5.93 17.5855C5.93 17.5858 5.93 17.5862 5.93 17.5866C5.93 17.5869 5.93 17.5873 5.93 17.5877C5.93 17.588 5.93 17.5884 5.93 17.5887C5.93 17.5891 5.93 17.5895 5.93 17.5898C5.93 17.5902 5.93 17.5906 5.93 17.5909C5.93 17.5913 5.93 17.5917 5.93 17.592C5.93 17.5924 5.93 17.5928 5.93 17.5931C5.93 17.5935 5.93 17.5939 5.93 17.5942C5.93 17.5946 5.93 17.5949 5.93 17.5953C5.93 17.5957 5.93 17.596 5.93 17.5964C5.93 17.5968 5.93 17.5971 5.93 17.5975C5.93 17.5979 5.93 17.5982 5.93 17.5986C5.93 17.599 5.93 17.5993 5.93 17.5997C5.93 17.6001 5.93 17.6004 5.93 17.6008C5.93 17.6011 5.93 17.6015 5.93 17.6019C5.93 17.6022 5.93 17.6026 5.93 17.603C5.93 17.6033 5.93 17.6037 5.93 17.6041C5.93 17.6044 5.93 17.6048 5.93 17.6052C5.93 17.6055 5.93 17.6059 5.93 17.6063C5.93 17.6066 5.93 17.607 5.93 17.6073C5.93 17.6077 5.93 17.6081 5.93 17.6084C5.93 17.6088 5.93 17.6092 5.93 17.6095C5.93 17.6099 5.93 17.6103 5.93 17.6106C5.93 17.611 5.93 17.6114 5.93 17.6117C5.93 17.6121 5.93 17.6124 5.93 17.6128C5.93 17.6132 5.93 17.6135 5.93 17.6139C5.93 17.6143 5.93 17.6146 5.93 17.615C5.93 17.6154 5.93 17.6157 5.93 17.6161C5.93 17.6165 5.93 17.6168 5.93 17.6172C5.93 17.6176 5.93 17.6179 5.93 17.6183C5.93 17.6186 5.93 17.619 5.93 17.6194C5.93 17.6197 5.93 17.6201 5.93 17.6205C5.93 17.6208 5.93 17.6212 5.93 17.6216C5.93 17.6219 5.93 17.6223 5.93 17.6227C5.93 17.623 5.93 17.6234 5.93 17.6238C5.93 17.6241 5.93 17.6245 5.93 17.6248C5.93 17.6252 5.93 17.6256 5.93 17.6259C5.93 17.6263 5.93 17.6267 5.93 17.627C5.93 17.6274 5.93 17.6278 5.93 17.6281C5.93 17.6285 5.93 17.6289 5.93 17.6292C5.93 17.6296 5.93 17.6299 5.93 17.6303C5.93 17.6307 5.93 17.631 5.93 17.6314C5.93 17.6318 5.93 17.6321 5.93 17.6325C5.93 17.6329 5.93 17.6332 5.93 17.6336C5.93 17.634 5.93 17.6343 5.93 17.6347C5.93 17.6351 5.93 17.6354 5.93 17.6358C5.93 17.6361 5.93 17.6365 5.93 17.6369C5.93 17.6372 5.93 17.6376 5.93 17.638C5.93 17.6383 5.93 17.6387 5.93 17.6391C5.93 17.6394 5.93 17.6398 5.93 17.6402C5.93 17.6405 5.93 17.6409 5.93 17.6413C5.93 17.6416 5.93 17.642 5.93 17.6423C5.93 17.6427 5.93 17.6431 5.93 17.6434C5.93 17.6438 5.93 17.6442 5.93 17.6445C5.93 17.6449 5.93 17.6453 5.93 17.6456C5.93 17.646 5.93 17.6464 5.93 17.6467C5.93 17.6471 5.93 17.6474 5.93 17.6478C5.93 17.6482 5.93 17.6485 5.93 17.6489C5.93 17.6493 5.93 17.6496 5.93 17.65C5.93 17.6504 5.93 17.6507 5.93 17.6511C5.93 17.6515 5.93 17.6518 5.93 17.6522C5.93 17.6526 5.93 17.6529 5.93 17.6533C5.93 17.6536 5.93 17.654 5.93 17.6544C5.93 17.6547 5.93 17.6551 5.93 17.6555C5.93 17.6558 5.93 17.6562 5.93 17.6566C5.93 17.6569 5.93 17.6573 5.93 17.6577C5.93 17.658 5.93 17.6584 5.93 17.6588C5.93 17.6591 5.93 17.6595 5.93 17.6598C5.93 17.6602 5.93 17.6606 5.93 17.6609C5.93 17.6613 5.93 17.6617 5.93 17.662C5.93 17.6624 5.93 17.6628 5.93 17.6631C5.93 17.6635 5.93 17.6639 5.93 17.6642C5.93 17.6646 5.93 17.6649 5.93 17.6653C5.93 17.6657 5.93 17.666 5.93 17.6664C5.93 17.6668 5.93 17.6671 5.93 17.6675C5.93 17.6679 5.93 17.6682 5.93 17.6686C5.93 17.669 5.93 17.6693 5.93 17.6697C5.93 17.6701 5.93 17.6704 5.93 17.6708C5.93 17.6711 5.93 17.6715 5.93 17.6719C5.93 17.6722 5.93 17.6726 5.93 17.673C5.93 17.6733 5.93 17.6737 5.93 17.6741C5.93 17.6744 5.93 17.6748 5.93 17.6752C5.93 17.6755 5.93 17.6759 5.93 17.6763C5.93 17.6766 5.93 17.677 5.93 17.6773C5.93 17.6777 5.93 17.6781 5.93 17.6784C5.93 17.6788 5.93 17.6792 5.93 17.6795C5.93 17.6799 5.93 17.6803 5.93 17.6806C5.93 17.681 5.93 17.6814 5.93 17.6817C5.93 17.6821 5.93 17.6824 5.93 17.6828C5.93 17.6832 5.93 17.6835 5.93 17.6839C5.93 17.6843 5.93 17.6846 5.93 17.685C5.93 17.6854 5.93 17.6857 5.93 17.6861C5.93 17.6865 5.93 17.6868 5.93 17.6872C5.93 17.6876 5.93 17.6879 5.93 17.6883C5.93 17.6886 5.93 17.689 5.93 17.6894C5.93 17.6897 5.93 17.6901 5.93 17.6905C5.93 17.6908 5.93 17.6912 5.93 17.6916C5.93 17.6919 5.93 17.6923 5.93 17.6927C5.93 17.693 5.93 17.6934 5.93 17.6938C5.93 17.6941 5.93 17.6945 5.93 17.6948C5.93 17.6952 5.93 17.6956 5.93 17.6959C5.93 17.6963 5.93 17.6967 5.93 17.697C5.93 17.6974 5.93 17.6978 5.93 17.6981C5.93 17.6985 5.93 17.6989 5.93 17.6992C5.93 17.6996 5.93 17.6999 5.93 17.7003C5.93 17.7007 5.93 17.701 5.93 17.7014C5.93 17.7018 5.93 17.7021 5.93 17.7025C5.93 17.7029 5.93 17.7032 5.93 17.7036C5.93 17.704 5.93 17.7043 5.93 17.7047C5.93 17.7051 5.93 17.7054 5.93 17.7058C5.93 17.7061 5.93 17.7065 5.93 17.7069C5.93 17.7072 5.93 17.7076 5.93 17.708C5.93 17.7083 5.93 17.7087 5.93 17.7091C5.93 17.7094 5.93 17.7098 5.93 17.7102C5.93 17.7105 5.93 17.7109 5.93 17.7113C5.93 17.7116 5.93 17.712 5.93 17.7123C5.93 17.7127 5.93 17.7131 5.93 17.7134C5.93 17.7138 5.93 17.7142 5.93 17.7145C5.93 17.7149 5.93 17.7153 5.93 17.7156C5.93 17.716 5.93 17.7164 5.93 17.7167C5.93 17.7171 5.93 17.7174 5.93 17.7178C5.93 17.7182 5.93 17.7185 5.93 17.7189C5.93 17.7193 5.93 17.7196 5.93 17.72H7.33ZM7.33 17.16C7.33 17.1596 7.33 17.1593 7.33 17.1589C7.33 17.1585 7.33 17.1582 7.33 17.1578C7.33 17.1574 7.33 17.1571 7.33 17.1567C7.33 17.1564 7.33 17.156 7.33 17.1556C7.33 17.1553 7.33 17.1549 7.33 17.1545C7.33 17.1542 7.33 17.1538 7.33 17.1534C7.33 17.1531 7.33 17.1527 7.33 17.1523C7.33 17.152 7.33 17.1516 7.33 17.1512C7.33 17.1509 7.33 17.1505 7.33 17.1502C7.33 17.1498 7.33 17.1494 7.33 17.1491C7.33 17.1487 7.33 17.1483 7.33 17.148C7.33 17.1476 7.33 17.1472 7.33 17.1469C7.33 17.1465 7.33 17.1461 7.33 17.1458C7.33 17.1454 7.33 17.1451 7.33 17.1447C7.33 17.1443 7.33 17.144 7.33 17.1436C7.33 17.1432 7.33 17.1429 7.33 17.1425C7.33 17.1421 7.33 17.1418 7.33 17.1414C7.33 17.141 7.33 17.1407 7.33 17.1403C7.33 17.1399 7.33 17.1396 7.33 17.1392C7.33 17.1389 7.33 17.1385 7.33 17.1381C7.33 17.1378 7.33 17.1374 7.33 17.137C7.33 17.1367 7.33 17.1363 7.33 17.1359C7.33 17.1356 7.33 17.1352 7.33 17.1348C7.33 17.1345 7.33 17.1341 7.33 17.1337C7.33 17.1334 7.33 17.133 7.33 17.1327C7.33 17.1323 7.33 17.1319 7.33 17.1316C7.33 17.1312 7.33 17.1308 7.33 17.1305C7.33 17.1301 7.33 17.1297 7.33 17.1294C7.33 17.129 7.33 17.1286 7.33 17.1283C7.33 17.1279 7.33 17.1276 7.33 17.1272C7.33 17.1268 7.33 17.1265 7.33 17.1261C7.33 17.1257 7.33 17.1254 7.33 17.125C7.33 17.1246 7.33 17.1243 7.33 17.1239C7.33 17.1235 7.33 17.1232 7.33 17.1228C7.33 17.1224 7.33 17.1221 7.33 17.1217C7.33 17.1214 7.33 17.121 7.33 17.1206C7.33 17.1203 7.33 17.1199 7.33 17.1195C7.33 17.1192 7.33 17.1188 7.33 17.1184C7.33 17.1181 7.33 17.1177 7.33 17.1173C7.33 17.117 7.33 17.1166 7.33 17.1162C7.33 17.1159 7.33 17.1155 7.33 17.1152C7.33 17.1148 7.33 17.1144 7.33 17.1141C7.33 17.1137 7.33 17.1133 7.33 17.113C7.33 17.1126 7.33 17.1122 7.33 17.1119C7.33 17.1115 7.33 17.1111 7.33 17.1108C7.33 17.1104 7.33 17.1101 7.33 17.1097C7.33 17.1093 7.33 17.109 7.33 17.1086C7.33 17.1082 7.33 17.1079 7.33 17.1075C7.33 17.1071 7.33 17.1068 7.33 17.1064C7.33 17.106 7.33 17.1057 7.33 17.1053C7.33 17.1049 7.33 17.1046 7.33 17.1042C7.33 17.1039 7.33 17.1035 7.33 17.1031C7.33 17.1028 7.33 17.1024 7.33 17.102C7.33 17.1017 7.33 17.1013 7.33 17.1009C7.33 17.1006 7.33 17.1002 7.33 17.0998C7.33 17.0995 7.33 17.0991 7.33 17.0987C7.33 17.0984 7.33 17.098 7.33 17.0977C7.33 17.0973 7.33 17.0969 7.33 17.0966C7.33 17.0962 7.33 17.0958 7.33 17.0955C7.33 17.0951 7.33 17.0947 7.33 17.0944C7.33 17.094 7.33 17.0936 7.33 17.0933C7.33 17.0929 7.33 17.0926 7.33 17.0922C7.33 17.0918 7.33 17.0915 7.33 17.0911C7.33 17.0907 7.33 17.0904 7.33 17.09C7.33 17.0896 7.33 17.0893 7.33 17.0889C7.33 17.0885 7.33 17.0882 7.33 17.0878C7.33 17.0874 7.33 17.0871 7.33 17.0867C7.33 17.0864 7.33 17.086 7.33 17.0856C7.33 17.0853 7.33 17.0849 7.33 17.0845C7.33 17.0842 7.33 17.0838 7.33 17.0834C7.33 17.0831 7.33 17.0827 7.33 17.0823C7.33 17.082 7.33 17.0816 7.33 17.0812C7.33 17.0809 7.33 17.0805 7.33 17.0802C7.33 17.0798 7.33 17.0794 7.33 17.0791C7.33 17.0787 7.33 17.0783 7.33 17.078C7.33 17.0776 7.33 17.0772 7.33 17.0769C7.33 17.0765 7.33 17.0761 7.33 17.0758C7.33 17.0754 7.33 17.0751 7.33 17.0747C7.33 17.0743 7.33 17.074 7.33 17.0736C7.33 17.0732 7.33 17.0729 7.33 17.0725C7.33 17.0721 7.33 17.0718 7.33 17.0714C7.33 17.071 7.33 17.0707 7.33 17.0703C7.33 17.0699 7.33 17.0696 7.33 17.0692C7.33 17.0689 7.33 17.0685 7.33 17.0681C7.33 17.0678 7.33 17.0674 7.33 17.067C7.33 17.0667 7.33 17.0663 7.33 17.0659C7.33 17.0656 7.33 17.0652 7.33 17.0648C7.33 17.0645 7.33 17.0641 7.33 17.0637C7.33 17.0634 7.33 17.063 7.33 17.0627C7.33 17.0623 7.33 17.0619 7.33 17.0616C7.33 17.0612 7.33 17.0608 7.33 17.0605C7.33 17.0601 7.33 17.0597 7.33 17.0594C7.33 17.059 7.33 17.0586 7.33 17.0583C7.33 17.0579 7.33 17.0576 7.33 17.0572C7.33 17.0568 7.33 17.0565 7.33 17.0561C7.33 17.0557 7.33 17.0554 7.33 17.055C7.33 17.0546 7.33 17.0543 7.33 17.0539C7.33 17.0535 7.33 17.0532 7.33 17.0528C7.33 17.0524 7.33 17.0521 7.33 17.0517C7.33 17.0514 7.33 17.051 7.33 17.0506C7.33 17.0503 7.33 17.0499 7.33 17.0495C7.33 17.0492 7.33 17.0488 7.33 17.0484C7.33 17.0481 7.33 17.0477 7.33 17.0473C7.33 17.047 7.33 17.0466 7.33 17.0462C7.33 17.0459 7.33 17.0455 7.33 17.0452C7.33 17.0448 7.33 17.0444 7.33 17.0441C7.33 17.0437 7.33 17.0433 7.33 17.043C7.33 17.0426 7.33 17.0422 7.33 17.0419C7.33 17.0415 7.33 17.0411 7.33 17.0408C7.33 17.0404 7.33 17.0401 7.33 17.0397C7.33 17.0393 7.33 17.039 7.33 17.0386C7.33 17.0382 7.33 17.0379 7.33 17.0375C7.33 17.0371 7.33 17.0368 7.33 17.0364C7.33 17.036 7.33 17.0357 7.33 17.0353C7.33 17.0349 7.33 17.0346 7.33 17.0342C7.33 17.0339 7.33 17.0335 7.33 17.0331C7.33 17.0328 7.33 17.0324 7.33 17.032C7.33 17.0317 7.33 17.0313 7.33 17.0309C7.33 17.0306 7.33 17.0302 7.33 17.0298C7.33 17.0295 7.33 17.0291 7.33 17.0287C7.33 17.0284 7.33 17.028 7.33 17.0277C7.33 17.0273 7.33 17.0269 7.33 17.0266C7.33 17.0262 7.33 17.0258 7.33 17.0255C7.33 17.0251 7.33 17.0247 7.33 17.0244C7.33 17.024 7.33 17.0236 7.33 17.0233C7.33 17.0229 7.33 17.0226 7.33 17.0222C7.33 17.0218 7.33 17.0215 7.33 17.0211C7.33 17.0207 7.33 17.0204 7.33 17.02C7.33 17.0196 7.33 17.0193 7.33 17.0189C7.33 17.0185 7.33 17.0182 7.33 17.0178C7.33 17.0174 7.33 17.0171 7.33 17.0167C7.33 17.0164 7.33 17.016 7.33 17.0156C7.33 17.0153 7.33 17.0149 7.33 17.0145C7.33 17.0142 7.33 17.0138 7.33 17.0134C7.33 17.0131 7.33 17.0127 7.33 17.0123C7.33 17.012 7.33 17.0116 7.33 17.0112C7.33 17.0109 7.33 17.0105 7.33 17.0102C7.33 17.0098 7.33 17.0094 7.33 17.0091C7.33 17.0087 7.33 17.0083 7.33 17.008C7.33 17.0076 7.33 17.0072 7.33 17.0069C7.33 17.0065 7.33 17.0061 7.33 17.0058C7.33 17.0054 7.33 17.0051 7.33 17.0047C7.33 17.0043 7.33 17.004 7.33 17.0036C7.33 17.0032 7.33 17.0029 7.33 17.0025C7.33 17.0021 7.33 17.0018 7.33 17.0014C7.33 17.001 7.33 17.0007 7.33 17.0003C7.33 16.9999 7.33 16.9996 7.33 16.9992C7.33 16.9989 7.33 16.9985 7.33 16.9981C7.33 16.9978 7.33 16.9974 7.33 16.997C7.33 16.9967 7.33 16.9963 7.33 16.9959C7.33 16.9956 7.33 16.9952 7.33 16.9948C7.33 16.9945 7.33 16.9941 7.33 16.9937C7.33 16.9934 7.33 16.993 7.33 16.9927C7.33 16.9923 7.33 16.9919 7.33 16.9916C7.33 16.9912 7.33 16.9908 7.33 16.9905C7.33 16.9901 7.33 16.9897 7.33 16.9894C7.33 16.989 7.33 16.9886 7.33 16.9883C7.33 16.9879 7.33 16.9876 7.33 16.9872C7.33 16.9868 7.33 16.9865 7.33 16.9861C7.33 16.9857 7.33 16.9854 7.33 16.985C7.33 16.9846 7.33 16.9843 7.33 16.9839C7.33 16.9835 7.33 16.9832 7.33 16.9828C7.33 16.9824 7.33 16.9821 7.33 16.9817C7.33 16.9814 7.33 16.981 7.33 16.9806C7.33 16.9803 7.33 16.9799 7.33 16.9795C7.33 16.9792 7.33 16.9788 7.33 16.9784C7.33 16.9781 7.33 16.9777 7.33 16.9773C7.33 16.977 7.33 16.9766 7.33 16.9762C7.33 16.9759 7.33 16.9755 7.33 16.9752C7.33 16.9748 7.33 16.9744 7.33 16.9741C7.33 16.9737 7.33 16.9733 7.33 16.973C7.33 16.9726 7.33 16.9722 7.33 16.9719C7.33 16.9715 7.33 16.9711 7.33 16.9708C7.33 16.9704 7.33 16.9701 7.33 16.9697C7.33 16.9693 7.33 16.969 7.33 16.9686C7.33 16.9682 7.33 16.9679 7.33 16.9675C7.33 16.9671 7.33 16.9668 7.33 16.9664C7.33 16.966 7.33 16.9657 7.33 16.9653C7.33 16.9649 7.33 16.9646 7.33 16.9642C7.33 16.9639 7.33 16.9635 7.33 16.9631C7.33 16.9628 7.33 16.9624 7.33 16.962C7.33 16.9617 7.33 16.9613 7.33 16.9609C7.33 16.9606 7.33 16.9602 7.33 16.9598C7.33 16.9595 7.33 16.9591 7.33 16.9587C7.33 16.9584 7.33 16.958 7.33 16.9577C7.33 16.9573 7.33 16.9569 7.33 16.9566C7.33 16.9562 7.33 16.9558 7.33 16.9555C7.33 16.9551 7.33 16.9547 7.33 16.9544C7.33 16.954 7.33 16.9536 7.33 16.9533C7.33 16.9529 7.33 16.9526 7.33 16.9522C7.33 16.9518 7.33 16.9515 7.33 16.9511C7.33 16.9507 7.33 16.9504 7.33 16.95C7.33 16.9496 7.33 16.9493 7.33 16.9489C7.33 16.9485 7.33 16.9482 7.33 16.9478C7.33 16.9474 7.33 16.9471 7.33 16.9467C7.33 16.9464 7.33 16.946 7.33 16.9456C7.33 16.9453 7.33 16.9449 7.33 16.9445C7.33 16.9442 7.33 16.9438 7.33 16.9434C7.33 16.9431 7.33 16.9427 7.33 16.9423C7.33 16.942 7.33 16.9416 7.33 16.9412C7.33 16.9409 7.33 16.9405 7.33 16.9402C7.33 16.9398 7.33 16.9394 7.33 16.9391C7.33 16.9387 7.33 16.9383 7.33 16.938C7.33 16.9376 7.33 16.9372 7.33 16.9369C7.33 16.9365 7.33 16.9361 7.33 16.9358C7.33 16.9354 7.33 16.9351 7.33 16.9347C7.33 16.9343 7.33 16.934 7.33 16.9336C7.33 16.9332 7.33 16.9329 7.33 16.9325C7.33 16.9321 7.33 16.9318 7.33 16.9314C7.33 16.931 7.33 16.9307 7.33 16.9303C7.33 16.9299 7.33 16.9296 7.33 16.9292C7.33 16.9289 7.33 16.9285 7.33 16.9281C7.33 16.9278 7.33 16.9274 7.33 16.927C7.33 16.9267 7.33 16.9263 7.33 16.9259C7.33 16.9256 7.33 16.9252 7.33 16.9248C7.33 16.9245 7.33 16.9241 7.33 16.9237C7.33 16.9234 7.33 16.923 7.33 16.9227C7.33 16.9223 7.33 16.9219 7.33 16.9216C7.33 16.9212 7.33 16.9208 7.33 16.9205C7.33 16.9201 7.33 16.9197 7.33 16.9194C7.33 16.919 7.33 16.9186 7.33 16.9183C7.33 16.9179 7.33 16.9176 7.33 16.9172C7.33 16.9168 7.33 16.9165 7.33 16.9161C7.33 16.9157 7.33 16.9154 7.33 16.915C7.33 16.9146 7.33 16.9143 7.33 16.9139C7.33 16.9135 7.33 16.9132 7.33 16.9128C7.33 16.9124 7.33 16.9121 7.33 16.9117C7.33 16.9114 7.33 16.911 7.33 16.9106C7.33 16.9103 7.33 16.9099 7.33 16.9095C7.33 16.9092 7.33 16.9088 7.33 16.9084C7.33 16.9081 7.33 16.9077 7.33 16.9073C7.33 16.907 7.33 16.9066 7.33 16.9062C7.33 16.9059 7.33 16.9055 7.33 16.9052C7.33 16.9048 7.33 16.9044 7.33 16.9041C7.33 16.9037 7.33 16.9033 7.33 16.903C7.33 16.9026 7.33 16.9022 7.33 16.9019C7.33 16.9015 7.33 16.9011 7.33 16.9008C7.33 16.9004 7.33 16.9001 7.33 16.8997C7.33 16.8993 7.33 16.899 7.33 16.8986C7.33 16.8982 7.33 16.8979 7.33 16.8975C7.33 16.8971 7.33 16.8968 7.33 16.8964C7.33 16.896 7.33 16.8957 7.33 16.8953C7.33 16.8949 7.33 16.8946 7.33 16.8942C7.33 16.8939 7.33 16.8935 7.33 16.8931C7.33 16.8928 7.33 16.8924 7.33 16.892C7.33 16.8917 7.33 16.8913 7.33 16.8909C7.33 16.8906 7.33 16.8902 7.33 16.8898C7.33 16.8895 7.33 16.8891 7.33 16.8888C7.33 16.8884 7.33 16.888 7.33 16.8877C7.33 16.8873 7.33 16.8869 7.33 16.8866C7.33 16.8862 7.33 16.8858 7.33 16.8855C7.33 16.8851 7.33 16.8847 7.33 16.8844C7.33 16.884 7.33 16.8836 7.33 16.8833C7.33 16.8829 7.33 16.8826 7.33 16.8822C7.33 16.8818 7.33 16.8815 7.33 16.8811C7.33 16.8807 7.33 16.8804 7.33 16.88C7.33 16.8796 7.33 16.8793 7.33 16.8789C7.33 16.8785 7.33 16.8782 7.33 16.8778C7.33 16.8774 7.33 16.8771 7.33 16.8767C7.33 16.8764 7.33 16.876 7.33 16.8756C7.33 16.8753 7.33 16.8749 7.33 16.8745C7.33 16.8742 7.33 16.8738 7.33 16.8734C7.33 16.8731 7.33 16.8727 7.33 16.8723C7.33 16.872 7.33 16.8716 7.33 16.8713C7.33 16.8709 7.33 16.8705 7.33 16.8702C7.33 16.8698 7.33 16.8694 7.33 16.8691C7.33 16.8687 7.33 16.8683 7.33 16.868C7.33 16.8676 7.33 16.8672 7.33 16.8669C7.33 16.8665 7.33 16.8661 7.33 16.8658C7.33 16.8654 7.33 16.8651 7.33 16.8647C7.33 16.8643 7.33 16.864 7.33 16.8636C7.33 16.8632 7.33 16.8629 7.33 16.8625C7.33 16.8621 7.33 16.8618 7.33 16.8614C7.33 16.861 7.33 16.8607 7.33 16.8603C7.33 16.8599 7.33 16.8596 7.33 16.8592C7.33 16.8589 7.33 16.8585 7.33 16.8581C7.33 16.8578 7.33 16.8574 7.33 16.857C7.33 16.8567 7.33 16.8563 7.33 16.8559C7.33 16.8556 7.33 16.8552 7.33 16.8548C7.33 16.8545 7.33 16.8541 7.33 16.8538C7.33 16.8534 7.33 16.853 7.33 16.8527C7.33 16.8523 7.33 16.8519 7.33 16.8516C7.33 16.8512 7.33 16.8508 7.33 16.8505C7.33 16.8501 7.33 16.8497 7.33 16.8494C7.33 16.849 7.33 16.8486 7.33 16.8483C7.33 16.8479 7.33 16.8476 7.33 16.8472C7.33 16.8468 7.33 16.8465 7.33 16.8461C7.33 16.8457 7.33 16.8454 7.33 16.845C7.33 16.8446 7.33 16.8443 7.33 16.8439C7.33 16.8435 7.33 16.8432 7.33 16.8428C7.33 16.8424 7.33 16.8421 7.33 16.8417C7.33 16.8414 7.33 16.841 7.33 16.8406C7.33 16.8403 7.33 16.8399 7.33 16.8395C7.33 16.8392 7.33 16.8388 7.33 16.8384C7.33 16.8381 7.33 16.8377 7.33 16.8373C7.33 16.837 7.33 16.8366 7.33 16.8363C7.33 16.8359 7.33 16.8355 7.33 16.8352C7.33 16.8348 7.33 16.8344 7.33 16.8341C7.33 16.8337 7.33 16.8333 7.33 16.833C7.33 16.8326 7.33 16.8322 7.33 16.8319C7.33 16.8315 7.33 16.8311 7.33 16.8308C7.33 16.8304 7.33 16.8301 7.33 16.8297C7.33 16.8293 7.33 16.829 7.33 16.8286C7.33 16.8282 7.33 16.8279 7.33 16.8275C7.33 16.8271 7.33 16.8268 7.33 16.8264C7.33 16.826 7.33 16.8257 7.33 16.8253C7.33 16.8249 7.33 16.8246 7.33 16.8242C7.33 16.8239 7.33 16.8235 7.33 16.8231C7.33 16.8228 7.33 16.8224 7.33 16.822C7.33 16.8217 7.33 16.8213 7.33 16.8209C7.33 16.8206 7.33 16.8202 7.33 16.8198C7.33 16.8195 7.33 16.8191 7.33 16.8188C7.33 16.8184 7.33 16.818 7.33 16.8177C7.33 16.8173 7.33 16.8169 7.33 16.8166C7.33 16.8162 7.33 16.8158 7.33 16.8155C7.33 16.8151 7.33 16.8147 7.33 16.8144C7.33 16.814 7.33 16.8136 7.33 16.8133C7.33 16.8129 7.33 16.8126 7.33 16.8122C7.33 16.8118 7.33 16.8115 7.33 16.8111C7.33 16.8107 7.33 16.8104 7.33 16.81C7.33 16.8096 7.33 16.8093 7.33 16.8089C7.33 16.8085 7.33 16.8082 7.33 16.8078C7.33 16.8074 7.33 16.8071 7.33 16.8067C7.33 16.8064 7.33 16.806 7.33 16.8056C7.33 16.8053 7.33 16.8049 7.33 16.8045C7.33 16.8042 7.33 16.8038 7.33 16.8034C7.33 16.8031 7.33 16.8027 7.33 16.8023C7.33 16.802 7.33 16.8016 7.33 16.8013C7.33 16.8009 7.33 16.8005 7.33 16.8002C7.33 16.7998 7.33 16.7994 7.33 16.7991C7.33 16.7987 7.33 16.7983 7.33 16.798C7.33 16.7976 7.33 16.7972 7.33 16.7969C7.33 16.7965 7.33 16.7961 7.33 16.7958C7.33 16.7954 7.33 16.7951 7.33 16.7947C7.33 16.7943 7.33 16.794 7.33 16.7936C7.33 16.7932 7.33 16.7929 7.33 16.7925C7.33 16.7921 7.33 16.7918 7.33 16.7914C7.33 16.791 7.33 16.7907 7.33 16.7903C7.33 16.7899 7.33 16.7896 7.33 16.7892C7.33 16.7889 7.33 16.7885 7.33 16.7881C7.33 16.7878 7.33 16.7874 7.33 16.787C7.33 16.7867 7.33 16.7863 7.33 16.7859C7.33 16.7856 7.33 16.7852 7.33 16.7848C7.33 16.7845 7.33 16.7841 7.33 16.7838C7.33 16.7834 7.33 16.783 7.33 16.7827C7.33 16.7823 7.33 16.7819 7.33 16.7816C7.33 16.7812 7.33 16.7808 7.33 16.7805C7.33 16.7801 7.33 16.7797 7.33 16.7794C7.33 16.779 7.33 16.7786 7.33 16.7783C7.33 16.7779 7.33 16.7776 7.33 16.7772C7.33 16.7768 7.33 16.7765 7.33 16.7761C7.33 16.7757 7.33 16.7754 7.33 16.775C7.33 16.7746 7.33 16.7743 7.33 16.7739C7.33 16.7735 7.33 16.7732 7.33 16.7728C7.33 16.7724 7.33 16.7721 7.33 16.7717C7.33 16.7714 7.33 16.771 7.33 16.7706C7.33 16.7703 7.33 16.7699 7.33 16.7695C7.33 16.7692 7.33 16.7688 7.33 16.7684C7.33 16.7681 7.33 16.7677 7.33 16.7673C7.33 16.767 7.33 16.7666 7.33 16.7663C7.33 16.7659 7.33 16.7655 7.33 16.7652C7.33 16.7648 7.33 16.7644 7.33 16.7641C7.33 16.7637 7.33 16.7633 7.33 16.763C7.33 16.7626 7.33 16.7622 7.33 16.7619C7.33 16.7615 7.33 16.7611 7.33 16.7608C7.33 16.7604 7.33 16.7601 7.33 16.7597C7.33 16.7593 7.33 16.759 7.33 16.7586C7.33 16.7582 7.33 16.7579 7.33 16.7575C7.33 16.7571 7.33 16.7568 7.33 16.7564C7.33 16.756 7.33 16.7557 7.33 16.7553C7.33 16.7549 7.33 16.7546 7.33 16.7542C7.33 16.7539 7.33 16.7535 7.33 16.7531C7.33 16.7528 7.33 16.7524 7.33 16.752C7.33 16.7517 7.33 16.7513 7.33 16.7509C7.33 16.7506 7.33 16.7502 7.33 16.7498C7.33 16.7495 7.33 16.7491 7.33 16.7487C7.33 16.7484 7.33 16.748 7.33 16.7477C7.33 16.7473 7.33 16.7469 7.33 16.7466C7.33 16.7462 7.33 16.7458 7.33 16.7455C7.33 16.7451 7.33 16.7447 7.33 16.7444C7.33 16.744 7.33 16.7436 7.33 16.7433C7.33 16.7429 7.33 16.7426 7.33 16.7422C7.33 16.7418 7.33 16.7415 7.33 16.7411C7.33 16.7407 7.33 16.7404 7.33 16.74C7.33 16.7396 7.33 16.7393 7.33 16.7389C7.33 16.7385 7.33 16.7382 7.33 16.7378C7.33 16.7374 7.33 16.7371 7.33 16.7367C7.33 16.7364 7.33 16.736 7.33 16.7356C7.33 16.7353 7.33 16.7349 7.33 16.7345C7.33 16.7342 7.33 16.7338 7.33 16.7334C7.33 16.7331 7.33 16.7327 7.33 16.7323C7.33 16.732 7.33 16.7316 7.33 16.7312C7.33 16.7309 7.33 16.7305 7.33 16.7302C7.33 16.7298 7.33 16.7294 7.33 16.7291C7.33 16.7287 7.33 16.7283 7.33 16.728C7.33 16.7276 7.33 16.7272 7.33 16.7269C7.33 16.7265 7.33 16.7261 7.33 16.7258C7.33 16.7254 7.33 16.7251 7.33 16.7247C7.33 16.7243 7.33 16.724 7.33 16.7236C7.33 16.7232 7.33 16.7229 7.33 16.7225C7.33 16.7221 7.33 16.7218 7.33 16.7214C7.33 16.721 7.33 16.7207 7.33 16.7203C7.33 16.7199 7.33 16.7196 7.33 16.7192C7.33 16.7189 7.33 16.7185 7.33 16.7181C7.33 16.7178 7.33 16.7174 7.33 16.717C7.33 16.7167 7.33 16.7163 7.33 16.7159C7.33 16.7156 7.33 16.7152 7.33 16.7148C7.33 16.7145 7.33 16.7141 7.33 16.7137C7.33 16.7134 7.33 16.713 7.33 16.7127C7.33 16.7123 7.33 16.7119 7.33 16.7116C7.33 16.7112 7.33 16.7108 7.33 16.7105C7.33 16.7101 7.33 16.7097 7.33 16.7094C7.33 16.709 7.33 16.7086 7.33 16.7083C7.33 16.7079 7.33 16.7076 7.33 16.7072C7.33 16.7068 7.33 16.7065 7.33 16.7061C7.33 16.7057 7.33 16.7054 7.33 16.705C7.33 16.7046 7.33 16.7043 7.33 16.7039C7.33 16.7035 7.33 16.7032 7.33 16.7028C7.33 16.7024 7.33 16.7021 7.33 16.7017C7.33 16.7014 7.33 16.701 7.33 16.7006C7.33 16.7003 7.33 16.6999 7.33 16.6995C7.33 16.6992 7.33 16.6988 7.33 16.6984C7.33 16.6981 7.33 16.6977 7.33 16.6973C7.33 16.697 7.33 16.6966 7.33 16.6962C7.33 16.6959 7.33 16.6955 7.33 16.6952C7.33 16.6948 7.33 16.6944 7.33 16.6941C7.33 16.6937 7.33 16.6933 7.33 16.693C7.33 16.6926 7.33 16.6922 7.33 16.6919C7.33 16.6915 7.33 16.6911 7.33 16.6908C7.33 16.6904 7.33 16.6901 7.33 16.6897C7.33 16.6893 7.33 16.689 7.33 16.6886C7.33 16.6882 7.33 16.6879 7.33 16.6875C7.33 16.6871 7.33 16.6868 7.33 16.6864C7.33 16.686 7.33 16.6857 7.33 16.6853C7.33 16.6849 7.33 16.6846 7.33 16.6842C7.33 16.6839 7.33 16.6835 7.33 16.6831C7.33 16.6828 7.33 16.6824 7.33 16.682C7.33 16.6817 7.33 16.6813 7.33 16.6809C7.33 16.6806 7.33 16.6802 7.33 16.6798C7.33 16.6795 7.33 16.6791 7.33 16.6787C7.33 16.6784 7.33 16.678 7.33 16.6777C7.33 16.6773 7.33 16.6769 7.33 16.6766C7.33 16.6762 7.33 16.6758 7.33 16.6755C7.33 16.6751 7.33 16.6747 7.33 16.6744C7.33 16.674 7.33 16.6736 7.33 16.6733C7.33 16.6729 7.33 16.6726 7.33 16.6722C7.33 16.6718 7.33 16.6715 7.33 16.6711C7.33 16.6707 7.33 16.6704 7.33 16.67C7.33 16.6696 7.33 16.6693 7.33 16.6689C7.33 16.6685 7.33 16.6682 7.33 16.6678C7.33 16.6674 7.33 16.6671 7.33 16.6667C7.33 16.6664 7.33 16.666 7.33 16.6656C7.33 16.6653 7.33 16.6649 7.33 16.6645C7.33 16.6642 7.33 16.6638 7.33 16.6634C7.33 16.6631 7.33 16.6627 7.33 16.6623C7.33 16.662 7.33 16.6616 7.33 16.6612C7.33 16.6609 7.33 16.6605 7.33 16.6602C7.33 16.6598 7.33 16.6594 7.33 16.6591C7.33 16.6587 7.33 16.6583 7.33 16.658C7.33 16.6576 7.33 16.6572 7.33 16.6569C7.33 16.6565 7.33 16.6561 7.33 16.6558C7.33 16.6554 7.33 16.6551 7.33 16.6547C7.33 16.6543 7.33 16.654 7.33 16.6536C7.33 16.6532 7.33 16.6529 7.33 16.6525C7.33 16.6521 7.33 16.6518 7.33 16.6514C7.33 16.651 7.33 16.6507 7.33 16.6503C7.33 16.6499 7.33 16.6496 7.33 16.6492C7.33 16.6489 7.33 16.6485 7.33 16.6481C7.33 16.6478 7.33 16.6474 7.33 16.647C7.33 16.6467 7.33 16.6463 7.33 16.6459C7.33 16.6456 7.33 16.6452 7.33 16.6448C7.33 16.6445 7.33 16.6441 7.33 16.6437C7.33 16.6434 7.33 16.643 7.33 16.6427C7.33 16.6423 7.33 16.6419 7.33 16.6416C7.33 16.6412 7.33 16.6408 7.33 16.6405C7.33 16.6401 7.33 16.6397 7.33 16.6394C7.33 16.639 7.33 16.6386 7.33 16.6383C7.33 16.6379 7.33 16.6376 7.33 16.6372C7.33 16.6368 7.33 16.6365 7.33 16.6361C7.33 16.6357 7.33 16.6354 7.33 16.635C7.33 16.6346 7.33 16.6343 7.33 16.6339C7.33 16.6335 7.33 16.6332 7.33 16.6328C7.33 16.6324 7.33 16.6321 7.33 16.6317C7.33 16.6314 7.33 16.631 7.33 16.6306C7.33 16.6303 7.33 16.6299 7.33 16.6295C7.33 16.6292 7.33 16.6288 7.33 16.6284C7.33 16.6281 7.33 16.6277 7.33 16.6273C7.33 16.627 7.33 16.6266 7.33 16.6262C7.33 16.6259 7.33 16.6255 7.33 16.6252C7.33 16.6248 7.33 16.6244 7.33 16.6241C7.33 16.6237 7.33 16.6233 7.33 16.623C7.33 16.6226 7.33 16.6222 7.33 16.6219C7.33 16.6215 7.33 16.6211 7.33 16.6208C7.33 16.6204 7.33 16.6201 7.33 16.6197C7.33 16.6193 7.33 16.619 7.33 16.6186C7.33 16.6182 7.33 16.6179 7.33 16.6175C7.33 16.6171 7.33 16.6168 7.33 16.6164C7.33 16.616 7.33 16.6157 7.33 16.6153C7.33 16.6149 7.33 16.6146 7.33 16.6142C7.33 16.6139 7.33 16.6135 7.33 16.6131C7.33 16.6128 7.33 16.6124 7.33 16.612C7.33 16.6117 7.33 16.6113 7.33 16.6109C7.33 16.6106 7.33 16.6102 7.33 16.6098C7.33 16.6095 7.33 16.6091 7.33 16.6087C7.33 16.6084 7.33 16.608 7.33 16.6077C7.33 16.6073 7.33 16.6069 7.33 16.6066C7.33 16.6062 7.33 16.6058 7.33 16.6055C7.33 16.6051 7.33 16.6047 7.33 16.6044C7.33 16.604 7.33 16.6036 7.33 16.6033C7.33 16.6029 7.33 16.6026 7.33 16.6022C7.33 16.6018 7.33 16.6015 7.33 16.6011C7.33 16.6007 7.33 16.6004 7.33 16.6H5.93C5.93 16.6004 5.93 16.6007 5.93 16.6011C5.93 16.6015 5.93 16.6018 5.93 16.6022C5.93 16.6026 5.93 16.6029 5.93 16.6033C5.93 16.6036 5.93 16.604 5.93 16.6044C5.93 16.6047 5.93 16.6051 5.93 16.6055C5.93 16.6058 5.93 16.6062 5.93 16.6066C5.93 16.6069 5.93 16.6073 5.93 16.6077C5.93 16.608 5.93 16.6084 5.93 16.6087C5.93 16.6091 5.93 16.6095 5.93 16.6098C5.93 16.6102 5.93 16.6106 5.93 16.6109C5.93 16.6113 5.93 16.6117 5.93 16.612C5.93 16.6124 5.93 16.6128 5.93 16.6131C5.93 16.6135 5.93 16.6139 5.93 16.6142C5.93 16.6146 5.93 16.6149 5.93 16.6153C5.93 16.6157 5.93 16.616 5.93 16.6164C5.93 16.6168 5.93 16.6171 5.93 16.6175C5.93 16.6179 5.93 16.6182 5.93 16.6186C5.93 16.619 5.93 16.6193 5.93 16.6197C5.93 16.6201 5.93 16.6204 5.93 16.6208C5.93 16.6211 5.93 16.6215 5.93 16.6219C5.93 16.6222 5.93 16.6226 5.93 16.623C5.93 16.6233 5.93 16.6237 5.93 16.6241C5.93 16.6244 5.93 16.6248 5.93 16.6252C5.93 16.6255 5.93 16.6259 5.93 16.6262C5.93 16.6266 5.93 16.627 5.93 16.6273C5.93 16.6277 5.93 16.6281 5.93 16.6284C5.93 16.6288 5.93 16.6292 5.93 16.6295C5.93 16.6299 5.93 16.6303 5.93 16.6306C5.93 16.631 5.93 16.6314 5.93 16.6317C5.93 16.6321 5.93 16.6324 5.93 16.6328C5.93 16.6332 5.93 16.6335 5.93 16.6339C5.93 16.6343 5.93 16.6346 5.93 16.635C5.93 16.6354 5.93 16.6357 5.93 16.6361C5.93 16.6365 5.93 16.6368 5.93 16.6372C5.93 16.6376 5.93 16.6379 5.93 16.6383C5.93 16.6386 5.93 16.639 5.93 16.6394C5.93 16.6397 5.93 16.6401 5.93 16.6405C5.93 16.6408 5.93 16.6412 5.93 16.6416C5.93 16.6419 5.93 16.6423 5.93 16.6427C5.93 16.643 5.93 16.6434 5.93 16.6437C5.93 16.6441 5.93 16.6445 5.93 16.6448C5.93 16.6452 5.93 16.6456 5.93 16.6459C5.93 16.6463 5.93 16.6467 5.93 16.647C5.93 16.6474 5.93 16.6478 5.93 16.6481C5.93 16.6485 5.93 16.6489 5.93 16.6492C5.93 16.6496 5.93 16.6499 5.93 16.6503C5.93 16.6507 5.93 16.651 5.93 16.6514C5.93 16.6518 5.93 16.6521 5.93 16.6525C5.93 16.6529 5.93 16.6532 5.93 16.6536C5.93 16.654 5.93 16.6543 5.93 16.6547C5.93 16.6551 5.93 16.6554 5.93 16.6558C5.93 16.6561 5.93 16.6565 5.93 16.6569C5.93 16.6572 5.93 16.6576 5.93 16.658C5.93 16.6583 5.93 16.6587 5.93 16.6591C5.93 16.6594 5.93 16.6598 5.93 16.6602C5.93 16.6605 5.93 16.6609 5.93 16.6612C5.93 16.6616 5.93 16.662 5.93 16.6623C5.93 16.6627 5.93 16.6631 5.93 16.6634C5.93 16.6638 5.93 16.6642 5.93 16.6645C5.93 16.6649 5.93 16.6653 5.93 16.6656C5.93 16.666 5.93 16.6664 5.93 16.6667C5.93 16.6671 5.93 16.6674 5.93 16.6678C5.93 16.6682 5.93 16.6685 5.93 16.6689C5.93 16.6693 5.93 16.6696 5.93 16.67C5.93 16.6704 5.93 16.6707 5.93 16.6711C5.93 16.6715 5.93 16.6718 5.93 16.6722C5.93 16.6726 5.93 16.6729 5.93 16.6733C5.93 16.6736 5.93 16.674 5.93 16.6744C5.93 16.6747 5.93 16.6751 5.93 16.6755C5.93 16.6758 5.93 16.6762 5.93 16.6766C5.93 16.6769 5.93 16.6773 5.93 16.6777C5.93 16.678 5.93 16.6784 5.93 16.6787C5.93 16.6791 5.93 16.6795 5.93 16.6798C5.93 16.6802 5.93 16.6806 5.93 16.6809C5.93 16.6813 5.93 16.6817 5.93 16.682C5.93 16.6824 5.93 16.6828 5.93 16.6831C5.93 16.6835 5.93 16.6839 5.93 16.6842C5.93 16.6846 5.93 16.6849 5.93 16.6853C5.93 16.6857 5.93 16.686 5.93 16.6864C5.93 16.6868 5.93 16.6871 5.93 16.6875C5.93 16.6879 5.93 16.6882 5.93 16.6886C5.93 16.689 5.93 16.6893 5.93 16.6897C5.93 16.6901 5.93 16.6904 5.93 16.6908C5.93 16.6911 5.93 16.6915 5.93 16.6919C5.93 16.6922 5.93 16.6926 5.93 16.693C5.93 16.6933 5.93 16.6937 5.93 16.6941C5.93 16.6944 5.93 16.6948 5.93 16.6952C5.93 16.6955 5.93 16.6959 5.93 16.6962C5.93 16.6966 5.93 16.697 5.93 16.6973C5.93 16.6977 5.93 16.6981 5.93 16.6984C5.93 16.6988 5.93 16.6992 5.93 16.6995C5.93 16.6999 5.93 16.7003 5.93 16.7006C5.93 16.701 5.93 16.7014 5.93 16.7017C5.93 16.7021 5.93 16.7024 5.93 16.7028C5.93 16.7032 5.93 16.7035 5.93 16.7039C5.93 16.7043 5.93 16.7046 5.93 16.705C5.93 16.7054 5.93 16.7057 5.93 16.7061C5.93 16.7065 5.93 16.7068 5.93 16.7072C5.93 16.7076 5.93 16.7079 5.93 16.7083C5.93 16.7086 5.93 16.709 5.93 16.7094C5.93 16.7097 5.93 16.7101 5.93 16.7105C5.93 16.7108 5.93 16.7112 5.93 16.7116C5.93 16.7119 5.93 16.7123 5.93 16.7127C5.93 16.713 5.93 16.7134 5.93 16.7137C5.93 16.7141 5.93 16.7145 5.93 16.7148C5.93 16.7152 5.93 16.7156 5.93 16.7159C5.93 16.7163 5.93 16.7167 5.93 16.717C5.93 16.7174 5.93 16.7178 5.93 16.7181C5.93 16.7185 5.93 16.7189 5.93 16.7192C5.93 16.7196 5.93 16.7199 5.93 16.7203C5.93 16.7207 5.93 16.721 5.93 16.7214C5.93 16.7218 5.93 16.7221 5.93 16.7225C5.93 16.7229 5.93 16.7232 5.93 16.7236C5.93 16.724 5.93 16.7243 5.93 16.7247C5.93 16.7251 5.93 16.7254 5.93 16.7258C5.93 16.7261 5.93 16.7265 5.93 16.7269C5.93 16.7272 5.93 16.7276 5.93 16.728C5.93 16.7283 5.93 16.7287 5.93 16.7291C5.93 16.7294 5.93 16.7298 5.93 16.7302C5.93 16.7305 5.93 16.7309 5.93 16.7312C5.93 16.7316 5.93 16.732 5.93 16.7323C5.93 16.7327 5.93 16.7331 5.93 16.7334C5.93 16.7338 5.93 16.7342 5.93 16.7345C5.93 16.7349 5.93 16.7353 5.93 16.7356C5.93 16.736 5.93 16.7364 5.93 16.7367C5.93 16.7371 5.93 16.7374 5.93 16.7378C5.93 16.7382 5.93 16.7385 5.93 16.7389C5.93 16.7393 5.93 16.7396 5.93 16.74C5.93 16.7404 5.93 16.7407 5.93 16.7411C5.93 16.7415 5.93 16.7418 5.93 16.7422C5.93 16.7426 5.93 16.7429 5.93 16.7433C5.93 16.7436 5.93 16.744 5.93 16.7444C5.93 16.7447 5.93 16.7451 5.93 16.7455C5.93 16.7458 5.93 16.7462 5.93 16.7466C5.93 16.7469 5.93 16.7473 5.93 16.7477C5.93 16.748 5.93 16.7484 5.93 16.7487C5.93 16.7491 5.93 16.7495 5.93 16.7498C5.93 16.7502 5.93 16.7506 5.93 16.7509C5.93 16.7513 5.93 16.7517 5.93 16.752C5.93 16.7524 5.93 16.7528 5.93 16.7531C5.93 16.7535 5.93 16.7539 5.93 16.7542C5.93 16.7546 5.93 16.7549 5.93 16.7553C5.93 16.7557 5.93 16.756 5.93 16.7564C5.93 16.7568 5.93 16.7571 5.93 16.7575C5.93 16.7579 5.93 16.7582 5.93 16.7586C5.93 16.759 5.93 16.7593 5.93 16.7597C5.93 16.7601 5.93 16.7604 5.93 16.7608C5.93 16.7611 5.93 16.7615 5.93 16.7619C5.93 16.7622 5.93 16.7626 5.93 16.763C5.93 16.7633 5.93 16.7637 5.93 16.7641C5.93 16.7644 5.93 16.7648 5.93 16.7652C5.93 16.7655 5.93 16.7659 5.93 16.7663C5.93 16.7666 5.93 16.767 5.93 16.7673C5.93 16.7677 5.93 16.7681 5.93 16.7684C5.93 16.7688 5.93 16.7692 5.93 16.7695C5.93 16.7699 5.93 16.7703 5.93 16.7706C5.93 16.771 5.93 16.7714 5.93 16.7717C5.93 16.7721 5.93 16.7724 5.93 16.7728C5.93 16.7732 5.93 16.7735 5.93 16.7739C5.93 16.7743 5.93 16.7746 5.93 16.775C5.93 16.7754 5.93 16.7757 5.93 16.7761C5.93 16.7765 5.93 16.7768 5.93 16.7772C5.93 16.7776 5.93 16.7779 5.93 16.7783C5.93 16.7786 5.93 16.779 5.93 16.7794C5.93 16.7797 5.93 16.7801 5.93 16.7805C5.93 16.7808 5.93 16.7812 5.93 16.7816C5.93 16.7819 5.93 16.7823 5.93 16.7827C5.93 16.783 5.93 16.7834 5.93 16.7838C5.93 16.7841 5.93 16.7845 5.93 16.7848C5.93 16.7852 5.93 16.7856 5.93 16.7859C5.93 16.7863 5.93 16.7867 5.93 16.787C5.93 16.7874 5.93 16.7878 5.93 16.7881C5.93 16.7885 5.93 16.7889 5.93 16.7892C5.93 16.7896 5.93 16.7899 5.93 16.7903C5.93 16.7907 5.93 16.791 5.93 16.7914C5.93 16.7918 5.93 16.7921 5.93 16.7925C5.93 16.7929 5.93 16.7932 5.93 16.7936C5.93 16.794 5.93 16.7943 5.93 16.7947C5.93 16.7951 5.93 16.7954 5.93 16.7958C5.93 16.7961 5.93 16.7965 5.93 16.7969C5.93 16.7972 5.93 16.7976 5.93 16.798C5.93 16.7983 5.93 16.7987 5.93 16.7991C5.93 16.7994 5.93 16.7998 5.93 16.8002C5.93 16.8005 5.93 16.8009 5.93 16.8013C5.93 16.8016 5.93 16.802 5.93 16.8023C5.93 16.8027 5.93 16.8031 5.93 16.8034C5.93 16.8038 5.93 16.8042 5.93 16.8045C5.93 16.8049 5.93 16.8053 5.93 16.8056C5.93 16.806 5.93 16.8064 5.93 16.8067C5.93 16.8071 5.93 16.8074 5.93 16.8078C5.93 16.8082 5.93 16.8085 5.93 16.8089C5.93 16.8093 5.93 16.8096 5.93 16.81C5.93 16.8104 5.93 16.8107 5.93 16.8111C5.93 16.8115 5.93 16.8118 5.93 16.8122C5.93 16.8126 5.93 16.8129 5.93 16.8133C5.93 16.8136 5.93 16.814 5.93 16.8144C5.93 16.8147 5.93 16.8151 5.93 16.8155C5.93 16.8158 5.93 16.8162 5.93 16.8166C5.93 16.8169 5.93 16.8173 5.93 16.8177C5.93 16.818 5.93 16.8184 5.93 16.8188C5.93 16.8191 5.93 16.8195 5.93 16.8198C5.93 16.8202 5.93 16.8206 5.93 16.8209C5.93 16.8213 5.93 16.8217 5.93 16.822C5.93 16.8224 5.93 16.8228 5.93 16.8231C5.93 16.8235 5.93 16.8239 5.93 16.8242C5.93 16.8246 5.93 16.8249 5.93 16.8253C5.93 16.8257 5.93 16.826 5.93 16.8264C5.93 16.8268 5.93 16.8271 5.93 16.8275C5.93 16.8279 5.93 16.8282 5.93 16.8286C5.93 16.829 5.93 16.8293 5.93 16.8297C5.93 16.8301 5.93 16.8304 5.93 16.8308C5.93 16.8311 5.93 16.8315 5.93 16.8319C5.93 16.8322 5.93 16.8326 5.93 16.833C5.93 16.8333 5.93 16.8337 5.93 16.8341C5.93 16.8344 5.93 16.8348 5.93 16.8352C5.93 16.8355 5.93 16.8359 5.93 16.8363C5.93 16.8366 5.93 16.837 5.93 16.8373C5.93 16.8377 5.93 16.8381 5.93 16.8384C5.93 16.8388 5.93 16.8392 5.93 16.8395C5.93 16.8399 5.93 16.8403 5.93 16.8406C5.93 16.841 5.93 16.8414 5.93 16.8417C5.93 16.8421 5.93 16.8424 5.93 16.8428C5.93 16.8432 5.93 16.8435 5.93 16.8439C5.93 16.8443 5.93 16.8446 5.93 16.845C5.93 16.8454 5.93 16.8457 5.93 16.8461C5.93 16.8465 5.93 16.8468 5.93 16.8472C5.93 16.8476 5.93 16.8479 5.93 16.8483C5.93 16.8486 5.93 16.849 5.93 16.8494C5.93 16.8497 5.93 16.8501 5.93 16.8505C5.93 16.8508 5.93 16.8512 5.93 16.8516C5.93 16.8519 5.93 16.8523 5.93 16.8527C5.93 16.853 5.93 16.8534 5.93 16.8538C5.93 16.8541 5.93 16.8545 5.93 16.8548C5.93 16.8552 5.93 16.8556 5.93 16.8559C5.93 16.8563 5.93 16.8567 5.93 16.857C5.93 16.8574 5.93 16.8578 5.93 16.8581C5.93 16.8585 5.93 16.8589 5.93 16.8592C5.93 16.8596 5.93 16.8599 5.93 16.8603C5.93 16.8607 5.93 16.861 5.93 16.8614C5.93 16.8618 5.93 16.8621 5.93 16.8625C5.93 16.8629 5.93 16.8632 5.93 16.8636C5.93 16.864 5.93 16.8643 5.93 16.8647C5.93 16.8651 5.93 16.8654 5.93 16.8658C5.93 16.8661 5.93 16.8665 5.93 16.8669C5.93 16.8672 5.93 16.8676 5.93 16.868C5.93 16.8683 5.93 16.8687 5.93 16.8691C5.93 16.8694 5.93 16.8698 5.93 16.8702C5.93 16.8705 5.93 16.8709 5.93 16.8713C5.93 16.8716 5.93 16.872 5.93 16.8723C5.93 16.8727 5.93 16.8731 5.93 16.8734C5.93 16.8738 5.93 16.8742 5.93 16.8745C5.93 16.8749 5.93 16.8753 5.93 16.8756C5.93 16.876 5.93 16.8764 5.93 16.8767C5.93 16.8771 5.93 16.8774 5.93 16.8778C5.93 16.8782 5.93 16.8785 5.93 16.8789C5.93 16.8793 5.93 16.8796 5.93 16.88C5.93 16.8804 5.93 16.8807 5.93 16.8811C5.93 16.8815 5.93 16.8818 5.93 16.8822C5.93 16.8826 5.93 16.8829 5.93 16.8833C5.93 16.8836 5.93 16.884 5.93 16.8844C5.93 16.8847 5.93 16.8851 5.93 16.8855C5.93 16.8858 5.93 16.8862 5.93 16.8866C5.93 16.8869 5.93 16.8873 5.93 16.8877C5.93 16.888 5.93 16.8884 5.93 16.8888C5.93 16.8891 5.93 16.8895 5.93 16.8898C5.93 16.8902 5.93 16.8906 5.93 16.8909C5.93 16.8913 5.93 16.8917 5.93 16.892C5.93 16.8924 5.93 16.8928 5.93 16.8931C5.93 16.8935 5.93 16.8939 5.93 16.8942C5.93 16.8946 5.93 16.8949 5.93 16.8953C5.93 16.8957 5.93 16.896 5.93 16.8964C5.93 16.8968 5.93 16.8971 5.93 16.8975C5.93 16.8979 5.93 16.8982 5.93 16.8986C5.93 16.899 5.93 16.8993 5.93 16.8997C5.93 16.9001 5.93 16.9004 5.93 16.9008C5.93 16.9011 5.93 16.9015 5.93 16.9019C5.93 16.9022 5.93 16.9026 5.93 16.903C5.93 16.9033 5.93 16.9037 5.93 16.9041C5.93 16.9044 5.93 16.9048 5.93 16.9052C5.93 16.9055 5.93 16.9059 5.93 16.9062C5.93 16.9066 5.93 16.907 5.93 16.9073C5.93 16.9077 5.93 16.9081 5.93 16.9084C5.93 16.9088 5.93 16.9092 5.93 16.9095C5.93 16.9099 5.93 16.9103 5.93 16.9106C5.93 16.911 5.93 16.9114 5.93 16.9117C5.93 16.9121 5.93 16.9124 5.93 16.9128C5.93 16.9132 5.93 16.9135 5.93 16.9139C5.93 16.9143 5.93 16.9146 5.93 16.915C5.93 16.9154 5.93 16.9157 5.93 16.9161C5.93 16.9165 5.93 16.9168 5.93 16.9172C5.93 16.9176 5.93 16.9179 5.93 16.9183C5.93 16.9186 5.93 16.919 5.93 16.9194C5.93 16.9197 5.93 16.9201 5.93 16.9205C5.93 16.9208 5.93 16.9212 5.93 16.9216C5.93 16.9219 5.93 16.9223 5.93 16.9227C5.93 16.923 5.93 16.9234 5.93 16.9237C5.93 16.9241 5.93 16.9245 5.93 16.9248C5.93 16.9252 5.93 16.9256 5.93 16.9259C5.93 16.9263 5.93 16.9267 5.93 16.927C5.93 16.9274 5.93 16.9278 5.93 16.9281C5.93 16.9285 5.93 16.9289 5.93 16.9292C5.93 16.9296 5.93 16.9299 5.93 16.9303C5.93 16.9307 5.93 16.931 5.93 16.9314C5.93 16.9318 5.93 16.9321 5.93 16.9325C5.93 16.9329 5.93 16.9332 5.93 16.9336C5.93 16.934 5.93 16.9343 5.93 16.9347C5.93 16.9351 5.93 16.9354 5.93 16.9358C5.93 16.9361 5.93 16.9365 5.93 16.9369C5.93 16.9372 5.93 16.9376 5.93 16.938C5.93 16.9383 5.93 16.9387 5.93 16.9391C5.93 16.9394 5.93 16.9398 5.93 16.9402C5.93 16.9405 5.93 16.9409 5.93 16.9412C5.93 16.9416 5.93 16.942 5.93 16.9423C5.93 16.9427 5.93 16.9431 5.93 16.9434C5.93 16.9438 5.93 16.9442 5.93 16.9445C5.93 16.9449 5.93 16.9453 5.93 16.9456C5.93 16.946 5.93 16.9464 5.93 16.9467C5.93 16.9471 5.93 16.9474 5.93 16.9478C5.93 16.9482 5.93 16.9485 5.93 16.9489C5.93 16.9493 5.93 16.9496 5.93 16.95C5.93 16.9504 5.93 16.9507 5.93 16.9511C5.93 16.9515 5.93 16.9518 5.93 16.9522C5.93 16.9526 5.93 16.9529 5.93 16.9533C5.93 16.9536 5.93 16.954 5.93 16.9544C5.93 16.9547 5.93 16.9551 5.93 16.9555C5.93 16.9558 5.93 16.9562 5.93 16.9566C5.93 16.9569 5.93 16.9573 5.93 16.9577C5.93 16.958 5.93 16.9584 5.93 16.9587C5.93 16.9591 5.93 16.9595 5.93 16.9598C5.93 16.9602 5.93 16.9606 5.93 16.9609C5.93 16.9613 5.93 16.9617 5.93 16.962C5.93 16.9624 5.93 16.9628 5.93 16.9631C5.93 16.9635 5.93 16.9639 5.93 16.9642C5.93 16.9646 5.93 16.9649 5.93 16.9653C5.93 16.9657 5.93 16.966 5.93 16.9664C5.93 16.9668 5.93 16.9671 5.93 16.9675C5.93 16.9679 5.93 16.9682 5.93 16.9686C5.93 16.969 5.93 16.9693 5.93 16.9697C5.93 16.9701 5.93 16.9704 5.93 16.9708C5.93 16.9711 5.93 16.9715 5.93 16.9719C5.93 16.9722 5.93 16.9726 5.93 16.973C5.93 16.9733 5.93 16.9737 5.93 16.9741C5.93 16.9744 5.93 16.9748 5.93 16.9752C5.93 16.9755 5.93 16.9759 5.93 16.9762C5.93 16.9766 5.93 16.977 5.93 16.9773C5.93 16.9777 5.93 16.9781 5.93 16.9784C5.93 16.9788 5.93 16.9792 5.93 16.9795C5.93 16.9799 5.93 16.9803 5.93 16.9806C5.93 16.981 5.93 16.9814 5.93 16.9817C5.93 16.9821 5.93 16.9824 5.93 16.9828C5.93 16.9832 5.93 16.9835 5.93 16.9839C5.93 16.9843 5.93 16.9846 5.93 16.985C5.93 16.9854 5.93 16.9857 5.93 16.9861C5.93 16.9865 5.93 16.9868 5.93 16.9872C5.93 16.9876 5.93 16.9879 5.93 16.9883C5.93 16.9886 5.93 16.989 5.93 16.9894C5.93 16.9897 5.93 16.9901 5.93 16.9905C5.93 16.9908 5.93 16.9912 5.93 16.9916C5.93 16.9919 5.93 16.9923 5.93 16.9927C5.93 16.993 5.93 16.9934 5.93 16.9937C5.93 16.9941 5.93 16.9945 5.93 16.9948C5.93 16.9952 5.93 16.9956 5.93 16.9959C5.93 16.9963 5.93 16.9967 5.93 16.997C5.93 16.9974 5.93 16.9978 5.93 16.9981C5.93 16.9985 5.93 16.9989 5.93 16.9992C5.93 16.9996 5.93 16.9999 5.93 17.0003C5.93 17.0007 5.93 17.001 5.93 17.0014C5.93 17.0018 5.93 17.0021 5.93 17.0025C5.93 17.0029 5.93 17.0032 5.93 17.0036C5.93 17.004 5.93 17.0043 5.93 17.0047C5.93 17.0051 5.93 17.0054 5.93 17.0058C5.93 17.0061 5.93 17.0065 5.93 17.0069C5.93 17.0072 5.93 17.0076 5.93 17.008C5.93 17.0083 5.93 17.0087 5.93 17.0091C5.93 17.0094 5.93 17.0098 5.93 17.0102C5.93 17.0105 5.93 17.0109 5.93 17.0112C5.93 17.0116 5.93 17.012 5.93 17.0123C5.93 17.0127 5.93 17.0131 5.93 17.0134C5.93 17.0138 5.93 17.0142 5.93 17.0145C5.93 17.0149 5.93 17.0153 5.93 17.0156C5.93 17.016 5.93 17.0164 5.93 17.0167C5.93 17.0171 5.93 17.0174 5.93 17.0178C5.93 17.0182 5.93 17.0185 5.93 17.0189C5.93 17.0193 5.93 17.0196 5.93 17.02C5.93 17.0204 5.93 17.0207 5.93 17.0211C5.93 17.0215 5.93 17.0218 5.93 17.0222C5.93 17.0226 5.93 17.0229 5.93 17.0233C5.93 17.0236 5.93 17.024 5.93 17.0244C5.93 17.0247 5.93 17.0251 5.93 17.0255C5.93 17.0258 5.93 17.0262 5.93 17.0266C5.93 17.0269 5.93 17.0273 5.93 17.0277C5.93 17.028 5.93 17.0284 5.93 17.0287C5.93 17.0291 5.93 17.0295 5.93 17.0298C5.93 17.0302 5.93 17.0306 5.93 17.0309C5.93 17.0313 5.93 17.0317 5.93 17.032C5.93 17.0324 5.93 17.0328 5.93 17.0331C5.93 17.0335 5.93 17.0339 5.93 17.0342C5.93 17.0346 5.93 17.0349 5.93 17.0353C5.93 17.0357 5.93 17.036 5.93 17.0364C5.93 17.0368 5.93 17.0371 5.93 17.0375C5.93 17.0379 5.93 17.0382 5.93 17.0386C5.93 17.039 5.93 17.0393 5.93 17.0397C5.93 17.0401 5.93 17.0404 5.93 17.0408C5.93 17.0411 5.93 17.0415 5.93 17.0419C5.93 17.0422 5.93 17.0426 5.93 17.043C5.93 17.0433 5.93 17.0437 5.93 17.0441C5.93 17.0444 5.93 17.0448 5.93 17.0452C5.93 17.0455 5.93 17.0459 5.93 17.0462C5.93 17.0466 5.93 17.047 5.93 17.0473C5.93 17.0477 5.93 17.0481 5.93 17.0484C5.93 17.0488 5.93 17.0492 5.93 17.0495C5.93 17.0499 5.93 17.0503 5.93 17.0506C5.93 17.051 5.93 17.0514 5.93 17.0517C5.93 17.0521 5.93 17.0524 5.93 17.0528C5.93 17.0532 5.93 17.0535 5.93 17.0539C5.93 17.0543 5.93 17.0546 5.93 17.055C5.93 17.0554 5.93 17.0557 5.93 17.0561C5.93 17.0565 5.93 17.0568 5.93 17.0572C5.93 17.0576 5.93 17.0579 5.93 17.0583C5.93 17.0586 5.93 17.059 5.93 17.0594C5.93 17.0597 5.93 17.0601 5.93 17.0605C5.93 17.0608 5.93 17.0612 5.93 17.0616C5.93 17.0619 5.93 17.0623 5.93 17.0627C5.93 17.063 5.93 17.0634 5.93 17.0637C5.93 17.0641 5.93 17.0645 5.93 17.0648C5.93 17.0652 5.93 17.0656 5.93 17.0659C5.93 17.0663 5.93 17.0667 5.93 17.067C5.93 17.0674 5.93 17.0678 5.93 17.0681C5.93 17.0685 5.93 17.0689 5.93 17.0692C5.93 17.0696 5.93 17.0699 5.93 17.0703C5.93 17.0707 5.93 17.071 5.93 17.0714C5.93 17.0718 5.93 17.0721 5.93 17.0725C5.93 17.0729 5.93 17.0732 5.93 17.0736C5.93 17.074 5.93 17.0743 5.93 17.0747C5.93 17.0751 5.93 17.0754 5.93 17.0758C5.93 17.0761 5.93 17.0765 5.93 17.0769C5.93 17.0772 5.93 17.0776 5.93 17.078C5.93 17.0783 5.93 17.0787 5.93 17.0791C5.93 17.0794 5.93 17.0798 5.93 17.0802C5.93 17.0805 5.93 17.0809 5.93 17.0812C5.93 17.0816 5.93 17.082 5.93 17.0823C5.93 17.0827 5.93 17.0831 5.93 17.0834C5.93 17.0838 5.93 17.0842 5.93 17.0845C5.93 17.0849 5.93 17.0853 5.93 17.0856C5.93 17.086 5.93 17.0864 5.93 17.0867C5.93 17.0871 5.93 17.0874 5.93 17.0878C5.93 17.0882 5.93 17.0885 5.93 17.0889C5.93 17.0893 5.93 17.0896 5.93 17.09C5.93 17.0904 5.93 17.0907 5.93 17.0911C5.93 17.0915 5.93 17.0918 5.93 17.0922C5.93 17.0926 5.93 17.0929 5.93 17.0933C5.93 17.0936 5.93 17.094 5.93 17.0944C5.93 17.0947 5.93 17.0951 5.93 17.0955C5.93 17.0958 5.93 17.0962 5.93 17.0966C5.93 17.0969 5.93 17.0973 5.93 17.0977C5.93 17.098 5.93 17.0984 5.93 17.0987C5.93 17.0991 5.93 17.0995 5.93 17.0998C5.93 17.1002 5.93 17.1006 5.93 17.1009C5.93 17.1013 5.93 17.1017 5.93 17.102C5.93 17.1024 5.93 17.1028 5.93 17.1031C5.93 17.1035 5.93 17.1039 5.93 17.1042C5.93 17.1046 5.93 17.1049 5.93 17.1053C5.93 17.1057 5.93 17.106 5.93 17.1064C5.93 17.1068 5.93 17.1071 5.93 17.1075C5.93 17.1079 5.93 17.1082 5.93 17.1086C5.93 17.109 5.93 17.1093 5.93 17.1097C5.93 17.1101 5.93 17.1104 5.93 17.1108C5.93 17.1111 5.93 17.1115 5.93 17.1119C5.93 17.1122 5.93 17.1126 5.93 17.113C5.93 17.1133 5.93 17.1137 5.93 17.1141C5.93 17.1144 5.93 17.1148 5.93 17.1152C5.93 17.1155 5.93 17.1159 5.93 17.1162C5.93 17.1166 5.93 17.117 5.93 17.1173C5.93 17.1177 5.93 17.1181 5.93 17.1184C5.93 17.1188 5.93 17.1192 5.93 17.1195C5.93 17.1199 5.93 17.1203 5.93 17.1206C5.93 17.121 5.93 17.1214 5.93 17.1217C5.93 17.1221 5.93 17.1224 5.93 17.1228C5.93 17.1232 5.93 17.1235 5.93 17.1239C5.93 17.1243 5.93 17.1246 5.93 17.125C5.93 17.1254 5.93 17.1257 5.93 17.1261C5.93 17.1265 5.93 17.1268 5.93 17.1272C5.93 17.1276 5.93 17.1279 5.93 17.1283C5.93 17.1286 5.93 17.129 5.93 17.1294C5.93 17.1297 5.93 17.1301 5.93 17.1305C5.93 17.1308 5.93 17.1312 5.93 17.1316C5.93 17.1319 5.93 17.1323 5.93 17.1327C5.93 17.133 5.93 17.1334 5.93 17.1337C5.93 17.1341 5.93 17.1345 5.93 17.1348C5.93 17.1352 5.93 17.1356 5.93 17.1359C5.93 17.1363 5.93 17.1367 5.93 17.137C5.93 17.1374 5.93 17.1378 5.93 17.1381C5.93 17.1385 5.93 17.1389 5.93 17.1392C5.93 17.1396 5.93 17.1399 5.93 17.1403C5.93 17.1407 5.93 17.141 5.93 17.1414C5.93 17.1418 5.93 17.1421 5.93 17.1425C5.93 17.1429 5.93 17.1432 5.93 17.1436C5.93 17.144 5.93 17.1443 5.93 17.1447C5.93 17.1451 5.93 17.1454 5.93 17.1458C5.93 17.1461 5.93 17.1465 5.93 17.1469C5.93 17.1472 5.93 17.1476 5.93 17.148C5.93 17.1483 5.93 17.1487 5.93 17.1491C5.93 17.1494 5.93 17.1498 5.93 17.1502C5.93 17.1505 5.93 17.1509 5.93 17.1512C5.93 17.1516 5.93 17.152 5.93 17.1523C5.93 17.1527 5.93 17.1531 5.93 17.1534C5.93 17.1538 5.93 17.1542 5.93 17.1545C5.93 17.1549 5.93 17.1553 5.93 17.1556C5.93 17.156 5.93 17.1564 5.93 17.1567C5.93 17.1571 5.93 17.1574 5.93 17.1578C5.93 17.1582 5.93 17.1585 5.93 17.1589C5.93 17.1593 5.93 17.1596 5.93 17.16H7.33ZM7.32635 16.6714C7.41115 15.8446 7.63118 15.1351 7.97402 14.5301L6.75598 13.8399C6.30548 14.6349 6.03551 15.5354 5.93365 16.5286L7.32635 16.6714ZM7.97035 14.5365C8.36622 13.8547 8.81475 13.2429 9.31515 12.6989L8.28485 11.7511C7.71192 12.3738 7.20378 13.0686 6.75965 13.8335L7.97035 14.5365ZM9.31436 12.6998C9.86858 12.0994 10.4104 11.5345 10.94 11.005L9.95003 10.015C9.40622 10.5588 8.85142 11.1373 8.28564 11.7502L9.31436 12.6998ZM10.9293 11.0154C11.513 10.4561 12.0087 9.90005 12.4111 9.34672L11.2789 8.52328C10.9346 8.99661 10.497 9.49061 9.96067 10.0046L10.9293 11.0154ZM12.4079 9.35107C12.8629 8.73547 13.1522 8.07613 13.2396 7.37682L11.8504 7.20317C11.7978 7.62386 11.6204 8.0612 11.2821 8.51893L12.4079 9.35107ZM13.2413 7.36203C13.3262 6.54114 13.1581 5.78583 12.685 5.155L11.565 5.995C11.7919 6.2975 11.9038 6.68553 11.8487 7.21797L13.2413 7.36203ZM12.6985 5.17358C12.2857 4.58398 11.7162 4.15357 11.02 3.87506L10.5 5.17493C10.9704 5.36309 11.3109 5.63268 11.5515 5.97642L12.6985 5.17358ZM11.0517 3.88865C10.398 3.58908 9.70331 3.44 8.975 3.44V4.84C9.50669 4.84 10.002 4.94759 10.4683 5.16134L11.0517 3.88865ZM8.975 3.44C7.76254 3.44 6.70351 3.73826 5.8541 4.38947L6.7059 5.50052C7.25649 5.07841 7.99413 4.84 8.975 4.84V3.44ZM5.8541 4.38947C4.97977 5.05979 4.43915 6.09659 4.16074 7.38741L5.52926 7.68259C5.76418 6.59341 6.18023 5.90354 6.7059 5.50052L5.8541 4.38947ZM4.1659 7.36522C4.11927 7.55177 4.06053 7.61545 4.03945 7.63352L4.95055 8.69648C5.25614 8.43455 5.43074 8.07823 5.5241 7.70477L4.1659 7.36522ZM4.08813 7.59539C4.08214 7.59966 4.02009 7.64 3.83 7.64V9.04C4.19991 9.04 4.58119 8.96367 4.90187 8.73461L4.08813 7.59539ZM3.83 7.64H0.855V9.04H3.83V7.64ZM0.855 7.64C0.816508 7.64 0.790406 7.63268 0.750554 7.59852L-0.160554 8.66148C0.126261 8.90732 0.473493 9.04 0.855 9.04V7.64ZM0.82648 7.67445C0.815382 7.6615 0.785 7.62339 0.785 7.5H-0.615C-0.615 7.88994 -0.505382 8.27183 -0.23648 8.58555L0.82648 7.67445ZM0.784781 7.51749C0.805698 6.68083 0.993346 5.87583 1.35107 5.09725L0.0789263 4.51275C-0.356679 5.46083 -0.589031 6.45251 -0.614781 7.48251L0.784781 7.51749ZM1.34762 5.10466C1.72614 4.30556 2.26437 3.58523 2.97087 2.94296L2.02913 1.90704C1.19563 2.66476 0.543862 3.53111 0.0823836 4.50534L1.34762 5.10466ZM2.96314 2.94989C3.68156 2.31599 4.55775 1.81028 5.60369 1.43984L5.13631 0.12016C3.94225 0.543057 2.90511 1.13401 2.03687 1.90011L2.96314 2.94989ZM5.61579 1.43543C6.64265 1.05035 7.8402 0.849998 9.22 0.849998V-0.550001C7.70647 -0.550001 6.33735 -0.330357 5.12421 0.124568L5.61579 1.43543ZM9.22 0.849998C10.75 0.849998 11.9872 1.0532 12.9549 1.43187L13.4651 0.128129C12.2861 -0.333202 10.8633 -0.550001 9.22 -0.550001V0.849998ZM12.9719 1.43826C13.9957 1.80857 14.7584 2.2833 15.2961 2.84089L16.3039 1.8691C15.5816 1.12003 14.6177 0.544767 13.4481 0.121736L12.9719 1.43826ZM15.305 2.84997C15.8953 3.44025 16.3013 4.06695 16.5421 4.72922L17.8579 4.25078C17.5387 3.37305 17.0114 2.57642 16.295 1.86002L15.305 2.84997ZM16.5446 4.73578C16.7957 5.40551 16.9055 6.04949 16.8854 6.67243L18.2846 6.71757C18.3112 5.89385 18.1643 5.06782 17.8554 4.24421L16.5446 4.73578ZM16.886 6.65821C16.8437 7.46165 16.6654 8.15889 16.3639 8.76195L17.6161 9.38805C18.0146 8.59111 18.233 7.70168 18.284 6.73179L16.886 6.65821ZM16.3639 8.76195C16.0392 9.41132 15.6385 10.0181 15.1606 10.5828L16.2294 11.4872C16.7782 10.8386 17.2408 10.1387 17.6161 9.38805L16.3639 8.76195ZM15.1695 10.5726C14.6596 11.1519 14.1381 11.7314 13.6048 12.3111L14.6352 13.2589C15.1752 12.6719 15.7037 12.0847 16.2205 11.4974L15.1695 10.5726ZM13.6146 12.3007C13.0571 12.8824 12.5575 13.4791 12.1169 14.091L13.2531 14.909C13.6525 14.3542 14.1096 13.8076 14.6254 13.2693L13.6146 12.3007ZM12.1062 14.1064C11.6615 14.7602 11.3555 15.4618 11.1955 16.2083L12.5645 16.5017C12.6845 15.9416 12.9151 15.4065 13.2638 14.8936L12.1062 14.1064ZM11.1967 16.2031C11.1446 16.4373 11.1054 16.6722 11.0793 16.9077L12.4707 17.0623C12.4912 16.8778 12.522 16.6927 12.5633 16.5069L11.1967 16.2031ZM11.0804 16.8982C11.0571 17.0848 11.0337 17.2715 11.0104 17.4582L12.3996 17.6318C12.4229 17.4452 12.4463 17.2585 12.4696 17.0718L11.0804 16.8982ZM11.0409 17.3236C10.9663 17.5476 10.8871 17.6803 10.8235 17.7544L11.8865 18.6656C12.1029 18.413 12.2571 18.1024 12.3691 17.7664L11.0409 17.3236ZM10.86 17.715C10.8685 17.7065 10.8752 17.705 10.8683 17.7074C10.8584 17.7109 10.8259 17.72 10.76 17.72V19.12C11.1449 19.12 11.543 19.0119 11.85 18.705L10.86 17.715ZM10.76 17.72H7.33V19.12H10.76V17.72ZM7.225 24.3C7.1752 24.3 7.15554 24.2906 7.12498 24.26L6.13503 25.25C6.43113 25.5461 6.80813 25.7 7.225 25.7V24.3ZM7.12498 24.26C7.09441 24.2295 7.085 24.2098 7.085 24.16H5.685C5.685 24.5769 5.83893 24.9539 6.13503 25.25L7.12498 24.26ZM7.085 24.16V21.115H5.685V24.16H7.085ZM7.085 21.115C7.085 21.0214 7.10808 20.9969 7.12498 20.98L6.13503 19.99C5.82525 20.2998 5.685 20.6953 5.685 21.115H7.085ZM7.12498 20.98C7.15554 20.9494 7.1752 20.94 7.225 20.94V19.54C6.80813 19.54 6.43113 19.6939 6.13503 19.99L7.12498 20.98ZM7.225 20.94H10.62V19.54H7.225V20.94ZM10.62 20.94C10.7136 20.94 10.7381 20.9631 10.755 20.98L11.745 19.99C11.4352 19.6802 11.0397 19.54 10.62 19.54V20.94ZM10.755 20.98C10.7719 20.9969 10.795 21.0214 10.795 21.115H12.195C12.195 20.6953 12.0548 20.2998 11.745 19.99L10.755 20.98ZM10.795 21.115V24.16H12.195V21.115H10.795ZM10.795 24.16C10.795 24.2098 10.7856 24.2295 10.755 24.26L11.745 25.25C12.0411 24.9539 12.195 24.5769 12.195 24.16H10.795ZM10.755 24.26C10.7381 24.2769 10.7136 24.3 10.62 24.3V25.7C11.0397 25.7 11.4352 25.5597 11.745 25.25L10.755 24.26ZM10.62 24.3H7.225V25.7H10.62V24.3Z" fill="white"/>
</svg>
