<svg width="31" height="30" viewBox="0 0 31 30" fill="none" xmlns="http://www.w3.org/2000/svg">
<path d="M2.44755 12.8525H2.51084C3.19118 12.8525 3.88735 12.3276 4.07721 11.6945L4.94742 9.56365C5.26386 8.9769 5.13728 8.12766 4.6468 7.649L4.4253 7.43283C3.95064 6.96961 3.95064 6.19757 4.4253 5.73434L5.83345 4.36012C6.30811 3.89689 7.09921 3.89689 7.57387 4.36012L7.76373 4.54541C8.23839 5.00863 9.12442 5.13215 9.70983 4.8079L11.9249 3.91233C12.5736 3.7116 13.0957 3.01677 13.0957 2.36826V2.35282C13.0957 1.68886 13.6495 1.14844 14.3298 1.14844H16.3392C17.0196 1.14844 17.5734 1.68886 17.5734 2.35282V2.3837C17.5734 3.04765 18.0955 3.74249 18.7442 3.92777L20.8327 4.76158C21.4339 5.07039 22.3041 4.94687 22.7788 4.48364L22.8737 4.391C23.3484 3.92777 24.1395 3.92777 24.6141 4.391L26.0223 5.76523C26.4969 6.22845 26.4969 7.00049 26.0223 7.46371L25.9274 7.55635C25.4527 8.01958 25.3261 8.88426 25.6584 9.45557L26.5128 11.432C26.7185 12.0651 27.4304 12.5746 28.1108 12.5746H28.3323C29.0126 12.5746 29.5664 13.115 29.5664 13.779V15.7245C29.5664 16.3885 29.0126 16.9289 28.3323 16.9289H28.1899C27.5096 16.9289 26.8134 17.4539 26.6235 18.087L25.8166 20.0943C25.5002 20.681 25.6426 21.5457 26.1172 22.0089L26.2438 22.1324C26.7185 22.5957 26.7185 23.3677 26.2438 23.8309L24.8356 25.2051C24.361 25.6684 23.5699 25.6684 23.0952 25.2051L23.0478 25.1588C22.5731 24.6956 21.7029 24.5875 21.1175 24.9118L19.029 25.8073C18.3961 26.0081 17.8581 26.7183 17.8581 27.3823V27.4441C17.8581 28.108 17.3044 28.6484 16.624 28.6484H14.6305C13.9501 28.6484 13.3964 28.1235 13.3964 27.4749C13.3964 26.8264 12.8584 26.1625 12.2097 25.9772L9.99463 25.1434C9.39339 24.85 8.52318 24.9735 8.04853 25.4213C7.57387 25.8845 6.79859 25.8691 6.32393 25.4059L4.91577 24.0316C4.44112 23.5684 4.40947 22.8273 4.86831 22.3795C5.32715 21.9317 5.40626 21.1133 5.07399 20.542L4.10886 18.3649C3.90317 17.7318 3.17536 17.2223 2.51084 17.2223H2.4159C1.73556 17.2223 1.18179 16.6818 1.18179 16.0179V14.0569C1.22926 13.393 1.78303 12.8525 2.44755 12.8525ZM7.41565 18.9825C7.90613 19.8009 8.3175 20.4957 8.34914 20.5112C8.38079 20.5266 8.74469 20.8817 9.12442 21.2369C9.50415 21.6075 10.5009 22.2868 11.3553 22.7346C11.3553 22.7346 13.2698 23.7537 15.3583 23.7537C20.3738 23.7537 24.4559 19.7854 24.4559 14.8753C24.4559 9.98055 20.3897 5.99684 15.3583 5.99684C10.3269 5.99684 6.26064 9.96511 6.26064 14.8753C6.26064 17.0215 7.41565 18.9825 7.41565 18.9825Z" stroke="white" stroke-miterlimit="10"/>
</svg>
