<svg width="31" height="30" viewBox="0 0 31 30" fill="none" xmlns="http://www.w3.org/2000/svg">
<path d="M2.44755 12.852H2.51084C3.19118 12.852 3.88735 12.3271 4.07721 11.694L4.94742 9.56317C5.26386 8.97642 5.13728 8.12717 4.6468 7.64851L4.4253 7.43234C3.95064 6.96912 3.95064 6.19708 4.4253 5.73386L5.83345 4.35963C6.30811 3.89641 7.09921 3.89641 7.57387 4.35963L7.76373 4.54492C8.23839 5.00814 9.12442 5.13167 9.70983 4.80741L11.9249 3.91185C12.5736 3.71112 13.0957 3.01628 13.0957 2.36777V2.35233C13.0957 1.68838 13.6495 1.14795 14.3298 1.14795H16.3392C17.0196 1.14795 17.5734 1.68838 17.5734 2.35233V2.38321C17.5734 3.04716 18.0955 3.742 18.7442 3.92729L20.8327 4.76109C21.4339 5.0699 22.3041 4.94638 22.7788 4.48315L22.8737 4.39051C23.3484 3.92729 24.1395 3.92729 24.6141 4.39051L26.0223 5.76474C26.4969 6.22796 26.4969 7 26.0223 7.46322L25.9274 7.55587C25.4527 8.01909 25.3261 8.88377 25.6584 9.45508L26.5128 11.4315C26.7185 12.0646 27.4304 12.5741 28.1108 12.5741H28.3323C29.0126 12.5741 29.5664 13.1145 29.5664 13.7785V15.724C29.5664 16.388 29.0126 16.9284 28.3323 16.9284H28.1899C27.5096 16.9284 26.8134 17.4534 26.6235 18.0865L25.8166 20.0938C25.5002 20.6805 25.6426 21.5452 26.1172 22.0084L26.2438 22.1319C26.7185 22.5952 26.7185 23.3672 26.2438 23.8304L24.8356 25.2047C24.361 25.6679 23.5699 25.6679 23.0952 25.2047L23.0478 25.1583C22.5731 24.6951 21.7029 24.587 21.1175 24.9113L19.029 25.8068C18.3961 26.0076 17.8581 26.7179 17.8581 27.3818V27.4436C17.8581 28.1075 17.3044 28.648 16.624 28.648H14.6305C13.9501 28.648 13.3964 28.123 13.3964 27.4745C13.3964 26.8259 12.8584 26.162 12.2097 25.9767L9.99463 25.1429C9.39339 24.8495 8.52318 24.973 8.04853 25.4208C7.57387 25.8841 6.79859 25.8686 6.32393 25.4054L4.91577 24.0312C4.44112 23.5679 4.40947 22.8268 4.86831 22.379C5.32715 21.9312 5.40626 21.1129 5.07399 20.5415L4.10886 18.3644C3.90317 17.7313 3.17536 17.2218 2.51084 17.2218H2.4159C1.73556 17.2218 1.18179 16.6814 1.18179 16.0174V14.0564C1.22926 13.3925 1.78303 12.852 2.44755 12.852ZM7.41565 18.982C7.90613 19.8004 8.3175 20.4952 8.34914 20.5107C8.38079 20.5261 8.74469 20.8812 9.12442 21.2364C9.50415 21.607 10.5009 22.2864 11.3553 22.7341C11.3553 22.7341 13.2698 23.7532 15.3583 23.7532C20.3738 23.7532 24.4559 19.785 24.4559 14.8748C24.4559 9.98007 20.3897 5.99635 15.3583 5.99635C10.3269 5.99635 6.26064 9.96463 6.26064 14.8748C6.26064 17.0211 7.41565 18.982 7.41565 18.982Z" stroke="white" stroke-miterlimit="10"/>
</svg>
