<svg width="20" height="21" viewBox="0 0 20 21" fill="none" xmlns="http://www.w3.org/2000/svg">
<path d="M10.032 0.335953C9.73232 0.117321 9.37095 -0.000488281 9 -0.000488281C8.62905 -0.000488281 8.26768 0.117321 7.968 0.335953L0.547 5.74995C-0.43 6.46195 0.0730002 8.00595 1.281 8.00795H13V7.99995H16V8.00695H16.719C17.927 8.00495 18.429 6.46095 17.453 5.74895L10.032 0.335953ZM9 3.25995C9.26522 3.25995 9.51957 3.36531 9.70711 3.55285C9.89464 3.74038 10 3.99474 10 4.25995C10 4.52517 9.89464 4.77952 9.70711 4.96706C9.51957 5.1546 9.26522 5.25995 9 5.25995C8.73478 5.25995 8.48043 5.1546 8.29289 4.96706C8.10536 4.77952 8 4.52517 8 4.25995C8 3.99474 8.10536 3.74038 8.29289 3.55285C8.48043 3.36531 8.73478 3.25995 9 3.25995ZM8.25 13.409C8.16 13.595 8.091 13.794 8.05 14.003H6.25V9.00595H8.25V13.409ZM11.75 9.43695C11.2343 9.63843 10.7913 9.99085 10.4791 10.4481C10.1669 10.9054 9.99988 11.4462 10 12V12.05C9.91561 12.0669 9.83216 12.0883 9.75 12.114V9.00595H11.75V9.43695ZM8 15.003V18.5H0.75C0.551088 18.5 0.360322 18.4209 0.21967 18.2803C0.0790175 18.1396 0 17.9489 0 17.75V17.25C0.000530125 16.6536 0.237817 16.0818 0.659716 15.6603C1.08162 15.2387 1.65361 15.002 2.25 15.002H8V15.003ZM2.5 14.003H4.75V9.00695H2.5V14.004V14.003ZM11 13H10.5C10.1022 13 9.72064 13.158 9.43934 13.4393C9.15804 13.7206 9 14.1021 9 14.5V16H11.5V15.75C11.5 15.551 11.579 15.3603 11.7197 15.2196C11.8603 15.079 12.0511 15 12.25 15C12.4489 15 12.6397 15.079 12.7803 15.2196C12.921 15.3603 13 15.551 13 15.75V16H16V15.75C16 15.551 16.079 15.3603 16.2197 15.2196C16.3603 15.079 16.5511 15 16.75 15C16.9489 15 17.1397 15.079 17.2803 15.2196C17.421 15.3603 17.5 15.551 17.5 15.75V16H20V14.5C20 14.1021 19.842 13.7206 19.5607 13.4393C19.2794 13.158 18.8978 13 18.5 13H18V12C18 11.5358 17.8156 11.0907 17.4874 10.7625C17.1592 10.4343 16.7141 10.25 16.25 10.25H12.75C12.2859 10.25 11.8408 10.4343 11.5126 10.7625C11.1844 11.0907 11 11.5358 11 12V13ZM12.5 12C12.5 11.9336 12.5263 11.8701 12.5732 11.8232C12.6201 11.7763 12.6837 11.75 12.75 11.75H16.25C16.3163 11.75 16.3799 11.7763 16.4268 11.8232C16.4737 11.8701 16.5 11.9336 16.5 12V13H12.5V12ZM10.5 21C10.1022 21 9.72064 20.8419 9.43934 20.5606C9.15804 20.2793 9 19.8978 9 19.5V17.5H11.5V18.25C11.5 18.4489 11.579 18.6396 11.7197 18.7803C11.8603 18.9209 12.0511 19 12.25 19C12.4489 19 12.6397 18.9209 12.7803 18.7803C12.921 18.6396 13 18.4489 13 18.25V17.5H16V18.25C16 18.4489 16.079 18.6396 16.2197 18.7803C16.3603 18.9209 16.5511 19 16.75 19C16.9489 19 17.1397 18.9209 17.2803 18.7803C17.421 18.6396 17.5 18.4489 17.5 18.25V17.5H20V19.5C20 19.8978 19.842 20.2793 19.5607 20.5606C19.2794 20.8419 18.8978 21 18.5 21H10.5Z" fill="#5A5D6B"/>
</svg>
