<svg width="20" height="18" viewBox="0 0 20 18" fill="none" xmlns="http://www.w3.org/2000/svg">
<path d="M19 4H15V1C15 0.734784 14.8946 0.48043 14.7071 0.292893C14.5196 0.105357 14.2652 0 14 0H6C5.73478 0 5.48043 0.105357 5.29289 0.292893C5.10536 0.48043 5 0.734784 5 1V8H1C0.734784 8 0.48043 8.10536 0.292893 8.29289C0.105357 8.48043 0 8.73478 0 9V17C0 17.2652 0.105357 17.5196 0.292893 17.7071C0.48043 17.8946 0.734784 18 1 18H19C19.2652 18 19.5196 17.8946 19.7071 17.7071C19.8946 17.5196 20 17.2652 20 17V5C20 4.73478 19.8946 4.48043 19.7071 4.29289C19.5196 4.10536 19.2652 4 19 4ZM4 16H2V14H4V16ZM4 12H2V10H4V12ZM9 16H7V14H9V16ZM9 12H7V10H9V12ZM9 8H7V6H9V8ZM9 4H7V2H9V4ZM13 16H11V14H13V16ZM13 12H11V10H13V12ZM13 8H11V6H13V8ZM13 4H11V2H13V4ZM18 16H16V14H18V16ZM18 12H16V10H18V12ZM18 8H16V6H18V8Z" fill="#5A5D6B"/>
</svg>
