<svg width="29" height="30" viewBox="0 0 29 30" fill="none" xmlns="http://www.w3.org/2000/svg">
<g clip-path="url(#clip0_778_5087)">
<path d="M6.55014 9.87826C6.5199 9.52734 6.5078 9.22481 6.45942 8.92834C6.42918 8.73472 6.3687 8.53506 6.27193 8.35959C6.00582 7.8574 6.0784 7.35521 6.25984 6.87117C6.50175 6.22377 7.05212 5.99385 7.6932 5.9515C7.95327 5.93335 8.21333 5.94545 8.49154 5.94545C8.73345 4.094 9.58622 2.61768 11.1043 1.56489C12.2352 0.784379 13.4993 0.43345 14.8661 0.518157C17.7268 0.687571 20.152 2.8718 20.527 5.94545C20.8899 5.94545 21.2588 5.95755 21.6217 5.9394C21.9604 5.9273 22.1902 6.05436 22.3716 6.33873C22.6377 6.76226 22.9341 7.1737 23.2062 7.59723C23.3272 7.7848 23.4421 7.8453 23.6719 7.79085C24.5247 7.59118 25.3775 7.40361 26.2363 7.2463C26.7503 7.15554 27.2765 7.15554 27.7604 7.43387C28.8611 8.06917 29.1816 8.82548 28.9155 10.2776C28.8127 10.8524 28.6434 11.409 28.5043 11.9778C28.4377 12.2622 28.22 12.4134 27.9781 12.5163C27.464 12.7462 26.9499 12.9701 26.4298 13.1818C26.2605 13.2484 26.2121 13.3452 26.2242 13.5207C26.2968 14.4403 26.46 15.3358 26.8532 16.1768C27.1253 16.7637 27.5003 17.2599 28.099 17.5684C28.4377 17.7439 28.5587 18.0222 28.4317 18.3792C28.2805 18.8027 28.099 19.2202 27.8813 19.6135C27.1072 21.0112 26.2786 22.3846 25.5408 23.8004C24.8452 25.1376 24.8694 24.7383 25.6012 25.9847C25.6738 26.1057 25.7464 26.2267 25.8069 26.3537C26.0125 26.7712 25.9762 27.0617 25.6254 27.3521C24.8392 27.9934 24.0469 28.6287 23.2365 29.2338C22.7405 29.6029 22.2023 29.5787 21.6459 29.2882C20.1339 28.4896 18.6158 27.7091 17.0978 26.9285C16.6986 26.7228 16.2692 26.5716 15.858 26.384C15.6705 26.2993 15.5193 26.3295 15.4104 26.4929C14.9991 27.0617 14.5758 27.6365 14.2129 28.2476C13.8137 28.9192 13.6263 29.0704 12.8582 28.901C11.703 28.6469 10.5539 28.3444 9.39873 28.0781C8.99352 27.9813 8.5883 27.8906 8.15285 27.9753C7.94722 28.0176 7.64482 27.9329 7.48152 27.7938C6.67715 27.098 5.89091 26.378 5.12282 25.6398C5.00791 25.5309 5.00186 25.2707 4.99581 25.0831C4.97162 24.4539 4.99581 23.8186 4.95952 23.1893C4.94138 22.8324 4.74784 22.5782 4.37892 22.427C3.56849 22.0942 3.16932 21.4408 3.0907 20.5755C3.05441 20.1641 3.02417 19.7527 2.98789 19.3412C2.90926 18.4518 2.43752 17.7984 1.71781 17.3204C1.34284 17.0723 0.931577 16.8726 0.526363 16.673C0.0727654 16.4551 -0.12077 16.1042 0.0788134 15.6262C0.2663 15.1664 0.502171 14.7126 0.780378 14.3012C1.34889 13.4602 1.95973 12.6494 2.54638 11.8205C2.74597 11.5361 2.95765 11.2699 3.01208 10.8947C3.04232 10.7011 3.24795 10.4954 3.42334 10.3684C4.33658 9.70885 5.35264 9.56969 6.55014 9.87826ZM27.1495 18.3671C26.4298 17.8468 25.946 17.1812 25.6254 16.3886C25.2142 15.3782 25.0509 14.3254 24.9964 13.2423C24.9722 12.7462 25.1779 12.4316 25.6012 12.238C26.0125 12.0504 26.4177 11.8447 26.8471 11.6995C27.2463 11.5664 27.464 11.3546 27.5184 10.931C27.585 10.3623 27.712 9.80566 27.7785 9.23691C27.8148 8.94044 27.6817 8.72262 27.3793 8.56531C26.8955 8.30514 26.4177 8.41405 25.9399 8.5048C25.0569 8.68027 24.1739 8.89203 23.2909 9.0917C22.9522 9.16431 22.7103 9.0312 22.5289 8.74682C22.2204 8.26278 21.8938 7.79085 21.5672 7.31891C21.5189 7.2463 21.4281 7.15554 21.3495 7.14949C21.0713 7.13134 20.7931 7.14344 20.6056 7.14344C20.3153 8.02681 20.1036 8.88598 19.7589 9.6786C18.5674 12.4195 16.8377 14.8336 14.9871 17.157C14.6968 17.52 14.2794 17.5019 13.9891 17.1207C13.4327 16.3946 12.8703 15.6686 12.3501 14.9183C11.1647 13.2302 10.0277 11.5058 9.22939 9.59389C8.9028 8.81338 8.68507 7.98446 8.40686 7.13739C8.25566 7.14344 8.03189 7.14344 7.81416 7.16764C7.36057 7.21 7.27589 7.31286 7.31218 7.77875C7.31823 7.8695 7.35452 7.95421 7.38476 8.03892C7.47548 8.31724 7.57829 8.58951 7.65087 8.87388C7.77788 9.37002 7.78392 9.86616 7.58434 10.3563C7.34847 10.9432 6.68319 11.2033 6.18121 10.9976C5.52803 10.7314 4.87485 10.9129 4.27005 11.2336C4.22167 11.2578 4.17933 11.3062 4.15514 11.3606C3.94951 11.7358 3.77412 12.1351 3.53825 12.486C2.89112 13.436 2.21979 14.3617 1.56057 15.2995C1.4638 15.4326 1.40332 15.5899 1.32469 15.7351C1.66943 15.9348 1.98997 16.1103 2.29237 16.2978C3.29028 16.915 3.95556 17.7802 4.14305 18.9601C4.22772 19.4622 4.24586 19.9826 4.29425 20.4908C4.33053 20.866 4.40916 21.2229 4.83252 21.35C5.57037 21.5678 5.98163 22.1063 6.09654 22.8203C6.19936 23.4919 6.17516 24.1756 6.2175 24.8593C6.22355 24.9621 6.23564 25.0952 6.29612 25.1558C6.84044 25.6761 7.39685 26.1904 7.95327 26.6926C8.02584 26.7591 8.1468 26.7894 8.24357 26.7954C8.55806 26.8136 8.8907 26.7591 9.1931 26.8257C10.3604 27.0859 11.5216 27.3702 12.6767 27.6667C12.9912 27.7454 13.1303 27.6728 13.3057 27.3823C13.6867 26.747 14.1101 26.1359 14.5758 25.5611C14.975 25.065 15.5314 24.9561 16.1301 25.2102C16.7591 25.4825 17.3941 25.7305 18.005 26.0391C19.3597 26.7228 20.6963 27.4368 22.039 28.1386C22.2204 28.2355 22.3898 28.302 22.6014 28.187C23.3393 27.7756 23.9441 27.2129 24.561 26.6684C24.5307 26.6079 24.5186 26.5776 24.5066 26.5534C24.4642 26.4869 24.4279 26.4082 24.3795 26.3477C23.6598 25.4885 23.6598 24.6052 24.2162 23.6492C25.0932 22.1487 25.9218 20.6179 26.7624 19.0992C26.9076 18.8632 27.0225 18.6212 27.1495 18.3671ZM14.4609 15.8017C14.5576 15.7109 14.5879 15.6867 14.6121 15.6565C16.1664 13.7203 17.5272 11.6571 18.5493 9.38817C18.9303 8.54111 19.269 7.67589 19.3295 6.73806C19.4867 4.1303 17.37 1.81901 14.7633 1.7101C11.2978 1.55884 8.87256 4.90476 9.94305 7.99051C10.5237 9.6665 11.3522 11.2154 12.3078 12.6917C12.9852 13.7385 13.723 14.7429 14.4609 15.8017Z" fill="#5A5D6B"/>
<path d="M9.96715 19.2263C9.13253 19.2202 8.46121 18.5305 8.47331 17.6955C8.4854 16.8605 9.17487 16.195 10.0095 16.2071C10.826 16.2192 11.4912 16.8968 11.4912 17.7197C11.4852 18.5547 10.8018 19.2323 9.96715 19.2263Z" fill="#5A5D6B"/>
<path d="M16.9226 6.55655C16.9165 7.88161 15.8097 8.96465 14.4852 8.9586C13.1607 8.9465 12.0842 7.84531 12.0963 6.5142C12.1084 5.20124 13.2031 4.12425 14.5155 4.1303C15.84 4.1303 16.9286 5.23149 16.9226 6.55655ZM14.4973 5.33435C13.826 5.3404 13.2938 5.8789 13.2998 6.5505C13.3059 7.22211 13.8442 7.75455 14.5155 7.7485C15.1868 7.74245 15.719 7.20395 15.713 6.53235C15.7069 5.86075 15.1687 5.3283 14.4973 5.33435Z" fill="#5A5D6B"/>
</g>
<defs>
<clipPath id="clip0_778_5087">
<rect width="29" height="29" fill="white" transform="translate(0 0.5)"/>
</clipPath>
</defs>
</svg>
