<svg width="22" height="18" viewBox="0 0 22 18" fill="none" xmlns="http://www.w3.org/2000/svg">
<path d="M20.75 0.75H1.25C0.835156 0.75 0.5 1.08516 0.5 1.5V5.25H21.5V1.5C21.5 1.08516 21.1648 0.75 20.75 0.75ZM0.5 16.5C0.5 16.9148 0.835156 17.25 1.25 17.25H20.75C21.1648 17.25 21.5 16.9148 21.5 16.5V7.3125H0.5V16.5ZM14.0703 12.1875C14.0703 12.0844 14.1547 12 14.2578 12H18.125C18.2281 12 18.3125 12.0844 18.3125 12.1875V13.875C18.3125 13.9781 18.2281 14.0625 18.125 14.0625H14.2578C14.1547 14.0625 14.0703 13.9781 14.0703 13.875V12.1875Z" fill="#5A5D6B"/>
</svg>
