<svg width="27" height="26" viewBox="0 0 27 26" fill="none" xmlns="http://www.w3.org/2000/svg">
<path d="M7.70703 12.9773C6.72369 12.9773 2.77584 7.45303 2.77584 4.82892C2.77584 2.20481 4.98562 0.0838597 7.70703 0.0838597C10.4284 0.0838597 12.6346 2.20831 12.6346 4.83242C12.6346 7.45653 8.66496 12.9773 7.70703 12.9773ZM7.70703 1.6143C5.8601 1.6143 4.36514 3.05389 4.36514 4.83242C4.36514 6.61094 5.8601 8.05053 7.70703 8.05053C9.55396 8.05053 11.0489 6.61094 11.0489 4.83242C11.0489 3.05389 9.55033 1.6143 7.70703 1.6143ZM1.81427 6.49214C2.13721 7.53689 2.67061 8.6061 3.14958 9.44121C2.80124 10.3741 2.58715 11.3665 2.52547 12.3973H5.16342C5.62424 12.9563 6.01613 13.3407 6.34632 13.6027H2.52547C2.62344 15.259 3.11692 16.8139 3.91883 18.1801H6.23384C6.18667 18.3548 6.15764 18.5365 6.15764 18.7252C6.15764 18.9558 6.19756 19.1759 6.27013 19.3856H4.74251C5.88187 20.8321 7.3986 21.9887 9.15119 22.719C8.82825 22.1494 8.53434 21.517 8.27308 20.8321C8.29848 20.8321 8.32388 20.8356 8.34928 20.8356C8.76656 20.8356 9.15482 20.7203 9.48502 20.5247C9.93133 21.6638 10.4647 22.6072 11.0453 23.313C11.6404 23.4458 12.25 23.5296 12.8777 23.5646V19.3856H10.4321C10.5046 19.1794 10.5445 18.9558 10.5445 18.7252C10.5445 18.5365 10.5155 18.3548 10.4684 18.1801H12.8813V13.6027H9.06773C9.39793 13.3372 9.78981 12.9563 10.2506 12.3973H12.885V8.28813C13.4401 7.15603 13.8973 5.89813 13.8973 4.82892C13.8973 2.9281 12.9648 1.22994 11.517 0.139766C11.9561 0.0803655 12.4133 0.0349415 12.8741 0.0139766V0H14.1259V0.0139766C21.2923 0.331945 27 6.02392 27 12.9983C27 19.9761 21.2923 25.6681 14.1259 25.9825V25.9965H13.5018H12.8777V25.9825C5.71133 25.6681 0.00362968 19.9761 0.00362968 12.9983C1.90735e-06 10.6292 0.660397 8.40694 1.81427 6.49214ZM17.8524 3.27752C18.3931 4.22793 18.8539 5.35654 19.2095 6.61094H22.2611C21.1218 5.16436 19.605 4.0078 17.8524 3.27752ZM22.2611 19.3856H19.2095C18.8503 20.64 18.3895 21.7686 17.8524 22.719C19.605 21.9922 21.1218 20.8356 22.2611 19.3856ZM14.1259 23.5681C14.75 23.5331 15.3633 23.4493 15.9583 23.3165C16.7203 22.3836 17.4061 21.0453 17.9141 19.3856H14.1259V23.5681ZM14.1259 12.3973H17.4569C17.3989 12.5894 17.3662 12.7921 17.3662 13.0017C17.3662 13.2114 17.3989 13.4141 17.4569 13.6062H14.1259V18.1836H18.2371C18.4693 17.1912 18.6362 16.1115 18.7269 14.955C18.9845 15.0563 19.2639 15.1122 19.5542 15.1122C19.6957 15.1122 19.8336 15.0982 19.9679 15.0738C19.8808 16.1605 19.7284 17.2052 19.5143 18.1836H23.0848C23.8867 16.8174 24.3802 15.2625 24.4782 13.6062H21.6588C21.7168 13.4141 21.7495 13.2114 21.7495 13.0017C21.7495 12.7921 21.7168 12.5894 21.6588 12.3973H24.4745C24.3766 10.741 23.8831 9.18613 23.0812 7.81992H19.5107C19.7248 8.79828 19.8772 9.84303 19.9643 10.9297C19.83 10.9053 19.6921 10.8913 19.5506 10.8913C19.2567 10.8913 18.9773 10.9472 18.7233 11.0485C18.6326 9.89195 18.4657 8.81226 18.2334 7.81992H14.1223V12.3973H14.1259ZM14.1259 6.61094H17.9141C17.4061 4.95122 16.7203 3.61296 15.9583 2.68002C15.3633 2.54724 14.7537 2.46338 14.1259 2.42844V6.61094ZM8.34928 16.6182C8.38919 16.6182 8.43274 16.6217 8.47265 16.6252C8.34928 15.825 8.2622 14.9864 8.22228 14.1024C7.9828 14.1863 7.81226 14.1863 7.70703 14.1863C7.56915 14.1863 7.33329 14.1863 6.97043 14.0116C7.01035 15.0144 7.10832 15.9788 7.25346 16.9047C7.5764 16.723 7.95014 16.6182 8.34928 16.6182ZM18.1173 12.9983C18.1173 13.7635 18.7632 14.3854 19.5579 14.3854C20.3525 14.3854 20.9984 13.7635 20.9984 12.9983C20.9984 12.233 20.3525 11.6111 19.5579 11.6111C18.7596 11.6111 18.1173 12.233 18.1173 12.9983ZM8.34928 17.3415C7.55463 17.3415 6.90875 17.9634 6.90875 18.7287C6.90875 19.4939 7.55463 20.1158 8.34928 20.1158C9.14393 20.1158 9.78981 19.4939 9.78981 18.7287C9.78619 17.9634 9.14393 17.3415 8.34928 17.3415Z" fill="#4E4E4E"/>
</svg>
