<svg width="27" height="22" viewBox="0 0 27 22" fill="none" xmlns="http://www.w3.org/2000/svg">
<path d="M0 2.90648C0.345882 1.7069 1.01647 0.836468 2.25176 0.565831C2.50588 0.514629 2.77412 0.5 3.03529 0.5C10.0165 0.5 16.9976 0.5 23.9718 0.5C25.8282 0.5 27 1.71421 27 3.63793C27 8.53866 27 13.4394 27 18.3401C27 20.2638 25.8282 21.4854 23.9718 21.4854C17.1318 21.4854 10.2988 21.4634 3.45882 21.5073C1.82824 21.5146 0.550588 20.9807 0 19.0789C0 13.6881 0 8.29728 0 2.90648ZM13.5529 1.67764C10.0518 1.67764 6.55765 1.67764 3.05647 1.67764C1.77882 1.67764 1.12941 2.33595 1.12941 3.64525C1.12941 8.54598 1.12941 13.4467 1.12941 18.3401C1.12941 19.6494 1.77176 20.3077 3.04941 20.3077C10.0094 20.3077 16.9694 20.3077 23.9294 20.3077C25.2282 20.3077 25.8565 19.6494 25.8565 18.2889C25.8565 13.4248 25.8565 8.56061 25.8565 3.69645C25.8565 2.314 25.2282 1.67764 23.88 1.67032C20.4424 1.67764 16.9976 1.67764 13.5529 1.67764Z" fill="#5A5D6B"/>
<path d="M13.4966 15.5313C13.4966 15.7362 13.5672 16.0287 13.4754 16.2409C13.3837 16.4676 13.1366 16.7602 12.9531 16.7602C12.7625 16.7675 12.459 16.4822 12.4025 16.2701C12.3107 15.9117 12.3742 15.5094 12.3601 15.129C12.3319 14.0538 11.6825 13.337 10.6448 13.3224C9.16954 13.2931 7.69425 13.2931 6.21896 13.3224C5.18837 13.3443 4.5319 14.0684 4.50366 15.1364C4.49661 15.4801 4.51072 15.8312 4.49661 16.175C4.47543 16.5481 4.31308 16.8114 3.91778 16.8041C3.52249 16.7894 3.36719 16.5188 3.37425 16.1458C3.38837 15.5679 3.36014 14.9681 3.47308 14.4122C3.73425 13.1176 4.79308 12.2179 6.06366 12.1886C7.46837 12.1594 8.88013 12.2398 10.2778 12.1594C12.3813 12.035 13.666 13.6588 13.4966 15.5313Z" fill="#5A5D6B"/>
<path d="M8.44221 10.989C6.89633 10.989 5.61162 9.6651 5.61868 8.07053C5.62574 6.46134 6.88927 5.16667 8.45633 5.17398C9.99515 5.1813 11.2375 6.46134 11.2516 8.0559C11.2728 9.65047 9.98809 10.989 8.44221 10.989ZM8.42104 9.81139C9.34574 9.8187 10.1081 9.05068 10.1222 8.10711C10.1363 7.14159 9.3528 6.31505 8.42809 6.32968C7.51751 6.33699 6.75515 7.14159 6.75515 8.07785C6.74809 9.02873 7.50339 9.80407 8.42104 9.81139Z" fill="#5A5D6B"/>
<path d="M19.6943 7.4927C18.6426 7.4927 17.5908 7.48539 16.539 7.4927C16.1226 7.50002 15.7626 7.3903 15.7696 6.90023C15.7767 6.41015 16.1508 6.31506 16.5532 6.31506C18.6426 6.32238 20.7249 6.31506 22.8143 6.31506C23.2167 6.31506 23.5696 6.38821 23.619 6.8856C23.6543 7.27327 23.3508 7.48539 22.8002 7.48539C21.7626 7.50002 20.7249 7.4927 19.6943 7.4927Z" fill="#5A5D6B"/>
<path d="M19.6798 10.989C20.7316 10.989 21.7833 10.9963 22.8351 10.989C23.2516 10.989 23.6116 11.0768 23.6116 11.5815C23.6116 12.0789 23.2374 12.174 22.828 12.174C20.7386 12.174 18.6563 12.174 16.5669 12.174C16.5174 12.174 16.461 12.174 16.4116 12.174C16.0233 12.1593 15.748 11.9765 15.7692 11.5522C15.7833 11.1646 16.0516 10.9963 16.4186 10.9963C17.5057 10.9963 18.5927 10.9963 19.6798 10.989Z" fill="#5A5D6B"/>
<path d="M19.7014 16.8114C18.6496 16.8114 17.5908 16.804 16.539 16.8114C16.1226 16.8114 15.7626 16.7236 15.7696 16.2189C15.7767 15.7508 16.1226 15.6557 16.5179 15.663C18.6285 15.6703 20.739 15.6703 22.8426 15.663C23.252 15.663 23.619 15.7434 23.612 16.2555C23.6049 16.7309 23.252 16.8187 22.8638 16.8114C21.8049 16.804 20.7532 16.8114 19.7014 16.8114Z" fill="#5A5D6B"/>
</svg>
