<svg width="28" height="20" viewBox="0 0 28 20" fill="none" xmlns="http://www.w3.org/2000/svg">
<path d="M21.3002 5.33179H2.33188C1.04413 5.33179 0 6.42165 0 7.76582V17.066C0 18.4102 1.04413 19.5 2.33188 19.5H21.3002C22.5879 19.5 23.6321 18.4102 23.6321 17.066V7.76582C23.6321 6.42165 22.5705 5.33179 21.3002 5.33179ZM20.0298 10.7085H20.7781V12.1071H20.0298V10.7085ZM18.9857 10.7085H19.734V12.1071H18.9857V10.7085ZM17.9416 10.7085H18.6899V12.1071H17.9416V10.7085ZM12.7557 10.7085H13.504V12.1071H12.7557V10.7085ZM11.7116 10.7085H12.4599V12.1071H11.7116V10.7085ZM9.65817 10.7085H10.4065V12.1071H9.65817V10.7085ZM8.61405 10.7085H9.36234V12.1071H8.61405V10.7085ZM7.56992 10.7085H8.31821V12.1071H7.56992V10.7085ZM4.47234 10.7085H5.22063V12.1071H4.47234V10.7085ZM3.42822 10.7085H4.17651V12.1071H3.42822V10.7085ZM2.38409 10.7085H3.13238V12.1071H2.38409V10.7085ZM1.33996 10.7085H2.08825V12.1071H1.33996V10.7085ZM5.7427 17.4293H1.86203V16.3939H5.7427V17.4293ZM6.52579 10.7085H7.27408V12.1071H6.52579V10.7085ZM13.7303 17.4293H7.08266V16.3939H13.7303V17.4293ZM14.5482 12.1071H13.7999V10.7085H14.5482V12.1071ZM15.5923 12.1071H14.844V10.7085H15.5923V12.1071ZM16.8975 10.7085H17.6457V12.1071H16.8975V10.7085ZM20.5519 18.1014C20.2561 18.1014 19.9776 18.0106 19.734 17.8652C19.4904 18.0106 19.2119 18.1014 18.9161 18.1014C18.0112 18.1014 17.2803 17.3385 17.2803 16.3939C17.2803 15.4494 18.0112 14.6865 18.9161 14.6865C19.2119 14.6865 19.4904 14.7773 19.734 14.9226C19.9776 14.7773 20.2561 14.6865 20.5519 14.6865C21.4568 14.6865 22.1877 15.4494 22.1877 16.3939C22.1877 17.3385 21.4568 18.1014 20.5519 18.1014Z" fill="#575756"/>
<path d="M28 3.31549V2.93403C28 1.58987 26.9559 0.5 25.6681 0.5H6.6998C5.41205 0.5 4.36792 1.58987 4.36792 2.93403V3.31549H28Z" fill="#575756"/>
<path d="M25.1112 7.58411C25.1112 7.6386 25.1112 7.69309 25.1112 7.76575V14.6682H25.6507C26.9384 14.6682 27.9826 13.5784 27.9826 12.2342V7.58411H25.1112Z" fill="#575756"/>
</svg>
