<svg width="22" height="22" viewBox="0 0 22 22" fill="none" xmlns="http://www.w3.org/2000/svg">
<path d="M0.5 19.1667H21.5V21.5H0.5V19.1667ZM4 15.6667C5.28333 15.6667 6.33333 14.6167 6.33333 13.3333C6.33333 12.75 6.1 12.1667 5.75 11.8167L7.26667 8.66667H7.5C8.08333 8.66667 8.66667 8.43333 9.01667 8.08333L12.1667 9.71667V9.83333C12.1667 11.1167 13.2167 12.1667 14.5 12.1667C15.7833 12.1667 16.8333 11.1167 16.8333 9.83333C16.8333 9.25 16.6 8.78333 16.25 8.31667L17.7667 5.16667H18C19.2833 5.16667 20.3333 4.11667 20.3333 2.83333C20.3333 1.55 19.2833 0.5 18 0.5C16.7167 0.5 15.6667 1.55 15.6667 2.83333C15.6667 3.41667 15.9 4 16.25 4.35L14.7333 7.5H14.5C13.9167 7.5 13.3333 7.73333 12.9833 8.08333L9.83333 6.56667V6.33333C9.83333 5.05 8.78333 4 7.5 4C6.21667 4 5.16667 5.05 5.16667 6.33333C5.16667 6.91667 5.4 7.5 5.75 7.85L4.23333 11H4C2.71667 11 1.66667 12.05 1.66667 13.3333C1.66667 14.6167 2.71667 15.6667 4 15.6667Z" fill="white"/>
</svg>
