<svg width="22" height="25" viewBox="0 0 22 25" fill="none" xmlns="http://www.w3.org/2000/svg">
<path fill-rule="evenodd" clip-rule="evenodd" d="M16.0006 13.5346V4.38946C16.0006 3.75826 15.489 3.24646 14.8578 3.24646H8.00062V6.67507C8.00062 7.93744 6.97718 8.96088 5.71481 8.96088H2.28621V20.3894C2.28621 21.0206 2.79781 21.5324 3.42901 21.5324H11.4495C11.0058 22.2203 10.9673 23.0966 11.3399 23.818H3.42861C1.53504 23.818 0 22.283 0 20.3894V6.6882C0 6.38686 0.119007 6.09774 0.331189 5.88385L4.87429 1.2992C5.08896 1.08262 5.38113 0.960938 5.68608 0.960938H14.8576C16.7512 0.960938 18.2862 2.49598 18.2862 4.38955V13.9417C17.6181 13.674 16.8979 13.5322 16.1596 13.5322C16.1064 13.5322 16.0534 13.533 16.0004 13.5345L16.0006 13.5346ZM9.14342 15.8181H5.71481C5.08361 15.8181 4.57201 15.3065 4.57201 14.6753C4.57201 14.044 5.08361 13.5323 5.71481 13.5323H9.14342C9.51727 13.5323 9.84922 13.7117 10.0578 13.9893C9.50254 14.4062 9.14342 15.0703 9.14342 15.8181ZM9.14342 19.2467H5.71481C5.08361 19.2467 4.57201 18.7351 4.57201 18.1039C4.57201 17.4727 5.08361 16.9609 5.71481 16.9609H9.14342V19.2467ZM2.76523 6.67493H5.71496V3.6986L2.76523 6.67493ZM9.14342 10.1035C9.77463 10.1035 10.2862 10.6153 10.2862 11.2465C10.2862 11.8778 9.77463 12.3893 9.14342 12.3893H5.71481C5.08361 12.3893 4.57201 11.8778 4.57201 11.2465C4.57201 10.6153 5.08361 10.1035 5.71481 10.1035H9.14342ZM12.572 12.3893C11.9408 12.3893 11.4292 11.8778 11.4292 11.2465C11.4292 10.6153 11.9408 10.1035 12.572 10.1035C13.2032 10.1035 13.7148 10.6153 13.7148 11.2465C13.7148 11.8778 13.2032 12.3893 12.572 12.3893ZM12.572 16.4132C13.4093 15.3544 14.7052 14.6752 16.1598 14.6752C17.4164 14.6752 18.5945 15.1862 19.4497 16.0726C19.888 16.5268 19.875 17.2502 19.4208 17.6886C18.9666 18.1269 18.2432 18.1139 17.8049 17.6597C17.3761 17.2152 16.7895 16.9607 16.1598 16.9607C15.3138 16.9607 14.5751 17.4205 14.1798 18.1037H14.8578C15.489 18.1037 16.0006 18.6153 16.0006 19.2465C16.0006 19.8777 15.489 20.3893 14.8578 20.3893H11.4292C10.798 20.3893 10.2862 19.8777 10.2862 19.2465V15.8179C10.2862 15.1867 10.798 14.6751 11.4292 14.6751C12.0604 14.6751 12.572 15.1867 12.572 15.8179L12.572 16.4132ZM19.4273 23.2229C18.59 24.2815 17.2941 24.9609 15.8395 24.9609C14.5829 24.9609 13.4048 24.4496 12.5496 23.5634C12.1113 23.1092 12.1243 22.3856 12.5785 21.9473C13.0327 21.5092 13.7561 21.522 14.1944 21.9762C14.6232 22.4206 15.2098 22.6751 15.8395 22.6751C16.6855 22.6751 17.4242 22.2156 17.8195 21.5323H17.1415C16.5103 21.5323 15.9987 21.0205 15.9987 20.3893C15.9987 19.7581 16.5103 19.2465 17.1415 19.2465H20.5701C21.2013 19.2465 21.7131 19.7581 21.7131 20.3893V23.8179C21.7131 24.4491 21.2013 24.9609 20.5701 24.9609C19.9389 24.9609 19.4273 24.4491 19.4273 23.8179L19.4273 23.2229Z" fill="white"/>
</svg>
