<svg width="44" height="41" viewBox="0 0 44 41" fill="none" xmlns="http://www.w3.org/2000/svg">
<path d="M35.2049 27.1816C35.4367 26.0846 35.3365 25.184 34.8966 24.5734C34.3481 23.8119 33.5368 23.7609 33.3785 23.7609H33.2952H33.2766L33.2593 23.7676L33.1968 23.7917L33.1967 23.7914L33.19 23.7946C31.3571 24.662 28.8994 25.8426 27.608 26.4691L27.6079 26.4689L27.6016 26.4725L27.5739 26.4885L27.556 26.4471L27.5563 26.447L27.5527 26.4401C27.3149 25.99 26.8362 25.3854 25.9026 25.1845L25.8947 25.1828L25.8866 25.1824L17.8405 24.7735C15.0066 23.8585 12.7296 23.4718 10.4713 23.4718C10.4712 23.4718 10.4711 23.4718 10.471 23.4718L4.82789 23.4477L4.72747 23.4473V23.5477V24.5114V24.6114H4.82747H11.5539C12.8894 24.6114 14.9144 25.0396 17.594 25.9041L17.6264 25.9229L17.6473 25.935L17.6714 25.9362L25.6801 26.3453C26.1174 26.4486 26.3992 26.6838 26.569 26.966C26.7413 27.2523 26.8011 27.5925 26.7814 27.9016C26.7615 28.1884 26.6722 28.4832 26.5152 28.7094C26.3595 28.9338 26.1401 29.0879 25.8533 29.1093L25.8533 29.1092L25.848 29.1099L25.6627 29.1337C24.8092 29.2059 23.0001 29.3261 21.1685 29.4465L21.1685 29.4465C19.7108 29.5429 18.5658 29.6151 17.7125 29.6633L17.7122 29.6633L15.2757 29.8078L15.2496 30.0024L17.6021 30.7971C17.6022 30.7972 17.6023 30.7972 17.6025 30.7973C17.8165 30.8715 18.2945 30.9989 18.7971 31.1133C19.2995 31.2278 19.837 31.3318 20.168 31.3565L20.2789 31.3647L20.2754 31.2537L20.2576 30.6752L21.1819 30.6097C22.063 30.5492 22.9478 30.4886 23.7291 30.4351C24.8128 30.361 25.6974 30.3004 26.0968 30.2724L26.1074 30.2717L26.1176 30.2687L26.1981 30.2455C27.1066 30.0387 27.7499 29.123 27.814 27.986L27.8141 27.9861V27.9804V27.98V27.9796V27.9791V27.9787V27.9783V27.9779V27.9774V27.977V27.9766V27.9762V27.9757V27.9753V27.9749V27.9744V27.974V27.9736V27.9731V27.9727V27.9723V27.9718V27.9714V27.971V27.9705V27.9701V27.9697V27.9692V27.9688V27.9683V27.9679V27.9675V27.967V27.9666V27.9662V27.9657V27.9653V27.9648V27.9644V27.9639V27.9635V27.9631V27.9626V27.9622V27.9617V27.9613V27.9608V27.9604V27.9599V27.9595V27.959V27.9586V27.9581V27.9577V27.9573V27.9568V27.9564V27.9559V27.9554V27.955V27.9545V27.9541V27.9536V27.9532V27.9527V27.9523V27.9518V27.9514V27.9509V27.9505V27.95V27.9495V27.9491V27.9486V27.9482V27.9477V27.9473V27.9468V27.9463V27.9459V27.9454V27.945V27.9445V27.944V27.9436V27.9431V27.9426V27.9422V27.9417V27.9413V27.9408V27.9403V27.9399V27.9394V27.9389V27.9385V27.938V27.9375V27.9371V27.9366V27.9361V27.9357V27.9352V27.9347V27.9343V27.9338V27.9333V27.9329V27.9324V27.9319V27.9314V27.931V27.9305V27.93V27.9296V27.9291V27.9286V27.9281V27.9277V27.9272V27.9267V27.9262V27.9258V27.9253V27.9248V27.9244V27.9239V27.9234V27.9229V27.9224V27.922V27.9215V27.921V27.9205V27.9201V27.9196V27.9191V27.9186V27.9181V27.9177V27.9172V27.9167V27.9162V27.9158V27.9153V27.9148V27.9143V27.9138V27.9133V27.9129V27.9124V27.9119V27.9114V27.9109V27.9105V27.91V27.9095V27.909V27.9085V27.908V27.9076V27.9071V27.9066V27.9061V27.9056V27.9051V27.9046V27.9042V27.9037V27.9032V27.9027V27.9022V27.9017V27.9012V27.9008V27.9003V27.8998V27.8993V27.8988V27.8983V27.8978V27.8974V27.8969V27.8964V27.8959V27.8954V27.8949V27.8944V27.8939V27.8934V27.893V27.8925V27.892V27.8915V27.891V27.8905V27.89V27.8895V27.889V27.8885V27.8881V27.8876V27.8871V27.8866V27.8861V27.8856V27.8851V27.8846V27.8841V27.8836V27.8831V27.8827V27.8822V27.8817V27.8812V27.8807V27.8802V27.8797V27.8792V27.8787V27.8782V27.8777V27.8772V27.8767V27.8763V27.8758V27.8753V27.8748V27.8743V27.8738V27.8733V27.8728V27.8723V27.8718V27.8713V27.8708V27.8703V27.8698V27.8693V27.8689V27.8684V27.8679V27.8674V27.8669V27.8664V27.8659V27.8654V27.8649V27.8644V27.8639V27.8634V27.8629V27.8624V27.8619V27.8614V27.8609V27.8605V27.86V27.8595V27.859V27.8585V27.858V27.8575V27.857V27.8565V27.856V27.8555V27.855V27.8545V27.854V27.8535V27.853V27.8526V27.8521V27.8516V27.8511V27.8506V27.8501V27.8496V27.8491V27.8486V27.8481V27.8476V27.8471V27.8466V27.8461V27.8456V27.8451V27.8447V27.8442V27.8437V27.8432V27.8427V27.8422V27.8417V27.8412V27.8407V27.8402V27.8397V27.8392V27.8387V27.8383V27.8378V27.8373V27.8368V27.8363V27.8358V27.8353V27.8348V27.8343V27.8338V27.8333V27.8328V27.8324V27.8319V27.8314V27.8309V27.8304V27.8299V27.8294V27.8289V27.8284V27.8279V27.8275V27.827V27.8265V27.826V27.8255V27.825V27.8245V27.824V27.8235V27.8231V27.8226V27.8221V27.8216V27.8211V27.8206V27.8201V27.8196V27.8192V27.8187V27.8182V27.8177V27.8172V27.8167V27.8162V27.8158V27.8153V27.8148V27.8143V27.8138V27.8133V27.8129V27.8124V27.8119V27.8114V27.8109V27.8104V27.8099V27.8095V27.809V27.8085V27.808V27.8075V27.8071V27.8066V27.8061V27.8056V27.8051V27.8047V27.8042V27.8037V27.8032V27.8027V27.8023V27.8018V27.8013V27.8008V27.8003V27.7999V27.7994V27.7989V27.7984V27.798V27.7975V27.797V27.7965V27.796V27.7956V27.7951V27.7946V27.7941V27.7937V27.7932V27.7927V27.7923V27.7918V27.7913V27.7908V27.7904V27.7899V27.7894V27.7889V27.7885V27.788V27.7875V27.7871V27.7866V27.7861V27.7857V27.7852V27.7847V27.7843V27.7838V27.7833V27.7829V27.7824V27.7819V27.7815V27.781V27.7805V27.7801V27.7796V27.7791V27.7787V27.7782V27.7777V27.7773V27.7768V27.7763V27.7759V27.7754V27.775V27.7745V27.774V27.7736V27.7731V27.7727V27.7722V27.7718V27.7713V27.7708V27.7704V27.7699V27.7695V27.769V27.7686V27.7681V27.7676V27.7672V27.7667V27.7663V27.7658V27.7654V27.7649V27.7645V27.764V27.7636V27.7631V27.7627V27.7622V27.7618V27.7613V27.7609V27.7604V27.76V27.7595V27.7591V27.7586V27.7582V27.7578V27.7573V27.7569V27.7564V27.756V27.7555V27.7551V27.7547V27.7542V27.7538V27.7533V27.7529V27.7524V27.752V27.7516V27.7511V27.7507V27.7503V27.7498V27.7494V27.749V27.7485V27.7481V27.7477V27.7472V27.7468V27.7464V27.7459V27.7455V27.7451V27.7446V27.7442V27.7438V27.7433V27.7429V27.7425V27.7421V27.7416V27.7412V27.7408V27.7404V27.7399V27.7395V27.683L27.8603 27.6616L27.8603 27.6616L27.8621 27.6608C29.0487 27.0828 31.6098 25.8543 33.4421 24.9872L33.4612 24.9782L33.4648 24.9741C33.6387 24.9995 33.9053 25.0901 34.0652 25.3367L34.0651 25.3367L34.0663 25.3384C34.1675 25.4873 34.2323 25.7029 34.2524 25.982C34.2724 26.26 34.2476 26.594 34.1759 26.9732C34.1047 27.3159 33.8917 27.7109 33.5578 28.1436C33.2247 28.5752 32.7769 29.0373 32.2461 29.5133C31.1847 30.4652 29.7989 31.4662 28.3556 32.3829C26.9126 33.2994 25.4148 34.13 24.1306 34.7417C23.4884 35.0475 22.9008 35.2981 22.4009 35.4772C21.9011 35.6563 21.4957 35.7615 21.2131 35.7822H21.2131H21.213H21.2128H21.2127H21.2126H21.2125H21.2123H21.2122H21.2121H21.212H21.2119H21.2117H21.2116H21.2115H21.2114H21.2112H21.2111H21.211H21.2109H21.2107H21.2106H21.2105H21.2104H21.2103H21.2101H21.21H21.2099H21.2098H21.2096H21.2095H21.2094H21.2093H21.2091H21.209H21.2089H21.2088H21.2086H21.2085H21.2084H21.2083H21.2081H21.208H21.2079H21.2078H21.2076H21.2075H21.2074H21.2073H21.2072H21.207H21.2069H21.2068H21.2066H21.2065H21.2064H21.2063H21.2062H21.206H21.2059H21.2058H21.2056H21.2055H21.2054H21.2053H21.2051H21.205H21.2049H21.2048H21.2046H21.2045H21.2044H21.2043H21.2041H21.204H21.2039H21.2038H21.2036H21.2035H21.2034H21.2032H21.2031H21.203H21.2029H21.2027H21.2026H21.2025H21.2023H21.2022H21.2021H21.202H21.2018H21.2017H21.2016H21.2014H21.2013H21.2012H21.2011H21.2009H21.2008H21.2007H21.2005H21.2004H21.2003H21.2001H21.2H21.1999H21.1998H21.1996H21.1995H21.1994H21.1992H21.1991H21.199H21.1988H21.1987H21.1986H21.1984H21.1983H21.1982H21.198H21.1979H21.1978H21.1976H21.1975H21.1974H21.1973H21.1971H21.197H21.1968H21.1967H21.1966H21.1964H21.1963H21.1962H21.196H21.1959H21.1958H21.1956H21.1955H21.1954H21.1952H21.1951H21.195H21.1948H21.1947H21.1946H21.1944H21.1943H21.1941H21.194H21.1939H21.1937H21.1936H21.1935H21.1933H21.1932H21.193H21.1929H21.1928H21.1926H21.1925H21.1924H21.1922H21.1921H21.1919H21.1918H21.1917H21.1915H21.1914H21.1912H21.1911H21.191H21.1908H21.1907H21.1905H21.1904H21.1903H21.1901H21.19H21.1898H21.1897H21.1895H21.1894H21.1893H21.1891H21.189H21.1888H21.1887H21.1885H21.1884H21.1882H21.1881H21.188H21.1878H21.1877H21.1875H21.1874H21.1872H21.1871H21.1869H21.1868H21.1866H21.1865H21.1863H21.1862H21.1861H21.1859H21.1858H21.1856H21.1855H21.1853H21.1852H21.185H21.1849H21.1847H21.1846H21.1844H21.1843H21.1841H21.184H21.1838H21.1837H21.1835H21.1834H21.1832H21.1831H21.1829H21.1827H21.1826H21.1824H21.1823H21.1821H21.182H21.1818H21.1817H21.1815H21.1814H21.1812H21.1811H21.1809H21.1807H21.1806H21.1804H21.1803H21.1801H21.18H21.1798H21.1796H21.1795H21.1793H21.1792H21.179H21.1789H21.1787H21.1785H21.1784H21.1782H21.1781H21.1779H21.1777H21.1776H21.1774H21.1772H21.1771H21.1769H21.1768H21.1766H21.1764H21.1763H21.1761H21.1759H21.1758H21.1756H21.1755H21.1753H21.1751H21.175H21.1748H21.1746H21.1745H21.1743H21.1741H21.174H21.1738H21.1736H21.1735H21.1733H21.1731H21.173H21.1728H21.1726H21.1724H21.1723H21.1721H21.1719H21.1718H21.1716H21.1714H21.1712H21.1711H21.1709H21.1707H21.1706H21.1704H21.1702H21.17H21.1699H21.1697H21.1695H21.1693H21.1692H21.169H21.1688H21.1686H21.1685H21.1683H21.1681H21.1679H21.1677H21.1676H21.1674H21.1672H21.167H21.1668H21.1667H21.1665H21.1663H21.1661H21.1659H21.1658H21.1656H21.1654H21.1652H21.165H21.1648H21.1647H21.1645H21.1643H21.1641H21.1639H21.1637H21.1635H21.1634H21.1632H21.163H21.1628H21.1626H21.1624H21.1622H21.1621H21.1619H21.1617H21.1615H21.1613H21.1611H21.1609H21.1607H21.1605H21.1603H21.1601H21.16H21.1598H21.1596H21.1594H21.1592H21.159H21.1588H21.1586H21.1584H21.1582H21.158H21.1578H21.1576H21.1574H21.1572H21.157H21.1568H21.1566H21.1564H21.1562H21.156H21.1558H21.1556H21.1554H21.1552H21.155H21.1548H21.1546H21.1544H21.1542H21.154H21.1538H21.1536H21.1534H21.1532H21.153H21.1528H21.1526H21.1524H21.1521H21.1519H21.1517H21.1515H21.1513H21.1511H21.1509H21.1507H21.1505H21.1503H21.15H21.1498H21.1496H21.1494H21.1492H21.149H21.1488H21.1486H21.1483H21.1481H21.1479H21.1477H21.1475H21.1473H21.147H21.1468H21.1466H21.1464H21.1462H21.146H21.1457H21.1455H21.1453H21.1451H21.1448H21.1446H21.1444H21.1442H21.144H21.1437H21.1435H21.1433H21.1431H21.1428H21.1426H21.1424H21.1422H21.1419H21.1417H21.1415H21.1412H21.141H21.1408H21.1406H21.1403H21.1401H21.1399H21.1396H21.1394H21.1392H21.1389H21.1387H21.1385H21.1382H21.138H21.1378H21.1375H21.1373H21.1371H21.1368H21.1366H21.1363H21.1361H21.1359H21.1356H21.1354H21.1351H21.1349H21.1347H21.1344H21.1342H21.1339H21.1337H21.1334C20.9512 35.7822 20.6338 35.7391 20.2077 35.6596C19.784 35.5805 19.2598 35.4668 18.6676 35.3282C17.4835 35.0512 16.0308 34.6758 14.5736 34.283C11.668 33.4997 8.74928 32.6482 7.90795 32.3692C7.84616 32.337 7.78556 32.3371 7.74775 32.3372C7.74611 32.3372 7.74452 32.3372 7.74297 32.3372H7.72214V32.3367L7.71255 32.3377C7.57267 32.3511 7.35312 32.4101 6.91564 32.5788C6.47565 32.7484 5.80721 33.0324 4.76552 33.5024L4.70664 33.529V33.5936V34.6295V34.7829L4.84702 34.7209C6.43403 34.0204 7.3834 33.6149 7.70827 33.521L7.747 33.5098L7.76713 33.4748L7.77482 33.4615C8.63481 33.7423 11.4936 34.5826 14.3758 35.3584C15.8419 35.753 17.3153 36.1313 18.536 36.411C19.7516 36.6896 20.7293 36.8735 21.1959 36.8735H21.196H21.1962H21.1963H21.1964H21.1965H21.1967H21.1968H21.1969H21.197H21.1972H21.1973H21.1974H21.1975H21.1977H21.1978H21.1979H21.1981H21.1982H21.1983H21.1985H21.1986H21.1987H21.1988H21.199H21.1991H21.1992H21.1994H21.1995H21.1996H21.1998H21.1999H21.2001H21.2002H21.2003H21.2005H21.2006H21.2007H21.2009H21.201H21.2012H21.2013H21.2014H21.2016H21.2017H21.2019H21.202H21.2021H21.2023H21.2024H21.2026H21.2027H21.2029H21.203H21.2032H21.2033H21.2034H21.2036H21.2037H21.2039H21.204H21.2042H21.2043H21.2045H21.2046H21.2048H21.2049H21.2051H21.2052H21.2054H21.2055H21.2057H21.2058H21.206H21.2061H21.2063H21.2064H21.2066H21.2067H21.2069H21.207H21.2072H21.2074H21.2075H21.2077H21.2078H21.208H21.2081H21.2083H21.2084H21.2086H21.2088H21.2089H21.2091H21.2092H21.2094H21.2096H21.2097H21.2099H21.21H21.2102H21.2104H21.2105H21.2107H21.2108H21.211H21.2112H21.2113H21.2115H21.2116H21.2118H21.212H21.2121H21.2123H21.2125H21.2126H21.2128H21.213H21.2131H21.2133H21.2135H21.2136H21.2138H21.214H21.2141H21.2143H21.2145H21.2146H21.2148H21.215H21.2151H21.2153H21.2155H21.2156H21.2158H21.216H21.2161H21.2163H21.2165H21.2167H21.2168H21.217H21.2172H21.2173H21.2175H21.2177H21.2178H21.218H21.2182H21.2184H21.2185H21.2187H21.2189H21.2191H21.2192H21.2194H21.2196H21.2197H21.2199H21.2201H21.2203H21.2204H21.2206H21.2208H21.221H21.2211H21.2213H21.2215H21.2217H21.2218H21.222H21.2222H21.2224H21.2226H21.2227H21.2229H21.2231H21.2233H21.2234H21.2236H21.2238H21.224H21.2241H21.2243H21.2245H21.2247H21.2249H21.225H21.2252H21.2254H21.2256H21.2258H21.2259H21.2261H21.2263H21.2265H21.2267H21.2268H21.227H21.2272H21.2274H21.2276H21.2277H21.2279H21.2281H21.2283H21.2285H21.2286H21.2288H21.229H21.2292H21.2294H21.2295H21.2297H21.2299H21.2301H21.2303H21.2304H21.2306H21.2308H21.231H21.2312H21.2314H21.2315H21.2317H21.2319H21.2321H21.2323H21.2324H21.2326H21.2328H21.233H21.2332H21.2334H21.2335H21.2337H21.2339H21.2341H21.2343H21.2345H21.2346H21.2348H21.235H21.2352H21.2354H21.2356H21.2357H21.2359H21.2361H21.2363H21.2365H21.2367H21.2368H21.237H21.2372H21.2374H21.2376H21.2378H21.2379H21.2381H21.2383H21.2385H21.2387H21.2388H21.239H21.2392H21.2394H21.2396H21.2398H21.2399H21.2401H21.2403H21.2405H21.2407H21.2409H21.241H21.2412H21.2414H21.2416H21.2418H21.242H21.2421H21.2423H21.2425H21.2427H21.2429H21.243H21.2432H21.2434H21.2436H21.2438H21.244H21.2441H21.2443H21.2445H21.2447H21.2449H21.2451H21.2452H21.2454H21.2456H21.2458H21.246H21.2461H21.2463H21.2465H21.2467H21.2469H21.247H21.2472H21.2474H21.2476H21.2478H21.2479H21.2481H21.2483H21.2485H21.2487H21.2488H21.249H21.2492H21.2494H21.2496H21.2497H21.2499H21.2501H21.2503H21.2505H21.2506H21.2508H21.251H21.2512H21.2513H21.2515H21.2517H21.2519H21.2521H21.2522H21.2524H21.2526H21.2528H21.2529H21.2531H21.2533H21.2535H21.2536H21.2538H21.254H21.2542H21.2543H21.2545H21.2547H21.2549H21.255H21.2552H21.2554H21.2556H21.2557H21.2559H21.2561H21.2563H21.2564H21.2566H21.2568H21.2569H21.2571H21.2573H21.2575H21.2576H21.2578H21.258H21.2581H21.2583H21.2585H21.2587H21.2588H21.259H21.2592H21.2593H21.2595H21.2597H21.2598H21.26H21.2602H21.2603H21.2605H21.2607H21.2608H21.261H21.2612H21.2613H21.2615H21.2617H21.2618H21.262H21.2622H21.2623H21.2625H21.2627H21.2628H21.263H21.2632H21.2633H21.2635H21.2637H21.2638H21.264H21.2641H21.2643H21.2645H21.2646H21.2648H21.2649H21.2651H21.2653H21.2654H21.2656H21.2657H21.2659H21.2661H21.2662H21.2664H21.2665H21.2667H21.2668H21.267H21.2672H21.2673H21.2675H21.2676H21.2678H21.2679H21.2681H21.2682H21.2684H21.2686H21.2687H21.2689H21.269H21.2692H21.2693H21.2695H21.2696H21.2698H21.2699H21.2701H21.2702H21.2704H21.2705H21.2707H21.2708H21.271H21.2711H21.2713H21.2714H21.2715H21.2717H21.2718H21.272H21.2721H21.2723H21.2724H21.2726H21.2727H21.2728H21.273H21.2731H21.2733H21.2734H21.2736H21.2737H21.2738H21.274H21.2741H21.2743H21.2744H21.2745H21.2747H21.2748H21.2749H21.2751H21.2752H21.2754H21.2755H21.2756H21.2758H21.2759H21.276H21.2762H21.2763H21.2764H21.2766H21.2767H21.2768H21.2769H21.2771H21.2772H21.2773H21.2775H21.2776H21.2777H21.2778H21.278H21.2781H21.2782H21.2784H21.2785H21.2786H21.2787H21.2789H21.279H21.2791H21.2792V36.8738L21.2861 36.8733C21.6068 36.8513 22.0516 36.7386 22.5808 36.5558C23.1119 36.3724 23.7345 36.1162 24.413 35.8028C25.7702 35.176 27.3554 34.3187 28.8868 33.3529C30.418 32.3873 31.8982 31.3116 33.0438 30.2474C34.1848 29.1875 35.0107 28.1241 35.2049 27.1816ZM35.2049 27.1816C35.2049 27.1817 35.2049 27.1819 35.2049 27.182L35.107 27.1613M35.2049 27.1816C35.205 27.1816 35.205 27.1815 35.205 27.1815L35.107 27.1613M35.107 27.1613C35.3361 26.0772 35.232 25.21 34.8155 24.6318C34.2948 23.9091 33.5243 23.8609 33.3785 23.8609H33.2952M35.107 27.1613C34.3573 30.799 23.7366 36.6049 21.2792 36.7735L33.2952 23.8609M33.2952 23.8609L33.2328 23.885C31.4002 24.7523 28.9428 25.9327 27.6517 26.5591L27.6139 26.5809L33.2952 23.8609Z" fill="#EFEFEF" stroke="#EFEFEF" stroke-width="0.2"/>
<path d="M13.2467 6.65174L13.2467 6.65174L13.2464 6.65229C12.2547 8.64938 12.4897 11.0527 13.9075 13.2749C14.7068 14.5888 16.8934 17.0225 18.9078 19.1586C19.917 20.2288 20.8859 21.2272 21.6207 21.9774C22.0569 22.4227 22.4096 22.7795 22.6399 23.0125C22.7983 23.1728 22.8988 23.2744 22.9285 23.3058L22.9284 23.3058L22.9311 23.3084L23.248 23.6191L23.318 23.6878L23.388 23.6191L23.7049 23.3084L23.7049 23.3084L23.7075 23.3058C23.7375 23.274 23.8403 23.1701 24.0024 23.0061C24.2333 22.7725 24.5848 22.417 25.0184 21.9744C25.755 21.2228 26.7259 20.2229 27.7366 19.1527C29.7537 17.0166 31.9404 14.5888 32.7284 13.2989C34.1457 11.0776 34.4044 8.67381 33.3893 6.67574C32.4444 4.77778 30.5539 3.60901 28.4561 3.60901C27.1861 3.60901 25.28 4.04894 23.426 6.05481C23.4259 6.05496 23.4257 6.0551 23.4256 6.05525L23.318 6.1689L23.2106 6.0555C23.2104 6.05531 23.2102 6.05513 23.2101 6.05495C21.7692 4.48541 19.9786 3.60901 18.1798 3.60901C16.0821 3.60901 14.1916 4.77772 13.2467 6.65174ZM22.4296 6.86014L22.4296 6.86014L22.4305 6.86114C22.5857 7.02505 22.7415 7.21288 22.8999 7.404L23.2379 7.85614L23.318 7.96327L23.3981 7.85614L23.7361 7.404C23.8945 7.21288 24.0502 7.02505 24.2054 6.86114L24.2064 6.86014C25.8156 5.11364 27.3952 4.76509 28.4561 4.76509C30.1389 4.76509 31.666 5.7002 32.4184 7.19585C33.2135 8.78191 32.9981 10.7755 31.79 12.6418L31.79 12.6418L31.7885 12.6443C31.1498 13.6975 29.46 15.6256 27.7123 17.5071C25.9677 19.3853 24.1748 21.2069 23.3378 22.0428L23.3378 22.0428L23.3359 22.0448L23.318 22.0638L23.3 22.0448L23.3001 22.0448L23.2986 22.0433C22.4725 21.2069 20.6796 19.3853 18.9321 17.5041C17.1815 15.6196 15.4863 13.6856 14.8477 12.6208L14.8477 12.6208L14.8464 12.6187C13.6604 10.752 13.445 8.75804 14.2402 7.17182L14.2404 7.17144C14.97 5.70055 16.4966 4.76509 18.1798 4.76509C19.2408 4.76509 20.8204 5.11364 22.4296 6.86014Z" fill="#EFEFEF" stroke="#EFEFEF" stroke-width="0.2"/>
<path d="M17.0223 11.6739L17.0829 11.8709L17.2001 11.7014L17.6194 11.0952L17.6468 11.0555L17.6328 11.0093C17.3182 9.97211 17.2461 9.082 17.393 8.41625C17.4607 8.14993 17.5575 7.93708 17.6717 7.78967C17.7859 7.64235 17.9119 7.56673 18.0409 7.55598L18.1325 7.54833V7.45632V6.35417V6.24274L18.0218 6.25475C17.7321 6.28617 17.4685 6.46538 17.2531 6.74424C17.0375 7.02338 16.8643 7.40925 16.7539 7.87354C16.4943 8.91594 16.587 10.2576 17.0223 11.6739Z" fill="#EFEFEF" stroke="#EFEFEF" stroke-width="0.2"/>
</svg>
