<svg width="18" height="20" viewBox="0 0 18 20" fill="none" xmlns="http://www.w3.org/2000/svg">
<path d="M17.2938 15.9665C16.8423 14.8999 16.1871 13.9311 15.3646 13.1141C14.5446 12.2947 13.5733 11.6413 12.5042 11.1902C12.4947 11.1854 12.4851 11.183 12.4755 11.1783C13.9667 10.1042 14.9361 8.35453 14.9361 6.38054C14.9361 3.11044 12.2792 0.460938 9 0.460938C5.72077 0.460938 3.06387 3.11044 3.06387 6.38054C3.06387 8.35453 4.03328 10.1042 5.52449 11.1807C5.51492 11.1854 5.50534 11.1878 5.49577 11.1926C4.42343 11.6437 3.46121 12.2906 2.63541 13.1165C1.81371 13.9342 1.15857 14.9028 0.706172 15.9689C0.261734 17.0125 0.0220377 18.1315 5.98544e-05 19.2652C-0.00057901 19.2907 0.00390188 19.316 0.0132386 19.3398C0.0225753 19.3635 0.036579 19.3851 0.0544243 19.4033C0.0722696 19.4216 0.0935956 19.4361 0.117146 19.446C0.140696 19.4559 0.165993 19.4609 0.191548 19.4609H1.62771C1.73303 19.4609 1.8168 19.3774 1.8192 19.2748C1.86707 17.432 2.60908 15.7063 3.92078 14.3982C5.27795 13.0449 7.08033 12.3001 9 12.3001C10.9197 12.3001 12.722 13.0449 14.0792 14.3982C15.3909 15.7063 16.1329 17.432 16.1808 19.2748C16.1832 19.3798 16.267 19.4609 16.3723 19.4609H17.8085C17.834 19.4609 17.8593 19.4559 17.8829 19.446C17.9064 19.4361 17.9277 19.4216 17.9456 19.4033C17.9634 19.3851 17.9774 19.3635 17.9868 19.3398C17.9961 19.316 18.0006 19.2907 17.9999 19.2652C17.976 18.1243 17.739 17.0143 17.2938 15.9665ZM9 10.4861C7.90134 10.4861 6.8673 10.0588 6.08938 9.28305C5.31146 8.50729 4.88301 7.47614 4.88301 6.38054C4.88301 5.28493 5.31146 4.25378 6.08938 3.47802C6.8673 2.70227 7.90134 2.27501 9 2.27501C10.0987 2.27501 11.1327 2.70227 11.9106 3.47802C12.6885 4.25378 13.117 5.28493 13.117 6.38054C13.117 7.47614 12.6885 8.50729 11.9106 9.28305C11.1327 10.0588 10.0987 10.4861 9 10.4861Z" fill="white"/>
</svg>
