<svg width="24" height="24" viewBox="0 0 24 24" fill="none" xmlns="http://www.w3.org/2000/svg">
<path d="M11.9997 0.293945C5.56667 0.293945 0.333008 5.52761 0.333008 11.9606C0.333008 18.3936 5.56667 23.6273 11.9997 23.6273C18.4327 23.6273 23.6663 18.3936 23.6663 11.9606C23.6663 5.52761 18.4327 0.293945 11.9997 0.293945ZM2.66634 11.9606C2.66634 10.9118 2.84834 9.90494 3.16917 8.96344L4.99967 10.7939L7.33301 13.1273V15.4606L9.66634 17.7939L10.833 18.9606V21.2134C6.23751 20.6359 2.66634 16.7113 2.66634 11.9606ZM19.3847 17.6458C18.6228 17.0321 17.4678 16.6273 16.6663 16.6273V15.4606C16.6663 14.8418 16.4205 14.2483 15.9829 13.8107C15.5453 13.3731 14.9518 13.1273 14.333 13.1273H9.66634V9.62728C10.2852 9.62728 10.8787 9.38144 11.3163 8.94386C11.7538 8.50628 11.9997 7.91278 11.9997 7.29395V6.12728H13.1663C13.7852 6.12728 14.3787 5.88145 14.8163 5.44386C15.2538 5.00628 15.4997 4.41278 15.4997 3.79395V3.31445C18.9157 4.70161 21.333 8.05228 21.333 11.9606C21.3328 14.0194 20.6473 16.0196 19.3847 17.6458Z" fill="white"/>
</svg>
