<svg width="24" height="22" viewBox="0 0 24 22" fill="none" xmlns="http://www.w3.org/2000/svg">
<path d="M18.68 11.9615L14.333 15.4382H8.49967V14.2715H13.2422C13.3477 14.2714 13.4512 14.2428 13.5417 14.1885C13.6322 14.1343 13.7063 14.0565 13.7561 13.9635C13.8059 13.8705 13.8296 13.7657 13.8245 13.6603C13.8195 13.5549 13.786 13.4528 13.7275 13.365L12.6915 11.811C12.479 11.4911 12.1906 11.2288 11.8521 11.0474C11.5135 10.866 11.1354 10.7712 10.7513 10.7715H1.49967C1.19026 10.7715 0.893509 10.8944 0.674717 11.1132C0.455924 11.332 0.333008 11.6287 0.333008 11.9382V18.9382C0.333008 19.557 0.57884 20.1505 1.01643 20.5881C1.45401 21.0257 2.0475 21.2715 2.66634 21.2715H13.9118C14.4107 21.2716 14.9039 21.1651 15.3582 20.959C15.8125 20.753 16.2176 20.4522 16.5462 20.0768L23.6663 11.9382L21.9723 11.3735C21.4181 11.1887 20.8264 11.1458 20.2513 11.2485C19.6762 11.3512 19.136 11.5963 18.68 11.9615ZM20.4673 5.39315C20.9935 4.85065 21.319 4.10048 21.319 3.27215C21.319 2.44382 20.9935 1.69365 20.4673 1.15115C20.2012 0.873459 19.8818 0.652397 19.5281 0.501234C19.1745 0.35007 18.7939 0.271924 18.4093 0.271484C18.4093 0.271484 16.958 0.267984 15.4997 1.77182C14.0413 0.267984 12.59 0.271484 12.59 0.271484C12.2055 0.271973 11.8251 0.350028 11.4715 0.500977C11.1179 0.651925 10.7983 0.872665 10.532 1.14998C10.0058 1.69365 9.68034 2.44265 9.68034 3.27098C9.68034 4.09932 10.0058 4.85065 10.532 5.39198L15.4997 10.7715L20.4673 5.39315Z" fill="white"/>
</svg>
