<svg width="25" height="24" viewBox="0 0 25 24" fill="none" xmlns="http://www.w3.org/2000/svg">
<path d="M21.734 18.0535H19.8117C19.6805 18.0535 19.5574 18.111 19.4754 18.2124C19.284 18.4453 19.0789 18.6699 18.8629 18.8836C17.9794 19.7697 16.9329 20.4758 15.7813 20.963C14.5881 21.4679 13.3058 21.7269 12.0106 21.7246C10.7008 21.7246 9.43205 21.4671 8.23987 20.963C7.08823 20.4758 6.04172 19.7697 5.15823 18.8836C4.27315 18.0005 3.56741 16.9539 3.0801 15.8016C2.57424 14.6071 2.31994 13.3387 2.31994 12.0264C2.31994 10.7141 2.57698 9.4457 3.0801 8.25124C3.56682 7.09787 4.26682 6.05956 5.15823 5.16919C6.04963 4.27882 7.08596 3.57748 8.23987 3.08984C9.43205 2.58575 10.7008 2.32823 12.0106 2.32823C13.3203 2.32823 14.5891 2.58301 15.7813 3.08984C16.9352 3.57748 17.9715 4.27882 18.8629 5.16919C19.0789 5.38562 19.2813 5.61027 19.4754 5.84039C19.5574 5.94176 19.6832 5.99929 19.8117 5.99929H21.734C21.9063 5.99929 22.0129 5.80752 21.9172 5.66232C19.8199 2.39672 16.1504 0.235177 11.9805 0.246135C5.42893 0.262573 0.176194 5.59109 0.241819 12.1469C0.307444 18.5987 5.55198 23.8067 12.0106 23.8067C16.1696 23.8067 19.8227 21.6479 21.9172 18.3905C22.0102 18.2453 21.9063 18.0535 21.734 18.0535ZM24.1649 11.8538L20.2848 8.78546C20.1399 8.67039 19.9293 8.7745 19.9293 8.95805V11.0401H11.3434C11.2231 11.0401 11.1246 11.1388 11.1246 11.2593V12.7935C11.1246 12.914 11.2231 13.0127 11.3434 13.0127H19.9293V15.0947C19.9293 15.2783 20.1426 15.3824 20.2848 15.2673L24.1649 12.199C24.191 12.1785 24.2122 12.1523 24.2267 12.1224C24.2412 12.0925 24.2488 12.0597 24.2488 12.0264C24.2488 11.9931 24.2412 11.9603 24.2267 11.9304C24.2122 11.9005 24.191 11.8743 24.1649 11.8538Z" fill="white"/>
</svg>
