<svg width="28" height="29" viewBox="0 0 28 29" fill="none" xmlns="http://www.w3.org/2000/svg">
<path d="M13.9997 18.4609C11.853 18.4609 11.6663 17.4576 11.6663 17.2943H9.33301C9.33301 18.3676 10.103 20.2693 12.833 20.7009V21.9609H15.1663V20.7009C17.4997 20.3043 18.6663 18.7993 18.6663 17.2943C18.6663 15.9876 18.0597 13.7943 13.9997 13.7943C11.6663 13.7943 11.6663 13.0593 11.6663 12.6276C11.6663 12.1959 12.483 11.4609 13.9997 11.4609C15.5163 11.4609 15.6213 12.2076 15.633 12.6276H17.9663C17.9506 11.8328 17.6647 11.0671 17.1558 10.4564C16.6469 9.84569 15.9453 9.42644 15.1663 9.2676V7.96094H12.833V9.2326C10.4997 9.6176 9.33301 11.1226 9.33301 12.6276C9.33301 13.9343 9.93967 16.1276 13.9997 16.1276C16.333 16.1276 16.333 16.9209 16.333 17.2943C16.333 17.6676 15.6097 18.4609 13.9997 18.4609Z" fill="white"/>
<path d="M5.83301 3.29395H2.33301V5.62728H4.66634V25.4606C4.66634 25.77 4.78926 26.0668 5.00805 26.2856C5.22684 26.5044 5.52359 26.6273 5.83301 26.6273H22.1663C22.4758 26.6273 22.7725 26.5044 22.9913 26.2856C23.2101 26.0668 23.333 25.77 23.333 25.4606V5.62728H25.6663V3.29395H5.83301ZM20.9997 24.2939H6.99967V5.62728H20.9997V24.2939Z" fill="white"/>
</svg>
