<svg width="26" height="27" viewBox="0 0 26 27" fill="none" xmlns="http://www.w3.org/2000/svg">
<path d="M6 7.83594C5.30777 7.83594 4.63108 7.63067 4.0555 7.24608C3.47993 6.8615 3.03133 6.31487 2.76642 5.67533C2.50152 5.03579 2.4322 4.33206 2.56725 3.65312C2.7023 2.97419 3.03564 2.35055 3.52513 1.86107C4.01461 1.37158 4.63825 1.03824 5.31718 0.903191C5.99612 0.768142 6.69985 0.837454 7.33939 1.10236C7.97893 1.36727 8.52556 1.81587 8.91014 2.39144C9.29473 2.96702 9.5 3.6437 9.5 4.33594C9.5 5.2642 9.13125 6.15444 8.47487 6.81081C7.8185 7.46719 6.92826 7.83594 6 7.83594ZM6 2.58594C5.65388 2.58594 5.31554 2.68857 5.02775 2.88087C4.73997 3.07316 4.51566 3.34647 4.38321 3.66624C4.25076 3.98601 4.2161 4.33788 4.28363 4.67735C4.35115 5.01681 4.51782 5.32863 4.76256 5.57338C5.0073 5.81812 5.31913 5.98479 5.65859 6.05231C5.99806 6.11984 6.34993 6.08518 6.6697 5.95273C6.98947 5.82028 7.26278 5.59597 7.45507 5.30819C7.64736 5.0204 7.75 4.68206 7.75 4.33594C7.75 3.87181 7.56563 3.42669 7.23744 3.0985C6.90925 2.77031 6.46413 2.58594 6 2.58594ZM20 7.83594C19.3078 7.83594 18.6311 7.63067 18.0555 7.24608C17.4799 6.8615 17.0313 6.31487 16.7664 5.67533C16.5015 5.03579 16.4322 4.33206 16.5673 3.65312C16.7023 2.97419 17.0356 2.35055 17.5251 1.86107C18.0146 1.37158 18.6383 1.03824 19.3172 0.903191C19.9961 0.768142 20.6999 0.837454 21.3394 1.10236C21.9789 1.36727 22.5256 1.81587 22.9101 2.39144C23.2947 2.96702 23.5 3.6437 23.5 4.33594C23.5 5.2642 23.1313 6.15444 22.4749 6.81081C21.8185 7.46719 20.9283 7.83594 20 7.83594ZM20 2.58594C19.6539 2.58594 19.3155 2.68857 19.0278 2.88087C18.74 3.07316 18.5157 3.34647 18.3832 3.66624C18.2508 3.98601 18.2161 4.33788 18.2836 4.67735C18.3511 5.01681 18.5178 5.32863 18.7626 5.57338C19.0073 5.81812 19.3191 5.98479 19.6586 6.05231C19.9981 6.11984 20.3499 6.08518 20.6697 5.95273C20.9895 5.82028 21.2628 5.59597 21.4551 5.30819C21.6474 5.0204 21.75 4.68206 21.75 4.33594C21.75 3.87181 21.5656 3.42669 21.2374 3.0985C20.9092 2.77031 20.4641 2.58594 20 2.58594ZM21.75 26.2109H18.25C17.7859 26.2109 17.3408 26.0266 17.0126 25.6984C16.6844 25.3702 16.5 24.9251 16.5 24.4609V18.3359H18.25V24.4609H21.75V16.5859H23.5V11.3359C23.5 11.1039 23.4078 10.8813 23.2437 10.7172C23.0796 10.5531 22.8571 10.4609 22.625 10.4609H17.0075L13 17.4609L8.9925 10.4609H3.375C3.14294 10.4609 2.92038 10.5531 2.75628 10.7172C2.59219 10.8813 2.5 11.1039 2.5 11.3359V16.5859H4.25V24.4609H7.75V18.3359H9.5V24.4609C9.5 24.9251 9.31563 25.3702 8.98744 25.6984C8.65925 26.0266 8.21413 26.2109 7.75 26.2109H4.25C3.78587 26.2109 3.34075 26.0266 3.01256 25.6984C2.68437 25.3702 2.5 24.9251 2.5 24.4609V18.3359C2.03587 18.3359 1.59075 18.1516 1.26256 17.8234C0.934374 17.4952 0.75 17.0501 0.75 16.5859V11.3359C0.75 10.6397 1.02656 9.97207 1.51884 9.47978C2.01113 8.9875 2.67881 8.71094 3.375 8.71094H10.0075L13 13.9609L15.9925 8.71094H22.625C23.3212 8.71094 23.9889 8.9875 24.4812 9.47978C24.9734 9.97207 25.25 10.6397 25.25 11.3359V16.5859C25.25 17.0501 25.0656 17.4952 24.7374 17.8234C24.4092 18.1516 23.9641 18.3359 23.5 18.3359V24.4609C23.5 24.9251 23.3156 25.3702 22.9874 25.6984C22.6592 26.0266 22.2141 26.2109 21.75 26.2109Z" fill="white"/>
</svg>
