<svg width="24" height="25" viewBox="0 0 24 25" fill="none" xmlns="http://www.w3.org/2000/svg">
<path d="M12 2C9.22562 2.03347 6.57431 3.15047 4.61239 5.11239C2.65047 7.07431 1.53347 9.72562 1.5 12.5C1.53347 15.2744 2.65047 17.9257 4.61239 19.8876C6.57431 21.8495 9.22562 22.9665 12 23C14.7744 22.9665 17.4257 21.8495 19.3876 19.8876C21.3495 17.9257 22.4665 15.2744 22.5 12.5C22.4665 9.72562 21.3495 7.07431 19.3876 5.11239C17.4257 3.15047 14.7744 2.03347 12 2ZM18 13.25H12.75V18.5H11.25V13.25H6V11.75H11.25V6.5H12.75V11.75H18V13.25Z" fill="#F8F8F8"/>
</svg>
