<svg width="19" height="20" viewBox="0 0 19 20" fill="none" xmlns="http://www.w3.org/2000/svg">
<path d="M2.79692 17.4683L2.79006 17.4613L2.78293 17.4545C2.2581 16.9571 1.83652 16.3611 1.54229 15.7005C1.24807 15.04 1.08698 14.3279 1.06825 13.6051C1.04952 12.8822 1.17351 12.1628 1.43313 11.4879C1.69216 10.8146 2.08112 10.1988 2.57784 9.67562L9.93221 2.2513C9.93253 2.25097 9.93286 2.25065 9.93318 2.25032C10.2782 1.90619 10.6893 1.63547 11.1418 1.45449C11.5947 1.27333 12.0796 1.18584 12.5672 1.19728L12.5672 1.19738L12.5773 1.19742C13.1056 1.19922 13.6283 1.30619 14.1149 1.5121C14.6014 1.71802 15.0421 2.01874 15.4112 2.39675L15.4166 2.40226L15.4222 2.40761C16.1543 3.11254 16.5789 4.07778 16.6038 5.09383C16.6286 6.10762 16.2535 7.09035 15.5596 7.82968L8.16471 15.2546L8.16423 15.2551C7.97387 15.4467 7.74735 15.5986 7.4978 15.702C7.24825 15.8055 6.98065 15.8583 6.71053 15.8574L6.70831 15.8574C6.41177 15.8578 6.11816 15.7988 5.84481 15.6838C5.57146 15.5689 5.32391 15.4004 5.11677 15.1882L5.11691 15.188L5.10677 15.1782C4.69414 14.7787 4.45584 14.2325 4.44366 13.6583C4.43151 13.0859 4.64496 12.5319 5.03778 12.1157L11.8215 5.30222C11.9108 5.25312 12.0134 5.23235 12.1155 5.24329C12.2315 5.25572 12.3395 5.30833 12.4208 5.39201C12.5021 5.47569 12.5516 5.58517 12.5607 5.70149C12.5689 5.80615 12.5439 5.91042 12.4898 5.99968L5.69465 12.8246L5.67869 12.8407L5.66424 12.8581C5.46661 13.0962 5.37041 13.4024 5.39638 13.7107C5.42178 14.0124 5.56215 14.2926 5.78801 14.4934C6.01745 14.7176 6.32289 14.8475 6.64396 14.8572L6.64395 14.8573L6.65181 14.8574C6.79176 14.8594 6.93072 14.8336 7.06067 14.7817C7.19063 14.7297 7.309 14.6525 7.40895 14.5545L7.40898 14.5545L7.41348 14.55L14.8035 7.12002L14.8123 7.11119L14.8206 7.10194C15.3233 6.54349 15.586 5.80964 15.552 5.05904C15.5182 4.31317 15.1941 3.61029 14.6492 3.10036C14.139 2.57584 13.4481 2.26505 12.7168 2.23151C11.9807 2.19774 11.2597 2.44738 10.7021 2.92905L10.6883 2.94097L10.6754 2.95387L3.28542 10.3439L3.27911 10.3502L3.27303 10.3567C2.86875 10.7909 2.55433 11.3008 2.34786 11.857C2.14138 12.4132 2.04693 13.0047 2.06993 13.5976C2.09294 14.1904 2.23294 14.7728 2.48189 15.3114C2.72875 15.8454 3.07789 16.3257 3.50953 16.7253C3.94281 17.1716 4.46008 17.5279 5.03162 17.7737C5.60775 18.0214 6.22747 18.1519 6.85457 18.1574L6.85492 18.1574C7.40419 18.1619 7.94894 18.0578 8.45787 17.8511C8.9668 17.6444 9.42987 17.3392 9.8205 16.953L9.82348 16.95L17.2135 9.52002L17.2138 9.51972C17.2601 9.47308 17.3151 9.43601 17.3758 9.41064C17.4364 9.38527 17.5015 9.37209 17.5672 9.37186C17.6329 9.37163 17.6981 9.38435 17.7589 9.40929C17.8197 9.43423 17.875 9.4709 17.9217 9.51722C17.9683 9.56354 18.0054 9.61859 18.0308 9.67923C18.0561 9.73988 18.0693 9.80492 18.0695 9.87065C18.0698 9.93639 18.057 10.0015 18.0321 10.0623C18.0072 10.1231 17.9706 10.1784 17.9243 10.225C17.9243 10.225 17.9242 10.2251 17.9242 10.2251L10.5345 17.6548L10.5323 17.657C10.0541 18.1437 9.48386 18.5305 8.85482 18.795C8.22625 19.0592 7.55147 19.196 6.86963 19.1974C6.11035 19.1935 5.35941 19.0388 4.66045 18.7422C3.96095 18.4453 3.32748 18.0123 2.79692 17.4683Z" fill="#1D1E1D" stroke="white"/>
</svg>
