<svg width="27" height="26" viewBox="0 0 27 26" fill="none" xmlns="http://www.w3.org/2000/svg">
<g clip-path="url(#clip0_952_7934)">
<path d="M9.62907 18.9721L6.50618 20.5504C4.48931 21.5605 2.01702 20.8344 0.943528 18.8774C-0.0974355 16.9203 0.650757 14.5213 2.66762 13.4796L5.79052 11.9014L9.62907 18.9721Z" stroke="white" stroke-miterlimit="10" stroke-linecap="round" stroke-linejoin="round"/>
<path d="M9.62927 18.9723C14.8341 16.3208 22.3485 17.9622 22.3485 17.9622L21.1124 15.6895L18.1196 10.1339L13.8907 2.30566C13.8907 2.30566 11.0281 9.25011 5.82324 11.9016" stroke="white" stroke-miterlimit="10" stroke-linecap="round" stroke-linejoin="round"/>
<path d="M9.20633 19.1934L9.01115 24.4017C8.97862 25.3802 7.5473 25.5381 7.28706 24.5911L6.24609 20.7085" stroke="white" stroke-miterlimit="10" stroke-linecap="round" stroke-linejoin="round"/>
<path d="M17.1113 8.0189C18.2499 7.41916 19.7137 7.86107 20.3318 8.99744C20.9499 10.1022 20.4945 11.5227 19.3234 12.1224" stroke="white" stroke-miterlimit="10" stroke-linecap="round" stroke-linejoin="round"/>
<path d="M13.2073 8.14551C12.2964 9.47127 11.1254 10.9233 9.72656 12.1228" stroke="white" stroke-miterlimit="10" stroke-linecap="round" stroke-linejoin="round"/>
<path d="M3.15527 16.0996C3.48057 15.7839 3.83841 15.4998 4.2613 15.2789L4.9119 14.9316" stroke="white" stroke-miterlimit="10" stroke-linecap="round" stroke-linejoin="round"/>
<path d="M23.1611 7.54508L26.2515 5.9668" stroke="white" stroke-miterlimit="10" stroke-linecap="round" stroke-linejoin="round"/>
<path d="M18.4443 4.35739L19.4528 1.1377" stroke="white" stroke-miterlimit="10" stroke-linecap="round" stroke-linejoin="round"/>
<path d="M26.5124 14.1114L23.1943 13.1328" stroke="white" stroke-miterlimit="10" stroke-linecap="round" stroke-linejoin="round"/>
<path d="M20.624 6.31398L21.73 4.79883" stroke="white" stroke-miterlimit="10" stroke-linecap="round" stroke-linejoin="round"/>
<path d="M22.8037 10.1973L24.723 10.4498" stroke="white" stroke-miterlimit="10" stroke-linecap="round" stroke-linejoin="round"/>
<path d="M6.99414 11.207L10.8978 18.404" stroke="white" stroke-miterlimit="10" stroke-linecap="round" stroke-linejoin="round"/>
</g>
<defs>
<clipPath id="clip0_952_7934">
<rect width="27" height="25" fill="white" transform="translate(0 0.664062)"/>
</clipPath>
</defs>
</svg>
