<svg width="21" height="22" viewBox="0 0 21 22" fill="none" xmlns="http://www.w3.org/2000/svg">
<g clip-path="url(#clip0_795_16371)">
<path d="M5.4205 21.2764H1.82889C0.919146 21.2764 0.189453 20.5567 0.189453 19.6802V8.64505C0.189453 7.75928 0.928623 7.04883 1.82889 7.04883H5.4205C6.33025 7.04883 7.05994 7.76851 7.05994 8.64505V19.6802C7.05994 20.5567 6.33025 21.2764 5.4205 21.2764Z" stroke="white" stroke-width="2" stroke-miterlimit="10"/>
<path d="M12.3014 21.2764H8.70984C7.8001 21.2764 7.0704 20.5568 7.0704 19.6802V2.24173C7.06093 1.36519 7.8001 0.645508 8.70984 0.645508H12.3014C13.2112 0.645508 13.9409 1.36519 13.9409 2.24173V19.671C13.9409 20.5568 13.2017 21.2764 12.3014 21.2764Z" stroke="white" stroke-width="2" stroke-miterlimit="10"/>
<path d="M19.1705 21.2763H15.5789C14.6691 21.2763 13.9395 20.5566 13.9395 19.6801V14.4947C13.9395 13.6089 14.6786 12.8984 15.5789 12.8984H19.1705C20.0802 12.8984 20.8099 13.6181 20.8099 14.4947V19.6801C20.8099 20.5566 20.0802 21.2763 19.1705 21.2763Z" stroke="white" stroke-width="2" stroke-miterlimit="10"/>
</g>
<defs>
<clipPath id="clip0_795_16371">
<rect width="21" height="21" fill="white" transform="translate(0 0.460938)"/>
</clipPath>
</defs>
</svg>
